<?xml version="1.0" encoding="UTF-8"?> <svg xmlns="http://www.w3.org/2000/svg" xmlns:xlink="http://www.w3.org/1999/xlink" width="50.915" height="30.849" viewBox="0 0 50.915 30.849"><defs><clipPath id="clip-path"><rect id="Rectangle_263" data-name="Rectangle 263" width="50.915" height="30.849" transform="translate(0 0)" fill="none"></rect></clipPath></defs><g id="Group_886" data-name="Group 886" transform="translate(0 0)"><g id="Group_879" data-name="Group 879" clip-path="url(#clip-path)"><path id="Path_1362" data-name="Path 1362" d="M32.133,29.849H4.828A3.828,3.828,0,0,1,1,26.021V4.828A3.828,3.828,0,0,1,4.828,1h27.3a3.828,3.828,0,0,1,3.828,3.828V26.021a3.828,3.828,0,0,1-3.828,3.828" fill="#fff" fill-rule="evenodd"></path><rect id="Rectangle_259" data-name="Rectangle 259" width="34.961" height="28.849" rx="3.828" transform="translate(1 1)" fill="none" stroke="#000" stroke-linecap="round" stroke-linejoin="round" stroke-width="2"></rect><path id="Path_1363" data-name="Path 1363" d="M46.087,29.849h-6.3a3.828,3.828,0,0,1-3.828-3.828V4.828A3.828,3.828,0,0,1,39.789,1h6.3a3.828,3.828,0,0,1,3.828,3.828V26.021a3.828,3.828,0,0,1-3.828,3.828" fill="#fff" fill-rule="evenodd"></path><rect id="Rectangle_260" data-name="Rectangle 260" width="13.954" height="28.849" rx="3.828" transform="translate(35.961 1)" fill="none" stroke="#000" stroke-linecap="round" stroke-linejoin="round" stroke-width="2"></rect><path id="Path_1364" data-name="Path 1364" d="M18.08,18.052v-.213a2.271,2.271,0,0,0-1.567-2.253l-3.234-.86V11.733a.686.686,0,0,0-.266-.546l-1.093-.83a.624.624,0,0,0-.76,0l-1.093.83a.686.686,0,0,0-.266.546v2.993l-3.234.86A2.271,2.271,0,0,0,5,17.839v.213H9.8v3.4l-1.51.5a1.638,1.638,0,0,0-1.044,1.588v.639h8.586v-.639a1.638,1.638,0,0,0-1.044-1.588l-1.51-.5v-3.4Z" fill-rule="evenodd"></path><line id="Line_284" data-name="Line 284" x2="48.915" transform="translate(1 6.284)" fill="#fff"></line><line id="Line_285" data-name="Line 285" x2="48.915" transform="translate(1 6.284)" fill="none" stroke="#000" stroke-linecap="round" stroke-linejoin="round" stroke-width="2"></line><path id="Path_1370" data-name="Path 1370" d="M0,0H10.239V6.556H0Z" transform="translate(21.972 10.228)" fill="#7aba49"></path><rect id="Rectangle_262" data-name="Rectangle 262" width="10.239" height="6.556" transform="translate(21.972 10.228)" fill="none" stroke="#000" stroke-linecap="round" stroke-linejoin="round" stroke-width="2"></rect><line id="Line_286" data-name="Line 286" x2="10.239" transform="translate(21.972 20.321)" fill="#fff"></line><line id="Line_287" data-name="Line 287" x2="10.239" transform="translate(21.972 20.321)" fill="none" stroke="#000" stroke-linecap="round" stroke-linejoin="round" stroke-width="2"></line><line id="Line_288" data-name="Line 288" x2="10.239" transform="translate(21.972 24.176)" fill="#fff"></line><line id="Line_289" data-name="Line 289" x2="10.239" transform="translate(21.972 24.176)" fill="none" stroke="#000" stroke-linecap="round" stroke-linejoin="round" stroke-width="2"></line><line id="Line_290" data-name="Line 290" x2="7.28" transform="translate(39.298 19.977)" fill="#fff"></line><line id="Line_291" data-name="Line 291" x2="7.28" transform="translate(39.298 19.977)" fill="none" stroke="#000" stroke-linecap="round" stroke-linejoin="round" stroke-width="2"></line><line id="Line_292" data-name="Line 292" x2="7.28" transform="translate(39.298 24.176)" fill="#fff"></line><line id="Line_293" data-name="Line 293" x2="7.28" transform="translate(39.298 24.176)" fill="none" stroke="#000" stroke-linecap="round" stroke-linejoin="round" stroke-width="2"></line><line id="Line_294" data-name="Line 294" x2="7.28" transform="translate(39.298 11.578)" fill="#fff"></line><line id="Line_295" data-name="Line 295" x2="7.28" transform="translate(39.298 11.578)" fill="none" stroke="#000" stroke-linecap="round" stroke-linejoin="round" stroke-width="2"></line><line id="Line_296" data-name="Line 296" x2="7.28" transform="translate(39.298 15.778)" fill="#fff"></line><line id="Line_297" data-name="Line 297" x2="7.28" transform="translate(39.298 15.778)" fill="none" stroke="#000" stroke-linecap="round" stroke-linejoin="round" stroke-width="2"></line></g></g></svg> 