<?xml version="1.0" encoding="UTF-8"?> <svg xmlns="http://www.w3.org/2000/svg" xmlns:xlink="http://www.w3.org/1999/xlink" width="24.066" height="34.752" viewBox="0 0 24.066 34.752"><defs><clipPath id="clip-path"><rect id="Rectangle_258" data-name="Rectangle 258" width="24.066" height="34.752" transform="translate(0 0)" fill="none"></rect></clipPath></defs><g id="Group_877" data-name="Group 877" transform="translate(0 0)" clip-path="url(#clip-path)"><path id="Path_1360" data-name="Path 1360" d="M19.973,33.752H4.092A3.092,3.092,0,0,1,1,30.659V4.093A3.092,3.092,0,0,1,4.092,1H19.973a3.093,3.093,0,0,1,3.093,3.093V30.659a3.093,3.093,0,0,1-3.093,3.093" fill="#fff" fill-rule="evenodd"></path><rect id="Rectangle_256" data-name="Rectangle 256" width="22.066" height="32.752" rx="3.093" transform="translate(1 1)" fill="none" stroke="#000" stroke-linecap="round" stroke-linejoin="round" stroke-width="2"></rect><line id="Line_282" data-name="Line 282" x2="4.011" transform="translate(10.028 30.839)" fill="#fff"></line><line id="Line_283" data-name="Line 283" x2="4.011" transform="translate(10.028 30.839)" fill="none" stroke="#000" stroke-linecap="round" stroke-linejoin="round" stroke-width="2"></line><path id="Path_1361" data-name="Path 1361" d="M18.368,27.12H5.7a1.285,1.285,0,0,1-1.285-1.285V5.431A1.285,1.285,0,0,1,5.7,4.146h12.67a1.285,1.285,0,0,1,1.285,1.285v20.4a1.285,1.285,0,0,1-1.285,1.285" fill="#0cf" fill-rule="evenodd"></path><rect id="Rectangle_257" data-name="Rectangle 257" width="15.24" height="22.974" rx="1.285" transform="translate(4.413 4.146)" fill="none" stroke="#000" stroke-linecap="round" stroke-linejoin="round" stroke-width="2"></rect></g></svg> 