<?xml version="1.0" encoding="UTF-8"?> <svg xmlns="http://www.w3.org/2000/svg" xmlns:xlink="http://www.w3.org/1999/xlink" width="34.257" height="39.367" viewBox="0 0 34.257 39.367"><defs><clipPath id="clip-path"><rect id="Rectangle_264" data-name="Rectangle 264" width="34.257" height="39.367" transform="translate(0 0)" fill="none"></rect></clipPath></defs><g id="Group_883" data-name="Group 883" transform="translate(0 0)"><g id="Group_884" data-name="Group 884" clip-path="url(#clip-path)"><path id="Path_1365" data-name="Path 1365" d="M23.138,34.811l-6.009,3.556L11.12,34.811A20.621,20.621,0,0,1,1,17.063V10.245L17.129,1l16.128,9.245v6.818A20.623,20.623,0,0,1,23.138,34.811" fill="#fff" fill-rule="evenodd"></path><path id="Path_1366" data-name="Path 1366" d="M23.138,34.811l-6.009,3.556L11.12,34.811A20.621,20.621,0,0,1,1,17.063V10.245L17.129,1l16.128,9.245v6.818A20.623,20.623,0,0,1,23.138,34.811Z" fill="#face37" stroke="#000" stroke-linecap="round" stroke-linejoin="round" stroke-width="2"></path><path id="Path_1367" data-name="Path 1367" d="M21.306,30.2l-4.178,2.473L12.95,30.2a14.339,14.339,0,0,1-7.036-12.34V13.121L17.128,6.693l11.214,6.428v4.741A14.339,14.339,0,0,1,21.306,30.2" fill="#fff" fill-rule="evenodd"></path><path id="Path_1368" data-name="Path 1368" d="M21.306,30.2l-4.178,2.473L12.95,30.2a14.339,14.339,0,0,1-7.036-12.34V13.121L17.128,6.693l11.214,6.428v4.741A14.339,14.339,0,0,1,21.306,30.2Z" fill="none" stroke="#000" stroke-linecap="round" stroke-linejoin="round" stroke-width="2"></path><path id="Path_1369" data-name="Path 1369" d="M12.024,19.61l3.652,3.652L22.233,16.7" fill="none" stroke="#000" stroke-linecap="round" stroke-linejoin="round" stroke-width="2"></path></g></g></svg> 