<?xml version="1.0" encoding="UTF-8"?> <svg xmlns="http://www.w3.org/2000/svg" xmlns:xlink="http://www.w3.org/1999/xlink" width="34.611" height="34.595" viewBox="0 0 34.611 34.595"><defs><clipPath id="clip-path"><rect id="Rectangle_326" data-name="Rectangle 326" width="34.611" height="34.595" transform="translate(0 0)" fill="none"></rect></clipPath></defs><g id="Group_1000" data-name="Group 1000" transform="translate(0 0)"><g id="Group_1000-2" data-name="Group 1000" clip-path="url(#clip-path)"><path id="Path_1521" data-name="Path 1521" d="M31.9,26.822H2.712A1.712,1.712,0,0,1,1,25.11V7.5A1.711,1.711,0,0,1,2.712,5.784H31.9A1.711,1.711,0,0,1,33.611,7.5V25.11A1.712,1.712,0,0,1,31.9,26.822" fill="#fff"></path><rect id="Rectangle_325" data-name="Rectangle 325" width="32.611" height="21.038" rx="1.712" transform="translate(1 5.784)" fill="none" stroke="#000" stroke-linecap="round" stroke-linejoin="round" stroke-width="2"></rect><path id="Path_1522" data-name="Path 1522" d="M9.806,20.05H28.6V31.5a2.1,2.1,0,0,1-2.1,2.1H11.9a2.1,2.1,0,0,1-2.1-2.1Z" fill="#fff" fill-rule="evenodd"></path><path id="Path_1523" data-name="Path 1523" d="M9.806,20.05H28.6V31.5a2.1,2.1,0,0,1-2.1,2.1H11.9a2.1,2.1,0,0,1-2.1-2.1Z" fill="#face37" stroke="#000" stroke-linecap="round" stroke-linejoin="round" stroke-width="2"></path><line id="Line_349" data-name="Line 349" x1="12.32" transform="translate(13.045 29.299)" fill="#fff"></line><line id="Line_350" data-name="Line 350" x1="12.32" transform="translate(13.045 29.299)" fill="none" stroke="#000" stroke-linecap="round" stroke-linejoin="round" stroke-width="2"></line><line id="Line_351" data-name="Line 351" x1="12.32" transform="translate(13.045 25.289)" fill="#fff"></line><line id="Line_352" data-name="Line 352" x1="12.32" transform="translate(13.045 25.289)" fill="none" stroke="#000" stroke-linecap="round" stroke-linejoin="round" stroke-width="2"></line><line id="Line_353" data-name="Line 353" x2="21.734" transform="translate(8.337 20.05)" fill="#fff"></line><line id="Line_354" data-name="Line 354" x2="21.734" transform="translate(8.337 20.05)" fill="none" stroke="#000" stroke-linecap="round" stroke-linejoin="round" stroke-width="2"></line><line id="Line_355" data-name="Line 355" x2="7.349" transform="translate(22.342 10.583)" fill="#fff"></line><line id="Line_356" data-name="Line 356" x2="7.349" transform="translate(22.342 10.583)" fill="none" stroke="#000" stroke-linecap="round" stroke-linejoin="round" stroke-width="2"></line><path id="Path_1524" data-name="Path 1524" d="M7.626,10.583a1.188,1.188,0,1,0-1.188,1.188,1.188,1.188,0,0,0,1.188-1.188" fill="#fff"></path><circle id="Ellipse_35" data-name="Ellipse 35" cx="1.188" cy="1.188" r="1.188" transform="translate(5.25 9.395)" fill="none" stroke="#000" stroke-linecap="round" stroke-linejoin="round" stroke-width="2"></circle><path id="Path_1525" data-name="Path 1525" d="M12.929,10.583a1.188,1.188,0,1,0-1.188,1.188,1.188,1.188,0,0,0,1.188-1.188" fill="#fff"></path><circle id="Ellipse_36" data-name="Ellipse 36" cx="1.188" cy="1.188" r="1.188" transform="translate(10.553 9.395)" fill="none" stroke="#000" stroke-linecap="round" stroke-linejoin="round" stroke-width="2"></circle><path id="Path_1526" data-name="Path 1526" d="M28.6,5.784H9.806V3.1A2.1,2.1,0,0,1,11.9,1h14.6a2.1,2.1,0,0,1,2.1,2.1Z" fill="#fff" fill-rule="evenodd"></path><path id="Path_1527" data-name="Path 1527" d="M28.6,5.784H9.806V3.1A2.1,2.1,0,0,1,11.9,1h14.6a2.1,2.1,0,0,1,2.1,2.1Z" fill="none" stroke="#000" stroke-linecap="round" stroke-linejoin="round" stroke-width="2"></path></g></g></svg> 