<?xml version="1.0" encoding="UTF-8"?> <svg xmlns="http://www.w3.org/2000/svg" width="33.986" height="66.264" viewBox="0 0 33.986 66.264"><g id="Group_299" data-name="Group 299" transform="translate(1 0.978)"><path id="Path_20" data-name="Path 20" d="M338.5,1128.723c-.893.025-.959.887-.959,1.341q-.008,12.276,0,24.552c0,1.434-.027,3.293-1.4,3.293-4.444,0-2.343.07-8.445.07-1.448,0-1.62.035-1.62-1.41q0-13.341,0-26.682c0-1.339-.024-1.364-1.332-1.365-2.211,0-3.186.005-5.4.005-1.551,0-1.425-.144-1.476-1.445-.075-1.908-.075-7.263-.074-8.826,0-.606.2-.8.8-.794,2.13.029,4.262-.02,6.391.026.757.016,1.007-.188,1-.973-.035-3.026-.092-6.056.029-9.078.279-6.981,4.114-11.554,10.917-13.218a31.741,31.741,0,0,1,8.568-.45c1.2.035,2.276.171,3.6.263.554.04.661.26.649.744-.077,3.025-.146,6.051-.188,9.076-.008.6-.277.7-.8.7-2.53,0-5.062-.2-7.589.051-2.1.21-3.117,1.2-3.305,3.3-.267,2.988-.053,5.986-.124,8.979-.017.719.465.591.877.592q5,.006,10,0c1.192,0,1.255.006,1.135,1.217-.308,3.118-.853,6.126-1.365,8.944-.181.993-.509,1.058-1.332,1.063C343.474,1128.718,341.925,1128.714,338.5,1128.723Z" transform="translate(-317.784 -1093.693)" fill="#fff" stroke="#000" stroke-linecap="round" stroke-linejoin="round" stroke-width="2"></path></g></svg> 