<?xml version="1.0" encoding="UTF-8"?> <svg xmlns="http://www.w3.org/2000/svg" xmlns:xlink="http://www.w3.org/1999/xlink" id="Group_298" data-name="Group 298" width="21.483" height="21.442" viewBox="0 0 21.483 21.442"><defs><clipPath id="clip-path"><rect id="Rectangle_95" data-name="Rectangle 95" width="21.483" height="21.442" fill="#fff"></rect></clipPath></defs><g id="Group_297" data-name="Group 297" clip-path="url(#clip-path)"><path id="Path_358" data-name="Path 358" d="M10.721,1.952c2.856,0,3.2,0,4.326.063a5.817,5.817,0,0,1,1.988.369,3.558,3.558,0,0,1,2.028,2.028A5.816,5.816,0,0,1,19.432,6.4c.054,1.129.063,1.471.063,4.326s0,3.2-.063,4.326a5.816,5.816,0,0,1-.369,1.988,3.557,3.557,0,0,1-2.028,2.028,5.815,5.815,0,0,1-1.988.369c-1.129.054-1.466.063-4.326.063s-3.2,0-4.326-.063a5.816,5.816,0,0,1-1.988-.369A3.557,3.557,0,0,1,2.4,17.035a5.817,5.817,0,0,1-.369-1.988c-.054-1.129-.063-1.471-.063-4.326s0-3.2.063-4.326A5.817,5.817,0,0,1,2.4,4.407,3.557,3.557,0,0,1,4.407,2.4a5.815,5.815,0,0,1,1.988-.369c1.129-.054,1.471-.063,4.326-.063m0-1.929C7.816.04,7.452.04,6.31.1a7.865,7.865,0,0,0-2.6.5A5.442,5.442,0,0,0,.562,3.751a7.866,7.866,0,0,0-.5,2.6C.013,7.492,0,7.857,0,10.762s0,3.269.063,4.412A7.866,7.866,0,0,0,.6,17.732,5.441,5.441,0,0,0,3.751,20.88a7.867,7.867,0,0,0,2.6.5c1.142.049,1.507.063,4.412.063s3.269,0,4.412-.063a7.867,7.867,0,0,0,2.6-.5,5.441,5.441,0,0,0,3.148-3.148,7.865,7.865,0,0,0,.5-2.6c.049-1.142.063-1.507.063-4.412s0-3.269-.063-4.412a7.864,7.864,0,0,0-.5-2.6A5.441,5.441,0,0,0,17.773.562a7.866,7.866,0,0,0-2.6-.5C14.031.013,13.667,0,10.762,0Z" transform="translate(0)" fill="#fff"></path><path id="Path_359" data-name="Path 359" d="M150.553,145.056a5.5,5.5,0,1,0,5.5,5.5,5.5,5.5,0,0,0-5.5-5.5m0,9.062a3.566,3.566,0,1,1,3.566-3.566,3.566,3.566,0,0,1-3.566,3.566" transform="translate(-139.831 -139.83)" fill="#fff"></path><path id="Path_360" data-name="Path 360" d="M421.727,103.362a1.286,1.286,0,1,1-1.286,1.286,1.286,1.286,0,0,1,1.286-1.286" transform="translate(-405.295 -99.638)" fill="#fff"></path></g></svg> 