<?xml version="1.0" encoding="UTF-8"?> <svg xmlns="http://www.w3.org/2000/svg" xmlns:xlink="http://www.w3.org/1999/xlink" id="Group_60" data-name="Group 60" width="140.424" height="47.451" viewBox="0 0 140.424 47.451"><defs><clipPath id="clip-path"><rect id="Rectangle_27" data-name="Rectangle 27" width="140.424" height="47.451" fill="#fff"></rect></clipPath></defs><g id="Group_60-2" data-name="Group 60" transform="translate(0 0)" clip-path="url(#clip-path)"><path id="Path_39" data-name="Path 39" d="M204.172,69.291a3.075,3.075,0,0,1,.254-1.245,3.258,3.258,0,0,1,1.707-1.706,3.172,3.172,0,0,1,2.49,0,3.258,3.258,0,0,1,1.707,1.706,3.18,3.18,0,0,1,0,2.491,3.258,3.258,0,0,1-1.707,1.706,3.179,3.179,0,0,1-2.49,0,3.258,3.258,0,0,1-1.707-1.706,3.076,3.076,0,0,1-.254-1.246m.879,0a2.469,2.469,0,0,0,.181.944,2.387,2.387,0,0,0,.5.771,2.459,2.459,0,0,0,.741.521,2.21,2.21,0,0,0,1.81,0,2.456,2.456,0,0,0,.741-.521,2.388,2.388,0,0,0,.5-.771,2.546,2.546,0,0,0,0-1.887,2.388,2.388,0,0,0-.5-.771,2.458,2.458,0,0,0-.741-.522,2.21,2.21,0,0,0-1.81,0,2.461,2.461,0,0,0-.741.522,2.387,2.387,0,0,0-.5.771,2.465,2.465,0,0,0-.181.943m1.095-1.715h1.189c.091,0,.218.006.379.017a1.4,1.4,0,0,1,.474.12,1.063,1.063,0,0,1,.406.323,1,1,0,0,1,.172.625,1.131,1.131,0,0,1-.069.427.827.827,0,0,1-.176.276.724.724,0,0,1-.25.164,1.175,1.175,0,0,1-.289.073l.862,1.336h-.9l-.767-1.293h-.147v1.293h-.879Zm.87,1.4h.353c.052,0,.107,0,.168-.009a.528.528,0,0,0,.168-.043.311.311,0,0,0,.13-.108.423.423,0,0,0,0-.4.314.314,0,0,0-.13-.107.529.529,0,0,0-.168-.043c-.06-.006-.116-.009-.168-.009h-.353Z" transform="translate(-77.379 -25.045)" fill="#fff"></path><path id="Path_40" data-name="Path 40" d="M23.9,11.719A9.485,9.485,0,0,0,18.938,10.4a9.943,9.943,0,0,0-9.4,5.947v-5.2H3.076A3.076,3.076,0,0,0,0,14.231V44.066H6.459A3.076,3.076,0,0,0,9.535,40.99V28.63c0-6.811,2.783-9.593,7.388-9.593a9.1,9.1,0,0,1,1.131.068A19.531,19.531,0,0,1,23.9,11.719" transform="translate(0 -3.943)" fill="#fff"></path><path id="Path_41" data-name="Path 41" d="M51.4,43.17a3.076,3.076,0,0,0,2.83,4.281h62.959a24.651,24.651,0,0,0,17.119-6.66,23.018,23.018,0,0,0,5.223-7.442l.225-.528L147.981,13.5c1.472-3.282,2.916-6.676,3.988-9.239A3.076,3.076,0,0,0,149.131,0H86.116A24.652,24.652,0,0,0,69,6.66a23,23,0,0,0-5.1,7.183A17.928,17.928,0,0,0,49.037,6.459c-10.072,0-17.938,7.273-17.938,17.25,0,9.95,7.825,17.218,17.859,17.256l2.552-6.012a1.541,1.541,0,0,0-1.6-2.127q-.429.043-.877.043a7.766,7.766,0,0,1-7.486-5.357H58.066ZM41.551,20.131a7.46,7.46,0,0,1,7.486-5.422,7.425,7.425,0,0,1,7.455,5.422Zm45.04,12.708a7.615,7.615,0,0,0,5.338-1.994,1.548,1.548,0,0,1,2.158.015l4.072,4.072A1.544,1.544,0,0,1,98,37.248a18.568,18.568,0,0,1-11.405,3.744c-10.072,0-17.938-7.29-17.938-17.267S76.519,6.459,86.591,6.459A18.568,18.568,0,0,1,98,10.2a1.544,1.544,0,0,1,.162,2.317l-4.072,4.072a1.547,1.547,0,0,1-2.158.015,7.615,7.615,0,0,0-5.338-1.994c-4.988,0-8.058,3.837-8.058,9.113s3.07,9.113,8.058,9.113m30.182,8.154c-10.072,0-17.939-7.29-17.939-17.267S106.7,6.459,116.773,6.459s17.938,7.291,17.938,17.267-7.866,17.267-17.938,17.267" transform="translate(-11.786 0)" fill="#fff"></path><path id="Path_42" data-name="Path 42" d="M164.14,23.531c-4.988,0-8.058,3.837-8.058,9.113s3.07,9.113,8.058,9.113,8.058-3.837,8.058-9.113-3.07-9.113-8.058-9.113" transform="translate(-59.153 -8.918)" fill="#fff"></path></g></svg> 