<?xml version="1.0" encoding="UTF-8"?> <svg xmlns="http://www.w3.org/2000/svg" xmlns:xlink="http://www.w3.org/1999/xlink" width="40.319" height="33.152" viewBox="0 0 40.319 33.152"><defs><clipPath id="clip-path"><rect id="Rectangle_340" data-name="Rectangle 340" width="40.319" height="33.152" transform="translate(0 0)" fill="none"></rect></clipPath></defs><g id="Group_1085" data-name="Group 1085" transform="translate(0 0)"><rect id="Rectangle_338" data-name="Rectangle 338" width="38.319" height="26.407" transform="translate(1 5.745)" fill="#fff"></rect><g id="Group_1082" data-name="Group 1082"><g id="Group_1081" data-name="Group 1081" clip-path="url(#clip-path)"><rect id="Rectangle_339" data-name="Rectangle 339" width="38.319" height="26.407" transform="translate(1 5.745)" fill="none" stroke="#000" stroke-linecap="round" stroke-linejoin="round" stroke-width="2"></rect></g></g><rect id="Rectangle_341" data-name="Rectangle 341" width="14.494" height="15.862" transform="translate(5.666 11.709)" fill="#fff"></rect><rect id="Rectangle_342" data-name="Rectangle 342" width="14.494" height="15.862" transform="translate(5.666 11.709)" fill="none" stroke="#000" stroke-linecap="round" stroke-linejoin="round" stroke-width="2"></rect><g id="Group_1084" data-name="Group 1084"><g id="Group_1083" data-name="Group 1083" clip-path="url(#clip-path)"><path id="Path_1548" data-name="Path 1548" d="M14.787,17.375a1.874,1.874,0,1,0-1.874,1.874,1.874,1.874,0,0,0,1.874-1.874" fill="#face38" fill-rule="evenodd"></path><path id="Path_1549" data-name="Path 1549" d="M14.787,17.375a1.874,1.874,0,1,0-1.874,1.874A1.874,1.874,0,0,0,14.787,17.375Z" fill="none" stroke="#000" stroke-linecap="round" stroke-linejoin="round" stroke-width="1.75"></path><path id="Path_1550" data-name="Path 1550" d="M17.344,23.78a4.431,4.431,0,1,0-8.863,0Z" fill="#face38" fill-rule="evenodd"></path><path id="Path_1551" data-name="Path 1551" d="M17.344,23.78a4.431,4.431,0,1,0-8.863,0Z" fill="none" stroke="#000" stroke-linecap="round" stroke-linejoin="round" stroke-width="1.75"></path><line id="Line_359" data-name="Line 359" x2="8.587" transform="translate(25.599 14.361)" fill="#fff"></line><line id="Line_360" data-name="Line 360" x2="8.587" transform="translate(25.599 14.361)" fill="none" stroke="#000" stroke-linecap="round" stroke-linejoin="round" stroke-width="2"></line><line id="Line_361" data-name="Line 361" x2="8.587" transform="translate(25.599 19.64)" fill="#fff"></line><line id="Line_362" data-name="Line 362" x2="8.587" transform="translate(25.599 19.64)" fill="none" stroke="#000" stroke-linecap="round" stroke-linejoin="round" stroke-width="2"></line><line id="Line_363" data-name="Line 363" x2="8.587" transform="translate(25.599 24.919)" fill="#fff"></line><line id="Line_364" data-name="Line 364" x2="8.587" transform="translate(25.599 24.919)" fill="none" stroke="#000" stroke-linecap="round" stroke-linejoin="round" stroke-width="2"></line><rect id="Rectangle_343" data-name="Rectangle 343" width="6.9" height="6.9" transform="translate(16.709 0.999)" fill="#fff"></rect><rect id="Rectangle_344" data-name="Rectangle 344" width="6.9" height="6.9" transform="translate(16.709 0.999)" fill="none" stroke="#000" stroke-linecap="round" stroke-linejoin="round" stroke-width="2"></rect></g></g></g></svg> 