<?xml version="1.0" encoding="UTF-8"?> <svg xmlns="http://www.w3.org/2000/svg" width="108.211" height="195.826" viewBox="0 0 108.211 195.826"><g id="Group_246" data-name="Group 246" transform="translate(25.04 -4.562) rotate(7)"><path id="Path_293" data-name="Path 293" d="M564.2,321.143a31.513,31.513,0,0,1-1.2-3.735c-.019-.056-.019-.113-.037-.15A44,44,0,0,1,562,307.7h0l-.544-12.256-9.347.619,1.22,12.237c.6,5.593-.019,11.3-4.223,13.514C554.121,322.87,559.245,322.27,564.2,321.143Z" transform="translate(-528.479 -139.134)" fill="#fff" stroke="#000" stroke-linecap="round" stroke-linejoin="round" stroke-miterlimit="10" stroke-width="2"></path><path id="Path_294" data-name="Path 294" d="M549.443,321.4a7.332,7.332,0,0,1-1.52.6c-4.9,1.389-10.21,1.783-14.79,4.279a9.353,9.353,0,0,0-4.017,3.81c-2.29,5.011,9.047,4.824,11.261,4.8,5.143-.075,10.267-.657,15.409-1.07,3.341-.263,8.277.394,10-3.6,1.182-2.759-.094-6.288-1.258-9.5C559.578,321.854,554.455,322.455,549.443,321.4Z" transform="translate(-528.813 -138.719)" fill="#e7287a" stroke="#000" stroke-linecap="round" stroke-linejoin="round" stroke-miterlimit="10" stroke-width="2"></path><path id="Path_295" data-name="Path 295" d="M587.722,288.678c-2.215-.582-4.467-1.07-6.288-2.553l-7.845-5.856-4.2,8.728c-.075.15,6.419,4.035,7.038,4.5,2.665,2.083,4.054,4.448,3.36,7.92C583.687,298.157,586.052,293.465,587.722,288.678Z" transform="translate(-528.146 -139.384)" fill="#fff" stroke="#000" stroke-linecap="round" stroke-linejoin="round" stroke-miterlimit="10" stroke-width="2"></path><path id="Path_296" data-name="Path 296" d="M591.308,289.819a16.927,16.927,0,0,0-3.622-1.276c-1.689,4.786-4.054,9.478-7.939,12.763a9.855,9.855,0,0,1-.863,2.534c-2.534,5.143-6.438,6.682-7.207,12.65a3.8,3.8,0,0,0,.488,2.872,3.414,3.414,0,0,0,2.7,1.126,9.128,9.128,0,0,0,5.931-2.327c5.687-4.73,6.869-10.511,10.942-16.46C594.63,297.477,597.127,292.859,591.308,289.819Z" transform="translate(-528.11 -139.248)" fill="#e7287a" stroke="#000" stroke-linecap="round" stroke-linejoin="round" stroke-miterlimit="10" stroke-width="2"></path><path id="Path_297" data-name="Path 297" d="M563.076,227.288a98.063,98.063,0,0,0,19.82-23.705l3.378-7.17c4.354-2.965,7.789,2.346,6.7,7.02s-6.062,10.511-6.062,10.511A62.543,62.543,0,0,1,573.08,227.72l-8.465,5.631-7.639-1.089Z" transform="translate(-528.35 -140.776)" fill="#fff" stroke="#000" stroke-linecap="round" stroke-linejoin="round" stroke-miterlimit="10" stroke-width="2"></path><path id="Path_298" data-name="Path 298" d="M588.986,184.1c4.148,1.351,9.553.244,13.8-.319,5.33-.694,9.122-6.907,7.545-11.543-1.3-3.848-4.373-6.738-5.368-10.717-1.258-5.086,1.821-11.318-3.435-15.691-5.687-4.73-15.484-6.663-22.992.863-2.121,2.121-3.191,6.625-3.1,9.159.094,2.609,1.107,7.526.807,10.079a32.852,32.852,0,0,1-1.258,5.161,8.374,8.374,0,0,0,2.365,8.221c2.008,2.065,7.17,3.773,10.116,4.523Z" transform="translate(-528.059 -141.661)" fill="#face37" stroke="#000" stroke-linecap="round" stroke-linejoin="round" stroke-miterlimit="10" stroke-width="2"></path><path id="Path_299" data-name="Path 299" d="M560.709,263.723a96.454,96.454,0,0,0,20.834,20.89c-2.571,3.791-5.143,7.564-7.714,11.355a53.62,53.62,0,0,1-11.168-7.827l-18.675-11.224c-8.427-9.572-12.707-22.429-10.06-34.535A18.789,18.789,0,0,1,538.2,233.3c4.749-5.068,12.8-5.856,20.045-6.006,6.457-.131,15.578.263,22.016.563L577,241.257s-18.075,3.116-21.81,8.258C551.455,254.639,560.709,263.723,560.709,263.723Z" transform="translate(-528.742 -140.255)" fill="#0cf" stroke="#000" stroke-linecap="round" stroke-linejoin="round" stroke-miterlimit="10" stroke-width="2"></path><path id="Path_300" data-name="Path 300" d="M611.134,227.964a82.669,82.669,0,0,1-27.572-2.7c-4.073,3.585-12.068,4.11-17.061,5.105-6.757,1.351-14.077,2.177-18.863,7.77-6.044,7.076-5.143,21.979-4.336,30.669,1.07,11.449,3.6,22.692,6.156,33.9l1.107,5.405,11.13-.826c2.552-.3,2.534.206,2.365-2.778-.394-7.714-1.408-15.391-2.534-23.029-.882-5.95-2.29-19.651-.263-23.236,4.336-7.677,15.484-1.652,22.2-.826,5.65.694,11.487,1.051,16.892-.676,5.406-1.745,10.342-6.006,11.355-11.6.488-2.665.056-5.387-.244-8.089A61.234,61.234,0,0,1,611.134,227.964Z" transform="translate(-528.584 -140.288)" fill="#0cf" stroke="#000" stroke-linecap="round" stroke-linejoin="round" stroke-miterlimit="10" stroke-width="2"></path><path id="Path_301" data-name="Path 301" d="M612,206.359c-.169-6.306-2.215-15.672-5.743-20.89a80.666,80.666,0,0,0-6.269-7.9c-.357-.413-.713-.845-1.089-1.3-2.4,5.574-7.7,9.385-13.57,11.017-1.145,4.073-3.059,9.722-2.966,13.382.075,3.3,3.4,5.274,3.435,8.484.075,10.06-.732,14.771-2.477,16.5-.131.131-.282.263-.413.394a82.767,82.767,0,0,0,27.572,2.7C610.764,221.355,612.246,215.143,612,206.359Z" transform="translate(-527.933 -141.093)" fill="#e7287a" stroke="#000" stroke-linecap="round" stroke-linejoin="round" stroke-miterlimit="10" stroke-width="2"></path><path id="Path_302" data-name="Path 302" d="M598.974,176.724c-.244-.282-.488-.582-.732-.882-3.228-3.9-5.03-6.306-5.161-11.318l-.188-2.1c.019-.113.019-.244.038-.357.019-.075.019-.169.075-.225.075-.094.225-.038.319-.113,1.2-.9,1.445-.826,2.2-2.14.45-.788.488-2.5-.206-3.1a1.825,1.825,0,0,0-1.9-.544c-.732.338-.9.657-1.689,1.652-.544.694-1.2.544-2.778-.788a13.746,13.746,0,0,1-2.515-2.853,20.334,20.334,0,0,1-2.4-5.2c-6.532.995-4.748,5.668-4.974,10.135-.094,1.821-.863,2.065-1.089,2.965-.206.807,1.408,1.239,1.408,1.239a21.791,21.791,0,0,1,.957,3.716c.788,3.585,5.424,1.37,5.424,1.37v.038c-.019,1.727.751,12.106.413,16.01a4.618,4.618,0,0,1-.113.826c-.15.77-.394,1.689-.676,2.7C591.3,186.127,596.572,182.3,598.974,176.724Z" transform="translate(-528.005 -141.545)" fill="#fff" stroke="#000" stroke-linecap="round" stroke-linejoin="round" stroke-miterlimit="10" stroke-width="2"></path><path id="Path_303" data-name="Path 303" d="M604.095,190.841c-1.258-2.234-5.312-3.209-6.813-1.145-3.36,4.6-2.89,17.774-4.6,26.22a36.969,36.969,0,0,1-1.577,5.706c-3.491,9.347-10.192,13.007-19.782,15.71-2.365.657-8.333.169-10.773.319a10.68,10.68,0,0,0-4.411.92,1.541,1.541,0,0,0-.77.732c-.263.676.394,1.408,1.107,1.577a7.347,7.347,0,0,0,2.027.075,3.272,3.272,0,0,1,1.427.357c.488.432-.075.694-.6,1.07a11.04,11.04,0,0,1-1.9,1.051c-.582.244-1.164.807-1.032,1.445a1.2,1.2,0,0,0,1.164.863,3.528,3.528,0,0,0,1.5-.357c1.558-.619,4.317-1.933,4.786-1.464.938.938-2.046,1.558-2.459,2.834-.169.507-.056.507.075.751.357.713,1.746.619,2.027.6,2.5-.244,4.279-1.314,6.851-2.815a49.422,49.422,0,0,1,6.175-3.4c9.835-4.392,20.477-7.977,24.813-17.831a36.172,36.172,0,0,0,2.083-6.325c1.2-5.03,1.258-14.208,1.6-19.407C605.221,195.8,605.352,193.075,604.095,190.841Z" transform="translate(-528.377 -140.891)" fill="#fff" stroke="#000" stroke-linecap="round" stroke-linejoin="round" stroke-miterlimit="10" stroke-width="2"></path><path id="Path_304" data-name="Path 304" d="M584.513,157.348a2.791,2.791,0,0,0-2.59.3" transform="translate(-527.94 -141.407)" fill="none" stroke="#000" stroke-linecap="round" stroke-linejoin="round" stroke-miterlimit="10" stroke-width="2"></path><path id="Path_305" data-name="Path 305" d="M561.7,228.256c.357.3.45,1.014.995,1.239a1.969,1.969,0,0,0,1.426-.019c1.22-.432,2.083-1.389,3.36-1.727.807-.206,2.121.282,2.853-.188,1.933-1.22-2.665-2.553-4.2-3.1a12.225,12.225,0,0,0-4.354-.976,11.756,11.756,0,0,0-3.735.938,17.4,17.4,0,0,0-4.636,2.252.894.894,0,0,0-.45.657.734.734,0,0,0,.3.544,2.312,2.312,0,0,0,2.083.169c.45-.131,2.89-1.314,2.44.131-.113.338-.3.638-.056.995.375.544,1.408.319,1.858.038C560.083,228.913,561,227.655,561.7,228.256Z" transform="translate(-528.416 -140.317)" fill="#fff" stroke="#000" stroke-linecap="round" stroke-linejoin="round" stroke-miterlimit="10" stroke-width="2"></path></g></svg> 