<?xml version="1.0" encoding="UTF-8"?> <svg xmlns="http://www.w3.org/2000/svg" xmlns:xlink="http://www.w3.org/1999/xlink" width="70.482" height="73.095" viewBox="0 0 70.482 73.095"><defs><clipPath id="clip-path"><rect id="Rectangle_355" data-name="Rectangle 355" width="70.482" height="73.095" transform="translate(0 0)" fill="none"></rect></clipPath></defs><g id="Group_1093" data-name="Group 1093" transform="translate(0 0)" clip-path="url(#clip-path)"><path id="Path_1552" data-name="Path 1552" d="M44.53,60.072H42.767a1.951,1.951,0,0,1-1.951-1.952V52.086h5.666V58.12a1.952,1.952,0,0,1-1.952,1.952" fill="#fff"></path><path id="Path_1553" data-name="Path 1553" d="M44.53,60.072H42.767a1.951,1.951,0,0,1-1.951-1.952V52.086h5.666V58.12A1.952,1.952,0,0,1,44.53,60.072Z" fill="none" stroke="#000" stroke-linecap="round" stroke-linejoin="round" stroke-width="2"></path><path id="Path_1554" data-name="Path 1554" d="M58.769,60.072H57.006a1.951,1.951,0,0,1-1.951-1.952V52.086h5.666V58.12a1.952,1.952,0,0,1-1.952,1.952" fill="#fff"></path><path id="Path_1555" data-name="Path 1555" d="M58.769,60.072H57.006a1.951,1.951,0,0,1-1.951-1.952V52.086h5.666V58.12A1.952,1.952,0,0,1,58.769,60.072Z" fill="none" stroke="#000" stroke-linecap="round" stroke-linejoin="round" stroke-width="2"></path><path id="Path_1556" data-name="Path 1556" d="M63.673,54.231l-5.712,1.412a29.916,29.916,0,0,1-14.385,0l-5.712-1.412V26.278H63.673Z" fill="#7aba49"></path><path id="Path_1557" data-name="Path 1557" d="M63.673,54.231l-5.712,1.412a29.916,29.916,0,0,1-14.385,0l-5.712-1.412V26.278H63.673Z" fill="none" stroke="#000" stroke-miterlimit="10" stroke-width="1.75"></path><path id="Path_1558" data-name="Path 1558" d="M41.468,51.243h-3.6V46.99h3.6a1.374,1.374,0,0,1,1.374,1.375v1.5a1.374,1.374,0,0,1-1.374,1.374" fill="#fff"></path><path id="Path_1559" data-name="Path 1559" d="M41.468,51.243h-3.6V46.99h3.6a1.374,1.374,0,0,1,1.374,1.375v1.5A1.374,1.374,0,0,1,41.468,51.243Z" fill="none" stroke="#000" stroke-linecap="round" stroke-linejoin="round" stroke-width="2"></path><path id="Path_1560" data-name="Path 1560" d="M63.21,51.243H59.6a1.374,1.374,0,0,1-1.374-1.374v-1.5A1.374,1.374,0,0,1,59.6,46.99h3.6Z" fill="#fff"></path><path id="Path_1561" data-name="Path 1561" d="M63.21,51.243H59.6a1.374,1.374,0,0,1-1.374-1.374v-1.5A1.374,1.374,0,0,1,59.6,46.99h3.6Z" fill="none" stroke="#000" stroke-linecap="round" stroke-linejoin="round" stroke-width="2"></path><line id="Line_365" data-name="Line 365" x2="6.286" transform="translate(47.625 47.392)" fill="#fff"></line><line id="Line_366" data-name="Line 366" x2="6.286" transform="translate(47.625 47.392)" fill="none" stroke="#000" stroke-linecap="round" stroke-linejoin="round" stroke-width="2"></line><line id="Line_367" data-name="Line 367" x2="5.568" transform="translate(47.984 50.841)" fill="#fff"></line><line id="Line_368" data-name="Line 368" x2="5.568" transform="translate(47.984 50.841)" fill="none" stroke="#000" stroke-linecap="round" stroke-linejoin="round" stroke-width="2"></line><rect id="Rectangle_347" data-name="Rectangle 347" width="2.933" height="5.279" transform="translate(32.055 34.344)" fill="#fff"></rect><rect id="Rectangle_348" data-name="Rectangle 348" width="2.933" height="5.279" transform="translate(32.055 34.344)" fill="none" stroke="#000" stroke-linecap="round" stroke-linejoin="round" stroke-width="2"></rect><path id="Path_1562" data-name="Path 1562" d="M38.612,30.011H36.12a4.065,4.065,0,0,0-4.065,4.065v4.647" fill="none" stroke="#000" stroke-linecap="round" stroke-linejoin="round" stroke-width="2"></path><rect id="Rectangle_349" data-name="Rectangle 349" width="2.933" height="5.279" transform="translate(66.548 34.344)" fill="#fff"></rect><rect id="Rectangle_350" data-name="Rectangle 350" width="2.933" height="5.279" transform="translate(66.548 34.344)" fill="none" stroke="#000" stroke-linecap="round" stroke-linejoin="round" stroke-width="2"></rect><path id="Path_1563" data-name="Path 1563" d="M62.925,30.011h2.492a4.065,4.065,0,0,1,4.065,4.065v4.647" fill="none" stroke="#000" stroke-linecap="round" stroke-linejoin="round" stroke-width="2"></path><rect id="Rectangle_351" data-name="Rectangle 351" width="25.809" height="13.229" transform="translate(37.864 30.011)" fill="#fff"></rect><rect id="Rectangle_352" data-name="Rectangle 352" width="25.809" height="13.229" transform="translate(37.864 30.011)" fill="none" stroke="#000" stroke-linecap="round" stroke-linejoin="round" stroke-width="2"></rect><path id="Path_1564" data-name="Path 1564" d="M15.794,72.1l14.42-24.977a2.341,2.341,0,0,0-2.027-3.511H3.4a2.341,2.341,0,0,0-2.027,3.511Z" fill="#face38"></path><path id="Path_1565" data-name="Path 1565" d="M15.794,72.1l14.42-24.977a2.341,2.341,0,0,0-2.027-3.511H3.4a2.341,2.341,0,0,0-2.027,3.511Z" fill="none" stroke="#000" stroke-linecap="round" stroke-linejoin="round" stroke-width="2"></path><path id="Path_1566" data-name="Path 1566" d="M29.39,48.546,30.281,47a2.263,2.263,0,0,0-1.96-3.4H3.267A2.264,2.264,0,0,0,1.306,47l.911,1.579Z" fill="#face38"></path><path id="Path_1567" data-name="Path 1567" d="M29.39,48.546,30.281,47a2.263,2.263,0,0,0-1.96-3.4H3.267A2.264,2.264,0,0,0,1.306,47l.911,1.579Z" fill="none" stroke="#000" stroke-linecap="round" stroke-linejoin="round" stroke-width="2"></path><path id="Path_1568" data-name="Path 1568" d="M17.941,54.619a4.03,4.03,0,1,0-4.03,4.03,4.03,4.03,0,0,0,4.03-4.03" fill="#ed207a"></path><circle id="Ellipse_38" data-name="Ellipse 38" cx="4.03" cy="4.03" r="4.03" transform="translate(9.881 50.589)" fill="none" stroke="#000" stroke-linecap="round" stroke-linejoin="round" stroke-width="1.75"></circle><path id="Path_1569" data-name="Path 1569" d="M26.888,53.188a3.941,3.941,0,1,0-3.941,6.827Z" fill="#ed207a"></path><path id="Path_1570" data-name="Path 1570" d="M26.888,53.188a3.941,3.941,0,1,0-3.941,6.827Z" fill="none" stroke="#000" stroke-linecap="round" stroke-linejoin="round" stroke-width="1.75"></path><path id="Path_1571" data-name="Path 1571" d="M13.823,69.036a3.941,3.941,0,0,0-3.941-6.827Z" fill="#ed207a"></path><path id="Path_1572" data-name="Path 1572" d="M13.823,69.036a3.941,3.941,0,0,0-3.941-6.827Z" fill="none" stroke="#000" stroke-linecap="round" stroke-linejoin="round" stroke-width="1.75"></path><path id="Path_1573" data-name="Path 1573" d="M25.878,37.618H14l-1.89-23.564H27.767Z" fill="#0cf"></path><path id="Path_1574" data-name="Path 1574" d="M25.878,37.618H14l-1.89-23.564H27.767Z" fill="none" stroke="#000" stroke-linecap="round" stroke-linejoin="round" stroke-width="2"></path><line id="Line_369" data-name="Line 369" y1="9.213" x2="1.465" transform="translate(25.674 0.999)" fill="#fff"></line><line id="Line_370" data-name="Line 370" y1="9.213" x2="1.465" transform="translate(25.674 0.999)" fill="none" stroke="#000" stroke-linecap="round" stroke-linejoin="round" stroke-width="2"></line><rect id="Rectangle_353" data-name="Rectangle 353" width="20.164" height="3.841" transform="translate(9.856 10.212)" fill="#fff"></rect><rect id="Rectangle_354" data-name="Rectangle 354" width="20.164" height="3.841" transform="translate(9.856 10.212)" fill="none" stroke="#000" stroke-linecap="round" stroke-linejoin="round" stroke-width="2"></rect><path id="Path_1575" data-name="Path 1575" d="M25.878,37.618H14l-1.89-23.564H27.767Z" fill="none" stroke="#000" stroke-linecap="round" stroke-linejoin="round" stroke-width="2"></path></g></svg> 