<?xml version="1.0" encoding="UTF-8"?> <svg xmlns="http://www.w3.org/2000/svg" xmlns:xlink="http://www.w3.org/1999/xlink" width="27.538" height="33.083" viewBox="0 0 27.538 33.083"><defs><clipPath id="clip-path"><rect id="Rectangle_145" data-name="Rectangle 145" width="27.538" height="33.083" transform="translate(0 0)" fill="none"></rect></clipPath></defs><g id="Group_627" data-name="Group 627" transform="translate(0 0)"><path id="Path_566" data-name="Path 566" d="M21.354,1H1V32.083H26.538V6.184H21.354Z" fill="#fff"></path><g id="Group_624" data-name="Group 624"><g id="Group_623" data-name="Group 623" clip-path="url(#clip-path)"><path id="Path_567" data-name="Path 567" d="M21.354,1H1V32.083H26.538V6.184H21.354Z" fill="none" stroke="#000" stroke-linecap="round" stroke-linejoin="round" stroke-width="2"></path></g></g><path id="Path_568" data-name="Path 568" d="M21.354,1V6.184h5.184Z" fill="#fff"></path><g id="Group_626" data-name="Group 626"><g id="Group_625" data-name="Group 625" clip-path="url(#clip-path)"><path id="Path_569" data-name="Path 569" d="M21.354,1V6.184h5.184Z" fill="none" stroke="#000" stroke-linecap="round" stroke-linejoin="round" stroke-width="2"></path></g></g><path id="Path_570" data-name="Path 570" d="M5.4,7.742h0Z" fill="#fff"></path><path id="Path_571" data-name="Path 571" d="M5.4,13.188h0Z" fill="#fff"></path><path id="Path_572" data-name="Path 572" d="M5.4,18.627h0Z" fill="#fff"></path><path id="Path_573" data-name="Path 573" d="M11.955,13.188h0Z" fill="#fff"></path><line id="Line_114" data-name="Line 114" x2="10.184" transform="translate(11.955 12.541)" fill="none" stroke="#000" stroke-linecap="round" stroke-linejoin="round" stroke-width="2"></line><path id="Path_574" data-name="Path 574" d="M11.955,18.635h0Z" fill="#fff"></path><line id="Line_115" data-name="Line 115" x2="10.184" transform="translate(11.955 19.541)" fill="none" stroke="#000" stroke-linecap="round" stroke-linejoin="round" stroke-width="2"></line><path id="Path_575" data-name="Path 575" d="M5.4,23.908h0Z" fill="#fff"></path><path id="Path_576" data-name="Path 576" d="M11.955,23.916h0Z" fill="#fff"></path><line id="Line_117" data-name="Line 117" x2="10.184" transform="translate(11.955 25.916)" fill="none" stroke="#000" stroke-linecap="round" stroke-linejoin="round" stroke-width="2"></line><g id="Ellipse_20" data-name="Ellipse 20" transform="translate(4 10.041)" fill="#ed207a" stroke="#000" stroke-width="1"><circle cx="2" cy="2" r="2" stroke="none"></circle><circle cx="2" cy="2" r="1.5" fill="none"></circle></g><g id="Ellipse_23" data-name="Ellipse 23" transform="translate(4 17.041)" fill="#ed207a" stroke="#000" stroke-width="1"><circle cx="2" cy="2" r="2" stroke="none"></circle><circle cx="2" cy="2" r="1.5" fill="none"></circle></g><g id="Ellipse_24" data-name="Ellipse 24" transform="translate(4 24.041)" fill="#ed207a" stroke="#000" stroke-width="1"><circle cx="2" cy="2" r="2" stroke="none"></circle><circle cx="2" cy="2" r="1.5" fill="none"></circle></g></g></svg> 