<?xml version="1.0" encoding="UTF-8"?> <svg xmlns="http://www.w3.org/2000/svg" xmlns:xlink="http://www.w3.org/1999/xlink" width="28.791" height="37.652" viewBox="0 0 28.791 37.652"><defs><clipPath id="clip-path"><rect id="Rectangle_147" data-name="Rectangle 147" width="28.791" height="37.652" transform="translate(0 0)" fill="none"></rect></clipPath></defs><g id="Group_634" data-name="Group 634" transform="translate(0 0)"><path id="Path_577" data-name="Path 577" d="M8.305,36.652l-2.418-4.3L1,33.035,6.717,21.489l7.305,3.617Z" fill="#fff"></path><g id="Group_629" data-name="Group 629"><g id="Group_628" data-name="Group 628" clip-path="url(#clip-path)"><path id="Path_578" data-name="Path 578" d="M8.305,36.652l-2.418-4.3L1,33.035,6.717,21.489l7.305,3.617Z" fill="none" stroke="#000" stroke-linecap="round" stroke-linejoin="round" stroke-width="2"></path></g></g><path id="Path_579" data-name="Path 579" d="M20.485,36.652l2.418-4.3,4.887.685L22.073,21.489l-7.3,3.617Z" fill="#fff"></path><g id="Group_631" data-name="Group 631"><g id="Group_630" data-name="Group 630" clip-path="url(#clip-path)"><path id="Path_580" data-name="Path 580" d="M20.485,36.652l2.418-4.3,4.887.685L22.073,21.489l-7.3,3.617Z" fill="none" stroke="#000" stroke-linecap="round" stroke-linejoin="round" stroke-width="2"></path></g></g><path id="Path_581" data-name="Path 581" d="M14.4,1l2.672,2.035,3.289-.674,1.525,2.992,3.256.82.075,3.358,2.578,2.151L26.4,14.74,27.79,17.8l-2.578,2.152-.075,3.357-3.256.82-1.525,2.993-3.289-.674L14.4,28.48l-2.672-2.035-3.289.674L6.909,24.126l-3.256-.82-.075-3.357L1,17.8,2.389,14.74,1,11.682,3.578,9.531l.075-3.358,3.256-.82L8.434,2.361l3.289.674Z" fill="#fff"></path><g id="Group_633" data-name="Group 633"><g id="Group_632" data-name="Group 632" clip-path="url(#clip-path)"><path id="Path_582" data-name="Path 582" d="M14.4,1l2.672,2.035,3.289-.674,1.525,2.992,3.256.82.075,3.358,2.578,2.151L26.4,14.74,27.79,17.8l-2.578,2.152-.075,3.357-3.256.82-1.525,2.993-3.289-.674L14.4,28.48l-2.672-2.035-3.289.674L6.909,24.126l-3.256-.82-.075-3.357L1,17.8,2.389,14.74,1,11.682,3.578,9.531l.075-3.358,3.256-.82L8.434,2.361l3.289.674Z" fill="#7aba49" stroke="#000" stroke-linecap="round" stroke-linejoin="round" stroke-width="2"></path><path id="Path_583" data-name="Path 583" d="M22.962,14.74A8.566,8.566,0,1,0,14.4,23.307a8.567,8.567,0,0,0,8.567-8.567" fill="#fff"></path><path id="Path_584" data-name="Path 584" d="M22.962,14.74A8.566,8.566,0,1,0,14.4,23.307,8.567,8.567,0,0,0,22.962,14.74Z" fill="#fff" stroke="#000" stroke-linecap="round" stroke-linejoin="round" stroke-width="2"></path></g></g></g></svg> 