<svg xmlns="http://www.w3.org/2000/svg" xmlns:xlink="http://www.w3.org/1999/xlink" width="42.89" height="38.771" viewBox="0 0 42.89 38.771">
  <defs>
    <clipPath id="clip-path">
      <rect id="Rectangle_117" data-name="Rectangle 117" width="42.89" height="38.771" transform="translate(0 0)" fill="none"/>
    </clipPath>
  </defs>
  <g id="Group_568" data-name="Group 568" transform="translate(0 0)" clip-path="url(#clip-path)">
    <path id="Path_502" data-name="Path 502" d="M29.308,34.3H13.582A10.536,10.536,0,0,1,3.045,23.76V20.007h36.8V23.76A10.536,10.536,0,0,1,29.308,34.3Z" fill="none" stroke="#000" stroke-linecap="round" stroke-linejoin="round" stroke-width="2"/>
    <path id="Path_503" data-name="Path 503" d="M39.1,20.007H3.784a2.785,2.785,0,0,1,0-5.57H39.1a2.785,2.785,0,0,1,0,5.57Z" fill="none" stroke="#000" stroke-linecap="round" stroke-linejoin="round" stroke-width="2"/>
    <path id="Path_504" data-name="Path 504" d="M6.812,14.438V3.617A2.617,2.617,0,0,1,9.429,1h.56a2.617,2.617,0,0,1,2.617,2.617" fill="none" stroke="#000" stroke-linecap="round" stroke-linejoin="round" stroke-width="2"/>
    <path id="Path_505" data-name="Path 505" d="M12.606,3.675h0A2.346,2.346,0,0,0,10.26,6.021v1.21h4.692V6.021A2.346,2.346,0,0,0,12.606,3.675Z" fill="none" stroke="#000" stroke-linecap="round" stroke-linejoin="round" stroke-width="2"/>
    <line id="Line_92" data-name="Line 92" y1="2.859" x2="2.888" transform="translate(10.559 34.912)" fill="none" stroke="#000" stroke-linecap="round" stroke-linejoin="round" stroke-width="2"/>
    <line id="Line_93" data-name="Line 93" x1="2.888" y1="2.859" transform="translate(30.471 34.912)" fill="none" stroke="#000" stroke-linecap="round" stroke-linejoin="round" stroke-width="2"/>
    <rect id="Rectangle_115" data-name="Rectangle 115" width="10.018" height="12.67" transform="translate(25.517 12.616)" fill="#0cf"/>
    <rect id="Rectangle_116" data-name="Rectangle 116" width="10.018" height="12.67" transform="translate(25.517 12.616)" fill="none" stroke="#000" stroke-linecap="round" stroke-miterlimit="10" stroke-width="1.75"/>
    <line id="Line_94" data-name="Line 94" y2="1.128" transform="translate(13.844 10.173)" fill="none" stroke="#000" stroke-linecap="round" stroke-linejoin="round" stroke-width="2"/>
    <line id="Line_95" data-name="Line 95" y2="1.816" transform="translate(11.367 9.806)" fill="none" stroke="#000" stroke-linecap="round" stroke-linejoin="round" stroke-width="2"/>
  </g>
</svg>
