<svg id="Group_567" data-name="Group 567" xmlns="http://www.w3.org/2000/svg" xmlns:xlink="http://www.w3.org/1999/xlink" width="38.799" height="34.752" viewBox="0 0 38.799 34.752">
  <defs>
    <clipPath id="clip-path">
      <rect id="Rectangle_114" data-name="Rectangle 114" width="38.799" height="34.752" fill="none"/>
    </clipPath>
  </defs>
  <g id="Group_566" data-name="Group 566" clip-path="url(#clip-path)">
    <path id="Path_498" data-name="Path 498" d="M33.394,14.222H5.406V4a3,3,0,0,1,3-3H29.774a3.62,3.62,0,0,1,3.62,3.62Z" transform="translate(0 0)" fill="none" stroke="#000" stroke-linecap="round" stroke-linejoin="round" stroke-width="2"/>
    <path id="Path_499" data-name="Path 499" d="M26.664,14.239H12.136V11.5a2.85,2.85,0,0,1,2.849-2.849h8.829a2.85,2.85,0,0,1,2.85,2.849Z" transform="translate(0 0)" fill="#face37"/>
    <path id="Path_500" data-name="Path 500" d="M26.664,14.239H12.136V11.5a2.85,2.85,0,0,1,2.849-2.849h8.829a2.85,2.85,0,0,1,2.85,2.849Z" transform="translate(0 0)" fill="none" stroke="#000" stroke-linecap="round" stroke-miterlimit="10" stroke-width="1.75"/>
    <path id="Path_501" data-name="Path 501" d="M37.8,28.52H1v-11.3a3,3,0,0,1,3-3H34.8a3,3,0,0,1,3,3Z" transform="translate(0 0)" fill="none" stroke="#000" stroke-linecap="round" stroke-linejoin="round" stroke-width="2"/>
    <line id="Line_90" data-name="Line 90" y2="5.232" transform="translate(1 28.52)" fill="none" stroke="#000" stroke-linecap="round" stroke-linejoin="round" stroke-width="2"/>
    <line id="Line_91" data-name="Line 91" y2="5.232" transform="translate(37.799 28.52)" fill="none" stroke="#000" stroke-linecap="round" stroke-linejoin="round" stroke-width="2"/>
  </g>
</svg>
