<svg xmlns="http://www.w3.org/2000/svg" width="41.858" height="23.933" viewBox="0 0 41.858 23.933">
  <g id="Group_131" data-name="Group 131" transform="translate(208.079 -313.396)">
    <path id="Path_57" data-name="Path 57" d="M74.213,44.218H64.942l5.03,5.03a14.482,14.482,0,0,0,10.239,4.241h7.947a9.271,9.271,0,0,0,9.271-9.271Z" transform="translate(-272.021 273.427)" fill="#fff"/>
    <path id="Path_58" data-name="Path 58" d="M74.213,44.218H64.942l5.03,5.03a14.482,14.482,0,0,0,10.239,4.241h7.947a9.271,9.271,0,0,0,9.271-9.271Z" transform="translate(-272.021 273.427)" fill="none" stroke="#050605" stroke-linecap="round" stroke-linejoin="round" stroke-width="2"/>
    <path id="Path_59" data-name="Path 59" d="M104.8,46.181,101.115,42.5a5.212,5.212,0,1,0,0,7.37Z" transform="translate(-272.021 273.427)" fill="#fff"/>
    <path id="Path_60" data-name="Path 60" d="M104.8,46.181,101.115,42.5a5.212,5.212,0,1,0,0,7.37Z" transform="translate(-272.021 273.427)" fill="none" stroke="#050605" stroke-linecap="round" stroke-linejoin="round" stroke-width="2"/>
    <path id="Path_61" data-name="Path 61" d="M99.392,46.181a1.964,1.964,0,1,0-1.963,1.963,1.963,1.963,0,0,0,1.963-1.963" transform="translate(-272.021 273.427)" fill="#050605"/>
    <path id="Path_62" data-name="Path 62" d="M88.89,47.4,73.383,62.9a11.438,11.438,0,0,1,2.834-11.488L80.236,47.4" transform="translate(-272.021 273.427)" fill="#fff"/>
    <path id="Path_63" data-name="Path 63" d="M88.89,47.4,73.383,62.9a11.438,11.438,0,0,1,2.834-11.488L80.236,47.4" transform="translate(-272.021 273.427)" fill="none" stroke="#050605" stroke-linecap="round" stroke-linejoin="round" stroke-width="2"/>
    <path id="Path_64" data-name="Path 64" d="M73.383,62.9l5.708-5.708H73.108a11.45,11.45,0,0,0,.275,5.708" transform="translate(-272.021 273.427)" fill="#050605"/>
    <path id="Path_65" data-name="Path 65" d="M73.383,62.9l5.708-5.708H73.108A11.45,11.45,0,0,0,73.383,62.9Z" transform="translate(-272.021 273.427)" fill="none" stroke="#050605" stroke-linecap="round" stroke-linejoin="round" stroke-width="2"/>
  </g>
</svg>
