<svg id="Group_152" data-name="Group 152" xmlns="http://www.w3.org/2000/svg" xmlns:xlink="http://www.w3.org/1999/xlink" width="169" height="107.409" viewBox="0 0 169 107.409">
  <defs>
    <clipPath id="clip-path">
      <rect id="Rectangle_41" data-name="Rectangle 41" width="169" height="107.409" fill="none"/>
    </clipPath>
  </defs>
  <g id="Group_150" data-name="Group 150" clip-path="url(#clip-path)">
    <path id="Path_93" data-name="Path 93" d="M74.922,1a32.284,32.284,0,0,1,28.3,17.063,21.833,21.833,0,0,1,21.6,6.176,24.385,24.385,0,0,1,35.227,16.844,17.482,17.482,0,0,1-2.35,34.806H49.362a20.671,20.671,0,0,1-6.425-40.319c-.064-.825-.1-1.657-.1-2.491A32.117,32.117,0,0,1,74.922,1" transform="translate(-6.932 -0.242)" fill="#fff"/>
    <path id="Path_94" data-name="Path 94" d="M74.922,1a32.284,32.284,0,0,1,28.3,17.063,21.833,21.833,0,0,1,21.6,6.176,24.385,24.385,0,0,1,35.227,16.844,17.482,17.482,0,0,1-2.35,34.806H49.362a20.671,20.671,0,0,1-6.425-40.319c-.064-.825-.1-1.657-.1-2.491A32.117,32.117,0,0,1,74.922,1Z" transform="translate(-6.932 -0.242)" fill="none" stroke="#050605" stroke-linecap="round" stroke-linejoin="round" stroke-width="2"/>
    <path id="Path_95" data-name="Path 95" d="M53.338,72.58A20.332,20.332,0,0,1,73.4,89.806a17.3,17.3,0,0,1-2.811,34.379H15.508a14.508,14.508,0,1,1,0-29.015c.1,0,.2,0,.294,0A16.319,16.319,0,0,1,36.274,81.887,20.251,20.251,0,0,1,53.338,72.58" transform="translate(-0.242 -17.535)" fill="#fff"/>
    <path id="Path_96" data-name="Path 96" d="M53.338,72.58A20.332,20.332,0,0,1,73.4,89.806a17.3,17.3,0,0,1-2.811,34.379H15.508a14.508,14.508,0,1,1,0-29.015c.1,0,.2,0,.294,0A16.319,16.319,0,0,1,36.274,81.887,20.251,20.251,0,0,1,53.338,72.58Z" transform="translate(-0.242 -17.535)" fill="none" stroke="#050605" stroke-linecap="round" stroke-linejoin="round" stroke-width="2"/>
  </g>
</svg>
