<svg xmlns="http://www.w3.org/2000/svg" width="119.833" height="55.444" viewBox="0 0 119.833 55.444">
  <g id="Group_1078" data-name="Group 1078" transform="translate(1 1)">
    <path id="Path_355" data-name="Path 355" d="M46.371,72.58a17.625,17.625,0,0,1,17.4,14.933,15,15,0,0,1-2.437,29.8H13.576a12.576,12.576,0,1,1,0-25.153l.255,0A14.146,14.146,0,0,1,31.578,80.648,17.555,17.555,0,0,1,46.371,72.58" transform="translate(41.503 -63.872)" fill="#fff" stroke="#000" stroke-width="2"/>
    <path id="Path_354" data-name="Path 354" d="M25.639,72.58A14.5,14.5,0,0,0,11.332,84.862a12.337,12.337,0,0,0,2,24.51H52.611a10.343,10.343,0,1,0,0-20.687l-.21,0a11.634,11.634,0,0,0-14.6-9.472A14.438,14.438,0,0,0,25.639,72.58" transform="translate(-1 -72.58)" fill="#fff" stroke="#000" stroke-width="2"/>
  </g>
</svg>
