<svg xmlns="http://www.w3.org/2000/svg" xmlns:xlink="http://www.w3.org/1999/xlink" width="156.022" height="123.011" viewBox="0 0 156.022 123.011">
  <defs>
    <clipPath id="clip-path">
      <rect id="Rectangle_43" data-name="Rectangle 43" width="85.055" height="85.055" fill="none"/>
    </clipPath>
    <clipPath id="clip-path-2">
      <rect id="Rectangle_42" data-name="Rectangle 42" width="156.022" height="93.245" fill="none"/>
    </clipPath>
  </defs>
  <g id="Group_1142" data-name="Group 1142" transform="translate(-140 -6773.495)">
    <g id="Group_156" data-name="Group 156" transform="translate(210.967 6773.495)">
      <g id="Group_155" data-name="Group 155" clip-path="url(#clip-path)">
        <path id="Path_99" data-name="Path 99" d="M84.9,43.7A41.2,41.2,0,1,1,43.7,2.5,41.2,41.2,0,0,1,84.9,43.7" transform="translate(-1.17 -1.17)" fill="#ffc222"/>
        <circle id="Ellipse_8" data-name="Ellipse 8" cx="41.198" cy="41.198" r="41.198" transform="translate(1.33 1.33)" fill="none" stroke="#fff" stroke-linecap="round" stroke-linejoin="round" stroke-width="5"/>
      </g>
    </g>
    <g id="Group_154" data-name="Group 154" transform="translate(140 6803.26)">
      <g id="Group_153" data-name="Group 153" clip-path="url(#clip-path-2)">
        <path id="Path_97" data-name="Path 97" d="M62.474,1a36.168,36.168,0,0,0-35.7,30.642,30.781,30.781,0,0,0,5,61.153h97.988a25.806,25.806,0,0,0,0-51.612c-.175,0-.35,0-.524.005A29.027,29.027,0,0,0,92.827,17.556,36.022,36.022,0,0,0,62.474,1" transform="translate(-0.275 -0.275)" fill="#fff"/>
        <path id="Path_98" data-name="Path 98" d="M62.474,1a36.168,36.168,0,0,0-35.7,30.642,30.781,30.781,0,0,0,5,61.153h97.988a25.806,25.806,0,0,0,0-51.612c-.175,0-.35,0-.524.005A29.027,29.027,0,0,0,92.827,17.556,36.022,36.022,0,0,0,62.474,1Z" transform="translate(-0.275 -0.275)" fill="none" stroke="#050605" stroke-linecap="round" stroke-linejoin="round" stroke-width="2"/>
      </g>
    </g>
  </g>
</svg>
