<svg xmlns="http://www.w3.org/2000/svg" width="37.928" height="40.083" viewBox="0 0 37.928 40.083">
  <g id="Group_687" data-name="Group 687" transform="translate(0.172 0.127)">
    <g id="Group_688" data-name="Group 688" transform="translate(0 0)">
      <path id="Path_873" data-name="Path 873" d="M35.09,13.732a17.907,17.907,0,1,0-8.505,23.853A17.907,17.907,0,0,0,35.09,13.732" transform="translate(-0.119 -0.415)" fill="#fff"/>
      <path id="Path_874" data-name="Path 874" d="M35.09,13.732a17.907,17.907,0,1,0-8.505,23.853A17.907,17.907,0,0,0,35.09,13.732Z" transform="translate(-0.119 -0.415)" fill="none" stroke="#000" stroke-linecap="round" stroke-linejoin="round" stroke-width="2"/>
      <path id="Path_875" data-name="Path 875" d="M31.723,16.255A13.5,13.5,0,1,0,25.31,34.239a13.5,13.5,0,0,0,6.413-17.984" transform="translate(-0.715 -1.014)" fill="#0cf"/>
      <path id="Path_876" data-name="Path 876" d="M23.437,24.725l-5.9,8.176.6-10.064A.044.044,0,0,1,18.2,22.8l5.218,1.861a.043.043,0,0,1,.02.066" transform="translate(-2.082 -2.706)" fill="#fff"/>
      <path id="Path_877" data-name="Path 877" d="M23.437,24.725l-5.9,8.176.6-10.064A.044.044,0,0,1,18.2,22.8l5.218,1.861A.043.043,0,0,1,23.437,24.725Z" transform="translate(-2.082 -2.706)" fill="none" stroke="#000" stroke-linecap="round" stroke-linejoin="round" stroke-width="2"/>
      <path id="Path_878" data-name="Path 878" d="M18.264,21.622l5.9-8.176-.6,10.064a.044.044,0,0,1-.058.039l-5.218-1.861a.043.043,0,0,1-.02-.066" transform="translate(-2.167 -1.596)" fill="#ed207a"/>
      <path id="Path_879" data-name="Path 879" d="M18.264,21.622l5.9-8.176-.6,10.064a.044.044,0,0,1-.058.039l-5.218-1.861A.043.043,0,0,1,18.264,21.622Z" transform="translate(-2.167 -1.596)" fill="none" stroke="#000" stroke-linecap="round" stroke-linejoin="round" stroke-width="2"/>
      <line id="Line_231" data-name="Line 231" x1="1.093" y1="0.39" transform="translate(8.839 16.8)" fill="#fff"/>
      <line id="Line_232" data-name="Line 232" x1="1.093" y1="0.39" transform="translate(8.839 16.8)" fill="none" stroke="#000" stroke-linecap="round" stroke-linejoin="round" stroke-width="2"/>
      <line id="Line_233" data-name="Line 233" x1="1.093" y1="0.39" transform="translate(28.112 23.673)" fill="#fff"/>
      <line id="Line_234" data-name="Line 234" x1="1.093" y1="0.39" transform="translate(28.112 23.673)" fill="none" stroke="#000" stroke-linecap="round" stroke-linejoin="round" stroke-width="2"/>
      <path id="Path_880" data-name="Path 880" d="M12.936,2.105a1.933,1.933,0,1,0-.918,2.575,1.933,1.933,0,0,0,.918-2.575" transform="translate(-1.099 -0.119)" fill="#fff"/>
      <path id="Path_881" data-name="Path 881" d="M12.936,2.105a1.933,1.933,0,1,0-.918,2.575A1.933,1.933,0,0,0,12.936,2.105Z" transform="translate(-1.099 -0.119)" fill="none" stroke="#000" stroke-linecap="round" stroke-linejoin="round" stroke-width="2"/>
    </g>
  </g>
</svg>
