<svg xmlns="http://www.w3.org/2000/svg" xmlns:xlink="http://www.w3.org/1999/xlink" width="30.8" height="36.672" viewBox="0 0 30.8 36.672">
  <defs>
    <clipPath id="clip-path">
      <rect id="Rectangle_324" data-name="Rectangle 324" width="30.8" height="36.672" transform="translate(0 0)" fill="none"/>
    </clipPath>
  </defs>
  <g id="Group_999" data-name="Group 999" transform="translate(0 0)" clip-path="url(#clip-path)">
    <path id="Path_1516" data-name="Path 1516" d="M1,12.4,15.4,1,29.8,12.4" fill="none" stroke="#000" stroke-linecap="round" stroke-linejoin="round" stroke-width="2"/>
    <path id="Path_1517" data-name="Path 1517" d="M26.123,28.146H4.677V8.8a2.1,2.1,0,0,1,2.1-2.1H24.027a2.1,2.1,0,0,1,2.1,2.1Z" fill="#fff" fill-rule="evenodd"/>
    <path id="Path_1518" data-name="Path 1518" d="M26.123,28.146H4.677V8.8a2.1,2.1,0,0,1,2.1-2.1H24.027a2.1,2.1,0,0,1,2.1,2.1Z" fill="none" stroke="#000" stroke-linecap="round" stroke-linejoin="round" stroke-width="2"/>
    <line id="Line_343" data-name="Line 343" x2="14.056" transform="translate(8.372 11.602)" fill="#fff"/>
    <line id="Line_344" data-name="Line 344" x2="14.056" transform="translate(8.372 11.602)" fill="none" stroke="#000" stroke-linecap="round" stroke-linejoin="round" stroke-width="2"/>
    <line id="Line_345" data-name="Line 345" x2="14.056" transform="translate(8.372 16.176)" fill="#fff"/>
    <line id="Line_346" data-name="Line 346" x2="14.056" transform="translate(8.372 16.176)" fill="none" stroke="#000" stroke-linecap="round" stroke-linejoin="round" stroke-width="2"/>
    <path id="Path_1519" data-name="Path 1519" d="M29.8,35.672H1V12.582l14.4,11.4,14.4-11.4Z" fill="#fff" fill-rule="evenodd"/>
    <path id="Path_1520" data-name="Path 1520" d="M29.8,35.672H1V12.582l14.4,11.4,14.4-11.4Z" fill="none" stroke="#000" stroke-linecap="round" stroke-linejoin="round" stroke-width="2"/>
    <line id="Line_347" data-name="Line 347" x2="11.297" y2="8.943" transform="translate(18.503 26.438)" fill="none" stroke="#000" stroke-linecap="round" stroke-linejoin="round" stroke-width="2"/>
    <line id="Line_348" data-name="Line 348" y1="8.78" x2="11.091" transform="translate(1 26.601)" fill="none" stroke="#000" stroke-linecap="round" stroke-linejoin="round" stroke-width="2"/>
  </g>
</svg>
