<svg id="Group_299" data-name="Group 299" xmlns="http://www.w3.org/2000/svg" width="10.675" height="21.442" viewBox="0 0 10.675 21.442">
  <path id="Path_20" data-name="Path 20" d="M324.693,1105.377c-.3.008-.32.3-.32.447q0,4.095,0,8.189c0,.478-.009,1.1-.468,1.1-1.482,0-.782.023-2.817.023-.483,0-.54.012-.54-.47q0-4.45,0-8.9c0-.447-.008-.455-.444-.455-.737,0-1.063,0-1.8,0-.517,0-.475-.048-.492-.482-.025-.636-.025-2.422-.025-2.944,0-.2.065-.268.267-.265.711.01,1.421-.007,2.132.009.252.005.336-.063.333-.324-.012-1.009-.031-2.02.01-3.028a4.409,4.409,0,0,1,3.641-4.409,10.588,10.588,0,0,1,2.858-.15c.4.012.759.057,1.2.088.185.013.221.087.216.248-.026,1.009-.049,2.018-.063,3.027,0,.2-.092.233-.267.233-.844,0-1.688-.068-2.531.017a1.069,1.069,0,0,0-1.1,1.1c-.089,1-.018,2-.041,2.995-.006.24.155.2.293.2h3.337c.4,0,.418,0,.379.406-.1,1.04-.284,2.043-.455,2.983-.06.331-.17.353-.444.355C326.353,1105.375,325.836,1105.374,324.693,1105.377Z" transform="translate(-317.785 -1093.693)" fill="#ed207a"/>
</svg>
