<svg xmlns="http://www.w3.org/2000/svg" xmlns:xlink="http://www.w3.org/1999/xlink" width="686" height="440" viewBox="0 0 686 440">
  <defs>
    <clipPath id="clip-path">
      <rect id="Rectangle_72" data-name="Rectangle 72" width="686" height="440" rx="20" transform="translate(140 6070)" fill="#00b1ff"/>
    </clipPath>
    <clipPath id="clip-path-2">
      <rect id="Rectangle_56" data-name="Rectangle 56" width="107.976" height="78.532" transform="translate(107.976 78.532) rotate(180)"/>
    </clipPath>
  </defs>
  <g id="Mask_Group_3" data-name="Mask Group 3" transform="translate(-140 -6070)" clip-path="url(#clip-path)">
    <g id="Illustrations" transform="translate(42.043 5748.6)">
      <g id="Group_202" data-name="Group 202" transform="translate(407.051 495.892)">
        <path id="Path_119" data-name="Path 119" d="M1924.2,1008.912a26.973,26.973,0,0,0,4.579-5.641,25.774,25.774,0,0,0,3.517-8.871,26.14,26.14,0,0,0-6.327,7.167,25.294,25.294,0,0,0-1.77,3.407,28.183,28.183,0,0,0-1.77-3.407,26.57,26.57,0,0,0-6.327-7.167,27.726,27.726,0,0,0,8.1,14.512Z" transform="translate(-1916.1 -986.525)" fill="#face38" stroke="#000" stroke-linecap="round" stroke-linejoin="round" stroke-miterlimit="10" stroke-width="1.5"/>
        <path id="Path_120" data-name="Path 120" d="M1945.769,981.187a29.522,29.522,0,0,0,1.969-11.083,31.51,31.51,0,0,0-1.969-11.3,31.513,31.513,0,0,0-1.969,11.3A29.525,29.525,0,0,0,1945.769,981.187Z" transform="translate(-1937.672 -958.8)" fill="#face38" stroke="#000" stroke-linecap="round" stroke-linejoin="round" stroke-miterlimit="10" stroke-width="1.5"/>
        <path id="Path_121" data-name="Path 121" d="M1918.7,1045.8h15.021v12.1a2.917,2.917,0,0,1-2.92,2.92h-9.158a2.917,2.917,0,0,1-2.92-2.92v-12.1Z" transform="translate(-1918.125 -1026.554)" fill="#fff" stroke="#000" stroke-linecap="round" stroke-linejoin="round" stroke-miterlimit="10" stroke-width="1.5"/>
      </g>
      <g id="Group_203" data-name="Group 203" transform="translate(178.755 491.578)">
        <path id="Path_122" data-name="Path 122" d="M1057.291,1092.6l-173.191-.088V948.966a9.337,9.337,0,0,1,9.269-9.335l46.721-.332a10.786,10.786,0,0,1,10.862,10.751l.177,71.7h85.014a21.138,21.138,0,0,1,21.126,21.126v49.73Z" transform="translate(-884.1 -939.299)" fill="#efefef"/>
        <rect id="Rectangle_51" data-name="Rectangle 51" width="6.88" height="30.882" transform="translate(166.311 153.194)" fill="#efefef"/>
        <rect id="Rectangle_52" data-name="Rectangle 52" width="6.88" height="101.627" transform="translate(0 82.47)" fill="#efefef"/>
      </g>
      <g id="Group_204" data-name="Group 204" transform="translate(557.877 441.494)">
        <circle id="Ellipse_11" data-name="Ellipse 11" cx="6.637" cy="6.637" r="6.637" transform="translate(12.322 220.266)" fill="#efefef"/>
        <circle id="Ellipse_12" data-name="Ellipse 12" cx="6.637" cy="6.637" r="6.637" transform="translate(65.193 220.266)" fill="#efefef"/>
        <rect id="Rectangle_53" data-name="Rectangle 53" width="65.237" height="4.115" transform="translate(12.764 214.161)" fill="#efefef"/>
        <rect id="Rectangle_54" data-name="Rectangle 54" width="4.38" height="57.605" transform="translate(43.182 156.556)" fill="#efefef"/>
        <path id="Path_123" data-name="Path 123" d="M2688.82,869.456V712.9h-4.646V859.789H2597.9v9.667Z" transform="translate(-2597.9 -712.9)" fill="#efefef"/>
      </g>
      <path id="Path_124" data-name="Path 124" d="M1682.7,1116.7v146.579h4.181v-137.31h139.965v135.54h4.181V1116.7Z" transform="translate(-1327.281 -585.878)" fill="#efefef"/>
      <path id="Path_125" data-name="Path 125" d="M2020.713,702.531l-3.96-3.96c16.79-30.572-2.212-41.279-2.212-41.279l1.925-5.243h-6.106V626.034h21.082l-8.561-41.434h-32.32L1982,626.034h21.082v26.037h-6.106l1.925,5.243s-19,10.707-2.212,41.279l-3.96,3.96h27.984Z" transform="translate(-1560.371 -171.488)" fill="#efefef"/>
      <g id="Group_205" data-name="Group 205" transform="translate(370.639 483.555)">
        <path id="Path_126" data-name="Path 126" d="M1788.79,923.289c1.593-4.469,3.407-5.376,3.407-8.495,0-2.035-1.991-5.022-3.894-6.747-2.831-2.544-5.862-4.712-9.512-5a1.551,1.551,0,0,0-.885.133,1.965,1.965,0,0,0-.818.951,1.4,1.4,0,0,1-.155.265c-.243.354-.686.4-1.394.42a1.461,1.461,0,0,0-.31.022,4.953,4.953,0,0,0-2.964,1.106,4.81,4.81,0,0,0-1.7,3.252c-.022.266-.022.509-.022.752a2.664,2.664,0,0,1-.177,1.217,1.134,1.134,0,0,1-.332.31,3.9,3.9,0,0,1-.31.265,1.919,1.919,0,0,0-.62,1.726,1.9,1.9,0,0,0,1.04,1.239,13.857,13.857,0,0,0,1.77.774,6.729,6.729,0,0,1,3.252,2.079,7.961,7.961,0,0,1,1.195,3.385c.088.509.155,1.018.221,1.526.044.265.066.531.111.8h12.1Z" transform="translate(-1765.186 -903.033)" fill="#fff" stroke="#000" stroke-linecap="round" stroke-linejoin="round" stroke-miterlimit="10" stroke-width="1.5"/>
        <path id="Path_127" data-name="Path 127" d="M1762.959,994.6H1751.5v26.347h33.625V994.6h-22.166Z" transform="translate(-1751.5 -974.344)" fill="#38c4f2" stroke="#000" stroke-linecap="round" stroke-linejoin="round" stroke-miterlimit="10" stroke-width="1.5"/>
        <line id="Line_21" data-name="Line 21" y2="26.347" transform="translate(25.396 20.256)" fill="none" stroke="#000" stroke-linecap="round" stroke-linejoin="round" stroke-miterlimit="10" stroke-width="1.5"/>
        <path id="Path_128" data-name="Path 128" d="M1801.6,910.9c5.774.774,9.048,6.438,9.579,12.078" transform="translate(-1790.517 -909.16)" fill="none" stroke="#000" stroke-linecap="round" stroke-linejoin="round" stroke-miterlimit="10" stroke-width="1.5"/>
        <path id="Path_129" data-name="Path 129" d="M1774.8,939.8c2.9.376,6.57,1.77,7.9,3.761" transform="translate(-1769.646 -931.667)" fill="none" stroke="#000" stroke-linecap="round" stroke-linejoin="round" stroke-miterlimit="10" stroke-width="1.5"/>
      </g>
      <g id="Group_206" data-name="Group 206" transform="translate(399.441 503.767)">
        <path id="Path_130" data-name="Path 130" d="M1912.3,1026.62a20.921,20.921,0,0,0,3.274-7.189,22.313,22.313,0,0,0,.619-8.03,21.763,21.763,0,0,0-3.3,7.344A20.569,20.569,0,0,0,1912.3,1026.62Z" transform="translate(-1905.423 -1007.639)" fill="#7cb947" stroke="#000" stroke-linecap="round" stroke-linejoin="round" stroke-miterlimit="10" stroke-width="1.5"/>
        <path id="Path_131" data-name="Path 131" d="M1888.58,1036.744a23.336,23.336,0,0,0,3.894-4.8,21.982,21.982,0,0,0,2.986-7.543,22.338,22.338,0,0,0-5.375,6.083,21.523,21.523,0,0,0-1.5,2.9,26.259,26.259,0,0,0-1.5-2.9,22.338,22.338,0,0,0-5.375-6.083,21.979,21.979,0,0,0,2.987,7.543A23.336,23.336,0,0,0,1888.58,1036.744Z" transform="translate(-1881.7 -1017.763)" fill="#7cb947" stroke="#000" stroke-linecap="round" stroke-linejoin="round" stroke-miterlimit="10" stroke-width="1.5"/>
        <path id="Path_132" data-name="Path 132" d="M1906.881,1013.38a24.932,24.932,0,0,0,1.681-9.4,26.51,26.51,0,0,0-1.681-9.579,26.51,26.51,0,0,0-1.681,9.579A24.926,24.926,0,0,0,1906.881,1013.38Z" transform="translate(-1900.001 -994.4)" fill="#7cb947" stroke="#000" stroke-linecap="round" stroke-linejoin="round" stroke-miterlimit="10" stroke-width="1.5"/>
        <path id="Path_133" data-name="Path 133" d="M1898.663,1026.62a20.921,20.921,0,0,1-3.274-7.189,22.32,22.32,0,0,1-.619-8.03,21.766,21.766,0,0,1,3.3,7.344A20.572,20.572,0,0,1,1898.663,1026.62Z" transform="translate(-1891.783 -1007.639)" fill="#7cb947" stroke="#000" stroke-linecap="round" stroke-linejoin="round" stroke-miterlimit="10" stroke-width="1.5"/>
        <path id="Path_134" data-name="Path 134" d="M1884,1056h12.742v10.265a2.474,2.474,0,0,1-2.478,2.478h-7.787a2.474,2.474,0,0,1-2.478-2.478Z" transform="translate(-1883.491 -1042.373)" fill="#fff" stroke="#000" stroke-linecap="round" stroke-linejoin="round" stroke-miterlimit="10" stroke-width="1.5"/>
      </g>
      <g id="Group_212" data-name="Group 212" transform="translate(270.56 364.4)">
        <rect id="Rectangle_55" data-name="Rectangle 55" width="118.971" height="89.527" transform="translate(0 0)" fill="#efefef"/>
        <g id="Group_211" data-name="Group 211" transform="translate(5.484 5.488)">
          <g id="Group_207" data-name="Group 207" transform="translate(0)" clip-path="url(#clip-path-2)">
            <path id="Path_135" data-name="Path 135" d="M1281.391,485a35.585,35.585,0,0,1,10.84-.6c26.679,1.659,52.672,11.282,79.373,10.331,3.938-.133,8.3-.354,11.282,2.212,3.163,2.721,3.407,7.5,3.053,11.658-.443,5.287-1.593,10.8-5.022,14.844-5.265,6.26-14.269,7.411-22.387,8.362-12.831,1.482-25.706,3.539-38.58,2.544s-26.015-5.376-34.775-14.866a77.948,77.948,0,0,1-8.539-12.034C1271.348,498.825,1269.092,488.118,1281.391,485Z" transform="translate(-1283.779 -463.233)" fill="#fff" stroke="#efefef" stroke-linecap="round" stroke-linejoin="round" stroke-miterlimit="10" stroke-width="1.5"/>
          </g>
          <g id="Group_208" data-name="Group 208" transform="translate(0)" clip-path="url(#clip-path-2)">
            <path id="Path_136" data-name="Path 136" d="M1451.845,513.409c5.4-2.035,11.282-2.367,17.056-2.566s11.636-.31,17.166-1.991c5.11-1.549,9.734-4.38,14.4-6.968a31.461,31.461,0,0,1,7.123-3.141c4.756-1.239,12.455-3.075,14.645.553,2.5,4.137,2.013,34.532-1.04,35.085-26.745,4.933-51.986,1.681-78.82-2.677-5.6-.907-3.65-5.376-1.615-8.959A20.853,20.853,0,0,1,1451.845,513.409Z" transform="translate(-1413.307 -473.282)" fill="#efefef" stroke="#fff" stroke-linecap="round" stroke-linejoin="round" stroke-miterlimit="10" stroke-width="1.5"/>
          </g>
          <g id="Group_209" data-name="Group 209" transform="translate(0)" clip-path="url(#clip-path-2)">
            <path id="Path_137" data-name="Path 137" d="M1319.853,596.438a40.332,40.332,0,0,1,14.335,5.022c2.566,1.5,5.066,3.318,8.008,3.849,4.38.8,8.672-1.438,12.986-2.522,8.539-2.124,17.653.288,25.4,4.469,3.119,1.681,6.238,3.8,7.809,6.99s1.04,7.654-1.991,9.512a10.856,10.856,0,0,1-4.889,1.195,503.271,503.271,0,0,1-72.825,1.04c-1.9-.111-4.048-.376-5.132-1.925a5.091,5.091,0,0,1-.708-3.274c.155-3.23,1.394-6.216,2.389-9.247,1.062-3.252,1.106-5.929,1.305-9.247C1306.934,596.239,1315.074,595.73,1319.853,596.438Z" transform="translate(-1307.485 -550.404)" fill="#efefef" stroke="#fff" stroke-linecap="round" stroke-linejoin="round" stroke-miterlimit="10" stroke-width="1.5"/>
          </g>
          <g id="Group_210" data-name="Group 210" transform="translate(0)" clip-path="url(#clip-path-2)">
            <path id="Path_138" data-name="Path 138" d="M1415.562,656.185c0-15.928-1.792-24.179-6.637-27.652-4.933-3.539-11.68-.752-17.41,1.283-12.255,4.358-25.551,4.623-38.536,4.048a130.559,130.559,0,0,0-23.516.841c-8.03,1.084-34.864,8.627-34.864,21.5C1336.344,656.185,1377.158,656.185,1415.562,656.185Z" transform="translate(-1301.08 -574.27)" fill="#efefef" stroke="#fff" stroke-linecap="round" stroke-linejoin="round" stroke-miterlimit="10" stroke-width="1.5"/>
          </g>
        </g>
        <rect id="Rectangle_60" data-name="Rectangle 60" width="107.976" height="78.532" transform="translate(113.461 84.02) rotate(180)" fill="none" stroke="#fff" stroke-linecap="round" stroke-linejoin="round" stroke-miterlimit="10" stroke-width="1.5"/>
      </g>
      <g id="Group_213" data-name="Group 213" transform="translate(509.165 386.5)">
        <rect id="Rectangle_61" data-name="Rectangle 61" width="59.331" height="44.664" transform="translate(0 0)" fill="none" stroke="#efefef" stroke-linecap="round" stroke-linejoin="round" stroke-miterlimit="10" stroke-width="1.5"/>
        <rect id="Rectangle_62" data-name="Rectangle 62" width="53.844" height="39.178" transform="translate(56.587 41.924) rotate(180)" fill="none" stroke="#efefef" stroke-linecap="round" stroke-linejoin="round" stroke-miterlimit="10" stroke-width="1.5"/>
        <line id="Line_22" data-name="Line 22" x2="37.74" transform="translate(10.795 9.778)" fill="none" stroke="#efefef" stroke-linecap="round" stroke-linejoin="round" stroke-miterlimit="10" stroke-width="1.5"/>
        <line id="Line_23" data-name="Line 23" x2="24.157" transform="translate(17.587 14.202)" fill="none" stroke="#efefef" stroke-linecap="round" stroke-linejoin="round" stroke-miterlimit="10" stroke-width="1.5"/>
        <line id="Line_24" data-name="Line 24" x2="24.157" transform="translate(10.795 25.462)" fill="none" stroke="#efefef" stroke-linecap="round" stroke-linejoin="round" stroke-miterlimit="10" stroke-width="1.5"/>
        <line id="Line_25" data-name="Line 25" x2="24.157" transform="translate(10.795 29.599)" fill="none" stroke="#efefef" stroke-linecap="round" stroke-linejoin="round" stroke-miterlimit="10" stroke-width="1.5"/>
        <line id="Line_26" data-name="Line 26" x2="24.157" transform="translate(10.795 33.736)" fill="none" stroke="#efefef" stroke-linecap="round" stroke-linejoin="round" stroke-miterlimit="10" stroke-width="1.5"/>
        <rect id="Rectangle_63" data-name="Rectangle 63" width="9.07" height="8.274" transform="translate(39.465 25.462)" fill="none" stroke="#efefef" stroke-linecap="round" stroke-linejoin="round" stroke-miterlimit="10" stroke-width="1.5"/>
      </g>
      <g id="Group_214" data-name="Group 214" transform="translate(582.3 386.5)">
        <rect id="Rectangle_64" data-name="Rectangle 64" width="59.331" height="44.664" transform="translate(0 0)" fill="none" stroke="#efefef" stroke-linecap="round" stroke-linejoin="round" stroke-miterlimit="10" stroke-width="1.5"/>
        <rect id="Rectangle_65" data-name="Rectangle 65" width="53.844" height="39.178" transform="translate(56.6 41.924) rotate(180)" fill="none" stroke="#efefef" stroke-linecap="round" stroke-linejoin="round" stroke-miterlimit="10" stroke-width="1.5"/>
        <line id="Line_27" data-name="Line 27" x1="37.718" transform="translate(10.818 14.202)" fill="none" stroke="#efefef" stroke-linecap="round" stroke-linejoin="round" stroke-miterlimit="10" stroke-width="1.5"/>
        <rect id="Rectangle_66" data-name="Rectangle 66" width="37.718" height="4.137" transform="translate(10.818 25.462)" fill="none" stroke="#efefef" stroke-linecap="round" stroke-linejoin="round" stroke-miterlimit="10" stroke-width="1.5"/>
        <line id="Line_28" data-name="Line 28" x1="24.157" transform="translate(17.587 9.778)" fill="none" stroke="#efefef" stroke-linecap="round" stroke-linejoin="round" stroke-miterlimit="10" stroke-width="1.5"/>
        <line id="Line_29" data-name="Line 29" x2="24.157" transform="translate(10.818 33.736)" fill="none" stroke="#efefef" stroke-linecap="round" stroke-linejoin="round" stroke-miterlimit="10" stroke-width="1.5"/>
        <line id="Line_30" data-name="Line 30" x2="9.004" transform="translate(39.532 33.736)" fill="none" stroke="#efefef" stroke-linecap="round" stroke-linejoin="round" stroke-miterlimit="10" stroke-width="1.5"/>
      </g>
      <rect id="Rectangle_67" data-name="Rectangle 67" width="85.279" height="669.99" transform="translate(97.957 760.964) rotate(-90)" fill="#efefef"/>
      <line id="Line_31" data-name="Line 31" x2="669.99" transform="translate(97.966 675.675)" fill="none" stroke="#000" stroke-linecap="round" stroke-linejoin="round" stroke-miterlimit="10" stroke-width="1.5"/>
      <path id="Path_139" data-name="Path 139" d="M2213.356,1099.1h-25a1.671,1.671,0,0,0-1.659,1.659h0a1.671,1.671,0,0,0,1.659,1.659h25" transform="translate(-1719.787 -572.171)" fill="#ec237a" stroke="#000" stroke-linecap="round" stroke-linejoin="round" stroke-miterlimit="10" stroke-width="1.5"/>
      <rect id="Rectangle_68" data-name="Rectangle 68" width="5.309" height="33.426" transform="translate(470.342 493.503)" fill="#7cb947" stroke="#000" stroke-linecap="round" stroke-linejoin="round" stroke-miterlimit="10" stroke-width="1.5"/>
      <rect id="Rectangle_69" data-name="Rectangle 69" width="3.606" height="31.17" transform="translate(475.651 495.737)" fill="#38c4f2" stroke="#000" stroke-linecap="round" stroke-linejoin="round" stroke-miterlimit="10" stroke-width="1.5"/>
      <line id="Line_32" data-name="Line 32" x2="5.309" transform="translate(470.342 500.427)" fill="none" stroke="#000" stroke-linecap="round" stroke-linejoin="round" stroke-miterlimit="10" stroke-width="1.5"/>
      <line id="Line_33" data-name="Line 33" x2="5.309" transform="translate(470.342 519.982)" fill="none" stroke="#000" stroke-linecap="round" stroke-linejoin="round" stroke-miterlimit="10" stroke-width="1.5"/>
      <rect id="Rectangle_70" data-name="Rectangle 70" width="5.309" height="28.028" transform="translate(479.257 498.878)" fill="#face38" stroke="#000" stroke-linecap="round" stroke-linejoin="round" stroke-miterlimit="10" stroke-width="1.5"/>
      <line id="Line_34" data-name="Line 34" x2="5.309" transform="translate(479.257 504.696)" fill="none" stroke="#000" stroke-linecap="round" stroke-linejoin="round" stroke-miterlimit="10" stroke-width="1.5"/>
      <line id="Line_35" data-name="Line 35" x2="5.309" transform="translate(479.257 521.111)" fill="none" stroke="#000" stroke-linecap="round" stroke-linejoin="round" stroke-miterlimit="10" stroke-width="1.5"/>
      <g id="Group_215" data-name="Group 215" transform="translate(482.376 490.206)">
        <path id="Path_140" data-name="Path 140" d="M2311.4,1064.52a3.96,3.96,0,0,0,0-7.92" transform="translate(-2299.277 -1029.28)" fill="none" stroke="#000" stroke-linecap="round" stroke-linejoin="round" stroke-miterlimit="10" stroke-width="1.5"/>
        <path id="Path_141" data-name="Path 141" d="M2256.622,1043.8h13.229v12.963a2.592,2.592,0,0,1-2.588,2.588h-8.075a2.591,2.591,0,0,1-2.588-2.588V1043.8Z" transform="translate(-2256.6 -1019.311)" fill="#fff" stroke="#000" stroke-linecap="round" stroke-linejoin="round" stroke-miterlimit="10" stroke-width="1.5"/>
        <path id="Path_142" data-name="Path 142" d="M2278.145,954.868c3.23-2.854,5.309-7.566,1.814-11.99-3.937-5-1.77-6.681-.31-9.778,0,0-6.459,4.646-2.765,10.419A13.243,13.243,0,0,1,2278.145,954.868Z" transform="translate(-2271.508 -933.1)" fill="#efefef"/>
      </g>
      <g id="Group_216" data-name="Group 216" transform="translate(498.8 417.643)">
        <path id="Path_143" data-name="Path 143" d="M2669.96,1016.661a26.439,26.439,0,0,0,3.65-1.969,24.769,24.769,0,0,0,7.278-7.942,51.69,51.69,0,0,0,6.371-15.463c.288-1.283.509-2.566.686-3.871a20.543,20.543,0,0,1,.973-5.066,4.614,4.614,0,0,1,3.8-3.053,6.232,6.232,0,0,1,3.163,1.128,13.548,13.548,0,0,1,3.517,2.7c2.013,2.367,2.279,5.73,2.279,8.849a74.675,74.675,0,0,1-.553,8.893,21.811,21.811,0,0,1-1.394,5.951,25.4,25.4,0,0,1-5.021,6.791c-4.181,4.469-8.428,9-13.715,12.079-7.256,4.181-13.583,5.265-21.967,5.6a9.6,9.6,0,0,1-3.65-.332,5.008,5.008,0,0,1-3.23-4.247c-.4-5.42,8.163-6.836,11.99-7.964A46.776,46.776,0,0,0,2669.96,1016.661Z" transform="translate(-2581.063 -896.514)" fill="#fff" stroke="#000" stroke-linecap="round" stroke-linejoin="round" stroke-miterlimit="10" stroke-width="1.5"/>
        <path id="Path_144" data-name="Path 144" d="M2724.984,840.924c-.863,5-2.964,10.53-3.828,15.53-.6,3.517-2.411,8.605-2.035,12.145.8,7.521,6.172,10.331,8.119,17.653a53.6,53.6,0,0,1,1.305,11.9l.73,21.7c.133,4.115.354,8.495,2.743,11.835,2.5,3.539,7.012,5.221,11.348,5.265s8.539-1.349,12.565-2.92a17.875,17.875,0,0,0,5.884-3.274,13.048,13.048,0,0,0,3.673-8.628,44.814,44.814,0,0,0-.73-9.557,203.549,203.549,0,0,1-2.013-30.683c.066-6.482.42-13.052-.863-19.423A38.4,38.4,0,0,0,2742.46,836.5C2736.73,837.695,2730.735,839.73,2724.984,840.924Z" transform="translate(-2633.188 -785.307)" fill="#38c4f2" stroke="#000" stroke-linecap="round" stroke-linejoin="round" stroke-miterlimit="10" stroke-width="1.5"/>
        <path id="Path_145" data-name="Path 145" d="M2579.228,1189.481c-.442-1.659-.885-2.876-1.195-4.181a183.187,183.187,0,0,1-35.483,1.15c.111,1.9-1,5.508-3.008,6.659-5.951,3.429-12.477,4-20.817,5.951-7.72,1.792-13.472,2.987-20.241,7.123-7.654,4.646-11.349,14.114-11.282,23.051.066,8.959,3.318,17.542,6.9,25.75,6,13.693,13.538,25.33,17.9,39.6a88.445,88.445,0,0,1,3.385,15.707h0c.951,8.959-.221,18.118-8.3,20.4-7.079,2.013-14.733,2.588-21.347,6.172-2.168,1.172-4.668,3.1-5.8,5.508-3.318,7.234,13.052,6.99,16.26,6.924,7.433-.111,14.844-.929,22.254-1.549,4.823-.4,11.946.575,14.446-5.2,2.434-5.641-2.278-13.428-3.54-19.113a.79.79,0,0,1-.044-.221,61.4,61.4,0,0,1-1.372-13.8h0c.044-2.721.464-5.4.73-8.1a191.875,191.875,0,0,0,0-34.908c-1.062-12.211-8.694-23.051-16.835-32.3a23.86,23.86,0,0,1-1.349-2.035c-2.677-3.716,9.025-4.292,13.782-3.606,14.977,2.168,30.971,4.845,45.7-.022,6.327-2.1,11.923-6.3,13.25-13.1C2584.847,1207.289,2580.821,1195.343,2579.228,1189.481Z" transform="translate(-2446.618 -1056.946)" fill="#fff" stroke="#000" stroke-linecap="round" stroke-linejoin="round" stroke-miterlimit="10" stroke-width="1.5"/>
        <path id="Path_146" data-name="Path 146" d="M2532.894,1853.4c.73,2.632,1.217,5.53.111,8.119-2.478,5.774-9.623,4.823-14.445,5.2-7.411.6-14.822,1.438-22.254,1.549-3.208.044-19.578.288-16.26-6.924,1.106-2.434,3.628-4.336,5.8-5.509a44.108,44.108,0,0,1,12.3-4.137,3.78,3.78,0,0,0-.31,3.385,6.785,6.785,0,0,0,2.146,3.628,6.938,6.938,0,0,0,3.3,1.217c4.2.664,8.517-.155,12.631-1.261,3.186-.863,6.327-1.9,9.468-2.942C2527.873,1854.908,2530.395,1854.244,2532.894,1853.4Z" transform="translate(-2446.695 -1575.926)" fill="#38c4f2" stroke="#000" stroke-linecap="round" stroke-linejoin="round" stroke-miterlimit="10" stroke-width="1.5"/>
        <path id="Path_147" data-name="Path 147" d="M2727.609,683.528c-2.279-4.646-5.265-10.486-5.486-15.773a12.639,12.639,0,0,1,.443-4.07,1.127,1.127,0,0,1,.287-.531,2.159,2.159,0,0,1,1.04-.487,4.859,4.859,0,0,0,3.362-3.871,1.934,1.934,0,0,0-.752-1.814c-1.239-.907-2.765.177-4.2.509-2.057.487-4.159-.6-5.8-1.9-3.451-2.743-3.628-5.707-4.624-9.888-9.159,1.349-8.074,8.738-8.473,14.246-.066.929-1.128,3.141-1.35,4.27-.2,1,2.19,1.172,2.19,1.172a52.76,52.76,0,0,1,.929,5.752c.553,4.4,7.765,1.394,7.765,1.394,1.836,3.849-.022,11.879-1.437,20.02,4.689,1.349,9.158-.73,13.494-2.92.752-.376,2.168-.177,2.854-.642,1.305-.929,2.412-1.084,1.305-2.787A13.725,13.725,0,0,1,2727.609,683.528Z" transform="translate(-2619.93 -636.715)" fill="#fff" stroke="#000" stroke-linecap="round" stroke-linejoin="round" stroke-miterlimit="10" stroke-width="1.5"/>
        <path id="Path_148" data-name="Path 148" d="M2732.263,703.123a3.386,3.386,0,0,0-3.164-.487" transform="translate(-2640.998 -680.909)" fill="none" stroke="#000" stroke-linecap="round" stroke-linejoin="round" stroke-miterlimit="10" stroke-width="1.5"/>
        <path id="Path_149" data-name="Path 149" d="M2405.28,1229.311c-1.239,5.575,6.548,21.679,3.163,33.448a193.316,193.316,0,0,1-12.543,32.585c-1.239,2.411-2.588,4.778-3.606,7.3a64,64,0,0,0-3.672,13.362c-.022.066-.022.155-.044.221-.84,5.752,1.7,15.928-3.561,19.113-7.123,4.292-19.357,8.052-26.834,11.724a56.191,56.191,0,0,1-6.88,3.075,6.092,6.092,0,0,1-2.256.42,4.629,4.629,0,0,1-3.96-4.093,9.243,9.243,0,0,1,1.526-5.84c4.226-7.145,15.884-13.317,21.724-19.224,6.083-6.15,9.667-14.092,11.9-22.453a88.724,88.724,0,0,0,2.478-15.861c1.04-14.91-2.566-31.148-2.478-46.1.066-12.034,5.132-16.658,11.769-20.131,11.238-5.862,26.524.2,39.177.619C2423.265,1223.36,2414.04,1224.71,2405.28,1229.311Z" transform="translate(-2341.889 -1079.543)" fill="#fff" stroke="#000" stroke-linecap="round" stroke-linejoin="round" stroke-miterlimit="10" stroke-width="1.5"/>
        <path id="Path_150" data-name="Path 150" d="M2578.4,1233.234c2.7-4.048,10.8-4.734,13.959-4.27,14.977,2.146,24.754,3.562,39.488-1.305,6.327-2.1,11.923-6.3,13.251-13.1,1.593-8.074-2.433-20.02-4.026-25.883-.443-1.659-.885-2.876-1.195-4.181a185.782,185.782,0,0,1-35.727,1.371c.31.022-.287,2.345-.42,2.655a7.358,7.358,0,0,1-2.456,3.429,8.308,8.308,0,0,1-3.96,1.283c-5.884.664-11.459-1.438-17.144-2.544-6.128-1.195-12.809-2.168-18.892-.177a27.226,27.226,0,0,0-2.677,1.128C2558.62,1191.667,2578.4,1233.234,2578.4,1233.234Z" transform="translate(-2508.215 -1056.323)" fill="#38c4f2" stroke="#000" stroke-linecap="round" stroke-linejoin="round" stroke-miterlimit="10" stroke-width="1.5"/>
        <path id="Path_151" data-name="Path 151" d="M2377.356,1696.2c1.637,2.212,3.119,4.734,3.009,7.544-.265,6.283-7.256,7.942-11.614,10.021-6.7,3.208-13.317,6.636-20.219,9.4-2.986,1.195-18.184,7.3-17.675-.642.177-2.654,1.836-5.353,3.429-7.212a44.258,44.258,0,0,1,10-8.251,3.807,3.807,0,0,0,.929,3.274,6.856,6.856,0,0,0,3.318,2.61,7.283,7.283,0,0,0,3.517-.044c4.181-.885,7.9-3.186,11.349-5.707,2.677-1.947,5.22-4.048,7.787-6.128C2373.219,1699.385,2375.321,1697.881,2377.356,1696.2Z" transform="translate(-2330.844 -1454.826)" fill="#38c4f2" stroke="#000" stroke-linecap="round" stroke-linejoin="round" stroke-miterlimit="10" stroke-width="1.5"/>
        <path id="Path_152" data-name="Path 152" d="M2820.047,953.161c0-.929.066-2.323.11-4,.133-5.464.089-13.959-2.146-19.135-1.438-3.318-3.761-5.265-7.522-4.181-5.508,1.571-5.752,8.074-5.6,12.808.111,3.606.2,7.19.288,10.773q.1,4.612.265,9.225c0,2.256-.044,4.513-.089,6.769-.044,1.77.089,3.672-.022,5.53,4.513,1.172,9,2.367,13.472,3.628A211.649,211.649,0,0,0,2820.047,953.161Z" transform="translate(-2700.002 -854.649)" fill="#38c4f2" stroke="#000" stroke-linecap="round" stroke-linejoin="round" stroke-miterlimit="10" stroke-width="1.5"/>
        <path id="Path_153" data-name="Path 153" d="M2659.117,1130.8a10.843,10.843,0,0,1-1.482,5.331c-2.146,3.363-7.079,4.292-10.729,4.734-.619.066-1.239.133-1.88.177a26.571,26.571,0,0,1-5.774-.155c-4.734-.708-8.185-2.987-12.167-5.331-1.814-1.062-5.155-1.726-6.946.265-.819.907.265,1.438.221,2.478-.044,1.261-1.15,1.349-2.035,2.256-.863.907-1.637,2.3-.951,3.341.531.841,1.792,1.128,2.057,2.079.221.774-.354,1.526-.818,2.19s-.818,1.615-.288,2.234c.553.619,1.748.4,2.168,1.128.42.752-.642,0-.863.818a2.4,2.4,0,0,0,1.9,2.655c2.987.752,6.614-1.681,9.225-2.854,3.938-1.77,8.65-.111,12.875.265,8.362.73,20.418,3.318,25.75-5.331,1.5-2.456,2.522-7.3,3.163-12.676C2668.121,1133.189,2663.63,1131.972,2659.117,1130.8Z" transform="translate(-2553.783 -1014.502)" fill="#fff" stroke="#000" stroke-linecap="round" stroke-linejoin="round" stroke-miterlimit="10" stroke-width="1.5"/>
        <path id="Path_154" data-name="Path 154" d="M2617.481,1161.692c-.243,1.106-1.283,1.283-3.23.708a13.072,13.072,0,0,0-1.349-.4,2.253,2.253,0,0,0-2.279,1.925c-.531,3.009,3.673,1.814,5.354,1.925a2,2,0,0,1,1.549.686,1.5,1.5,0,0,1-.487,1.925,3.2,3.2,0,0,1-2.08.465c-1.04-.044-2.3-.066-2.61,1.195a1.187,1.187,0,0,0,.4,1.239,1.462,1.462,0,0,0,1.062.221c.376-.044.708-.155,1.084-.221a2.216,2.216,0,0,1,1.46.177,1.157,1.157,0,0,1,.6,1.261,1.7,1.7,0,0,1-.929.907,12.8,12.8,0,0,1-3.893,1.283c-1.305.243-3.009.066-3.407-1.195-.243-.818.221-1.792-.2-2.544-.376-.686-1.327-1.593-1.748-2.256-.686-1.106.531-2.389.863-3.628.487-1.858-.774-2.787-.42-4.69.509-2.832,3.518-2.765,5.641-2.566C2615.888,1158.418,2617.946,1159.546,2617.481,1161.692Z" transform="translate(-2545.573 -1035.705)" fill="#fff" stroke="#000" stroke-linecap="round" stroke-linejoin="round" stroke-miterlimit="10" stroke-width="1.5"/>
        <path id="Path_155" data-name="Path 155" d="M2686.484,676.474h.066c.022-.089.022-.155.044-.243.863-5,2.964-10.995,3.827-15.972.022,0,.044-.465.066-.465,1.394-8.119,2.987-15.043,1.15-18.892,0,0-7.167,2.986-7.72-1.394a52.726,52.726,0,0,0-.929-5.752s-2.411-.177-2.19-1.172c.221-1.128,1.283-3.34,1.349-4.27.4-5.508-.686-12.9,8.473-14.246,1.018,4.181,1.173,7.145,4.623,9.888,1.637,1.305,3.739,2.389,5.8,1.9,1.438-.354,2.964-1.416,4.2-.509a1.932,1.932,0,0,1,.752,1.814,4.562,4.562,0,0,1-1.571,2.854,4.878,4.878,0,0,1-1.526.929c-.619.243-1.195.354-1.571.973a9.935,9.935,0,0,0-.885,2.743,27.556,27.556,0,0,0-.664,3.318,12.43,12.43,0,0,0,.664,6.349c1.04,2.478,3.164,4.579,3.385,7.256.177,2.057-.819,3.982-1.35,5.973a13.83,13.83,0,0,0,.354,8.251,10.658,10.658,0,0,0,1.792,3.208,10.977,10.977,0,0,0,8.362,3.5,18.9,18.9,0,0,0,8.1-1.659,11.688,11.688,0,0,0,3.606-2.035c3.606-2.92,8.03-8.3,6.083-13.738a16.988,16.988,0,0,0-4.49-6.526c-3.186-2.721-5.177-4.513-4.491-7.212.442-1.814,2.013-5,1.35-6.747-1.549-4-4.071-3.362-5.84-6.637-1.615-3.009-.31-7.3-.686-10.707-.443-4.048-2.92-7.875-6.3-9a13.328,13.328,0,0,0-7.986.31,2.666,2.666,0,0,1-1.548.133,2.7,2.7,0,0,1-1.239-1.15c-2.124-2.787-7.565-2.677-11.039-2.19-11.946,1.659-8.03,5.862-9.446,13.052-.642,3.274-2.677,6.3-3.871,9.269-1.77,4.38,1.748,6.083,2.942,9.844v.221c.885,2.765-.575,5.663-1.726,8.34-1.15,2.655-1.969,6.017-.111,8.274,1.327,1.615,3.694,2.146,4.867,3.849,1.46,2.146.465,5.044-.708,7.367s-2.478,4.955-1.527,7.367C2679.958,675.7,2683.5,676.54,2686.484,676.474Z" transform="translate(-2598.626 -605.083)" fill="#38c4f2" stroke="#000" stroke-linecap="round" stroke-linejoin="round" stroke-miterlimit="10" stroke-width="1.5"/>
      </g>
      <g id="Group_218" data-name="Group 218" transform="translate(237.82 416.192)">
        <path id="Path_156" data-name="Path 156" d="M1358.842,1747.2c-12.853-1.394-10.22-12.344-10.22-12.344s.31-.2.885-.531a30.507,30.507,0,0,1-10.242-8.827L1329,1739.282s9.18,19.688,18.361,20.374c6.681.487,12.388.376,18.6.265a5.584,5.584,0,0,0,4.424-8.539C1368.178,1748.13,1362.293,1747.577,1358.842,1747.2Z" transform="translate(-1289.646 -1476.193)" fill="#7cb947" stroke="#000" stroke-linecap="round" stroke-linejoin="round" stroke-miterlimit="10" stroke-width="1.5"/>
        <path id="Path_157" data-name="Path 157" d="M1347.414,1253.086c-1.394-7.389-6.769-18.162-13.494-22.055-13.981-8.1-60.923-14.976-76.431-13.162l-17.188,28.073s68.069-4.535,72.648,23.869l-.951,4-41.833,56.145a30.756,30.756,0,0,0,10.243,8.827c2.832-1.748,11.9-7.345,17.166-11.26l22.3-15.817,12.123-9.535C1342.281,1287.751,1350.776,1270.762,1347.414,1253.086Z" transform="translate(-1220.568 -1080.63)" stroke="#fff" stroke-miterlimit="10" stroke-width="1.5"/>
        <path id="Path_158" data-name="Path 158" d="M1378.166,942.394c-.863-2.92-5.929-1.305-8.893-1.969.465-1.062,1.726-1.416,2.765-1.925s2.057-1.7,1.46-2.7c-.6-.973-2.057-.664-3.1-.221-2.057.841-4.115,1.7-6.172,2.544-.863.354-1.9.686-2.633.111-1.593-1.261,1.018-3.827.354-5.752-.443-1.239-2.124-1.571-3.318-1.04a5.618,5.618,0,0,0-2.854,2.633c-3.407,7.588-14.6,8.229-23.272,9.048-8.672.8-16.967,1.084-25.02-2.234a12.84,12.84,0,0,1-2.654-1.482c-4.8-3.5-6.681-9.889-9.889-15.419,0,0-2.278-12.72-8.782-12.5s-12.786,15.662-6.5,23.936a44.227,44.227,0,0,0,13.428,11.924,40.8,40.8,0,0,0,4.38,3.385,27.214,27.214,0,0,0,12.609,4.668c8.605.929,17.366,1.858,25.9.376,4.823-.841,13.384-4.446,18.206-5.353,5.4-1.04,7.079.8,12.521,1.482,1.46.177,3.009.42,4.336-.243a1.99,1.99,0,0,0,.6-3.274c-.885-.863-5.508-1.7-4.579-2.5C1368.5,944.65,1379.073,945.535,1378.166,942.394Z" transform="translate(-1249.197 -842.254)" fill="#fff" stroke="#000" stroke-linecap="round" stroke-linejoin="round" stroke-miterlimit="10" stroke-width="1.5"/>
        <path id="Path_159" data-name="Path 159" d="M1268.023,663.226a25.005,25.005,0,0,1-7.123,10.442,5.063,5.063,0,0,0,.708,1.681s5.309,7.743,18.1,3.274c-1.615-4.668-2.013-8.229,1.349-13.251,0,0,7.057,2.809,8.3-1.482,1.172-4.026,1.969-7.079,1.969-7.079s3.23.575,3.1-.73c-.155-1.526-.929-6.57-.907-7.521.022-.73,2.146-7.1-2.9-9.6l-11.769-1.549s-7.322-.752-8.473,5.906S1268.023,663.226,1268.023,663.226Z" transform="translate(-1236.611 -628.788)" fill="#fff"/>
        <path id="Path_160" data-name="Path 160" d="M1200.191,852.073c.022-10.6-3.031-34.665-6.349-43.757-12.211,5.132-17.5-2.3-17.5-2.3a2.749,2.749,0,0,1-.6-1.416l-.4.111c-6.615,6.9-12.41,7.344-16.016,15.308-9.6,21.281-9.092,50.969-6.924,76.475,15.994-4.048,32.077-7.9,48.6-8.915C1200.81,871.585,1200.169,867.824,1200.191,852.073Z" transform="translate(-1151.104 -759.012)" fill="#e7287a" stroke="#000" stroke-linecap="round" stroke-linejoin="round" stroke-miterlimit="10" stroke-width="1.5"/>
        <path id="Path_161" data-name="Path 161" d="M1277.73,1253.023c-.155-18.759-1.283-34.974-13.693-49.044-5.176-5.884-11.592-8.45-19.025-10.95-8.782-2.942-26.259-6.614-39.51-7.367l.221-3.031c0-1-.022-1.925-.022-2.832-16.525,1.018-32.607,4.845-48.6,8.915.332,3.96.708,7.831,1.106,11.547.509,4.867,1.128,9.8,3.053,14.291,2.721,6.393,8.119,10.353,14.512,12.676,11.614,4.225,24.489,2.367,36.567,2.212,12.587-.177,29.6-3.163,33.161,7.344,6.9,20.352,9.026,51.854,9.667,82.337,1.77-.044,3.539-.111,5.331-.243,4-.288,7.212-2.234,10.508-4.026C1274.39,1295.851,1277.885,1272,1277.73,1253.023Z" transform="translate(-1155.773 -1051.211)" stroke="#fff" stroke-miterlimit="10" stroke-width="1.5"/>
        <path id="Path_162" data-name="Path 162" d="M1646.578,1807.442a8.475,8.475,0,0,0-2.013-3.274c-4.447-4.6-13.45-4.933-19.2-6.947-3.827-1.349-6.349-2.544-9.026-5.973a3.47,3.47,0,0,1-.509-1.549,37.685,37.685,0,0,1-4.911,2.721,16.915,16.915,0,0,1-5.486,1.438c-1.792.133-3.562.2-5.331.243.111,4.889.177,9.756.2,14.534.022,1.084,15.419,3.23,16.724,3.473,7.743,1.416,16.768,4.292,24.511,2.19C1644.742,1813.415,1647.684,1811,1646.578,1807.442Z" transform="translate(-1500.774 -1526.19)" fill="#7cb947" stroke="#000" stroke-linecap="round" stroke-linejoin="round" stroke-miterlimit="10" stroke-width="1.5"/>
        <path id="Path_163" data-name="Path 163" d="M1271.247,632.829c-3.562-1.814-3.075-6.769-3.716-10.132-.376-1.969-1.04-3.871-1.549-5.818a17.087,17.087,0,0,1-.31-7.1,9.073,9.073,0,0,1,2.323-5.132,11.337,11.337,0,0,1,7.079-2.7c2.566-.111,5.11.509,7.676.332a17.648,17.648,0,0,0,7.057-2.566,6.75,6.75,0,0,1,3.783-1.172c1.681.155,3.694,1.7,3.053,3.539-1.593,4.557-5.663,6.548-9.844,8.473-2.013.929-4.845.929-6.15,2.854-.929,1.372-.819,4.756-.686,6.415.067.885-.575.354-1.128.221a2.46,2.46,0,0,0-1.327,0,2.712,2.712,0,0,0-1.084.8c-1.925,2.3-.044,5.331,2.787,5.287a1.673,1.673,0,0,1,.332.022c.619.2-.487,2.079-.664,2.433a10.969,10.969,0,0,1-1.571,2.522c-1.394,1.615-3.628,2.743-5.73,1.858A2.084,2.084,0,0,1,1271.247,632.829Z" transform="translate(-1240.145 -598.523)" fill="#face38" stroke="#000" stroke-linecap="round" stroke-linejoin="round" stroke-miterlimit="10" stroke-width="1.5"/>
        <path id="Path_164" data-name="Path 164" d="M1288.873,643.3c6.924,1.947,4.557,9.6,4.535,10.309-.022.951.752,6,.907,7.521.133,1.283-3.1.73-3.1.73s-.818,3.053-1.969,7.079c-1.239,4.292-8.3,1.482-8.3,1.482-3.363,5.044-2.743,8.583-1.128,13.251-12.808,4.491-18.317-3.274-18.317-3.274a5.062,5.062,0,0,1-.708-1.681,25.212,25.212,0,0,0,7.123-10.442" transform="translate(-1236.533 -633.394)" fill="none" stroke="#000" stroke-linecap="round" stroke-linejoin="round" stroke-miterlimit="10" stroke-width="1.5"/>
        <path id="Path_165" data-name="Path 165" d="M1376.5,691.3s1.991,1.128,3.562.066" transform="translate(-1326.638 -670.776)" fill="none" stroke="#000" stroke-linecap="round" stroke-linejoin="round" stroke-miterlimit="10" stroke-width="1.5"/>
        <g id="Group_217" data-name="Group 217" transform="translate(14.421 63.75)">
          <path id="Path_166" data-name="Path 166" d="M1223.2,927.108c-1.195,0-2.433-.022-3.672-.044-.752-7.986-.177-16.392.332-23.8.243-3.539.531-7.964,2.92-11.105a7.224,7.224,0,0,1,5.575-2.456,4.488,4.488,0,0,1,4.159,2.013c2.787,5.132,2.743,13.428,2.677,22.21-.022,4.137-.066,8.406.2,12.609C1231.45,926.909,1227.468,927.108,1223.2,927.108Z" transform="translate(-1218.53 -889.036)"/>
          <path id="Path_167" data-name="Path 167" d="M1226.1,886.7v1.327h0c.8,0,2.765.155,3.584,1.659,2.721,4.977,2.655,13.185,2.588,21.878-.022,3.938-.066,8.008.155,12.034-3.672.354-7.433.531-11.459.531-1,0-2.035-.022-3.053-.022-.664-7.765-.111-15.906.376-23.117.243-3.451.531-7.765,2.787-10.751a6.5,6.5,0,0,1,5.044-2.19l-.022-1.349m0,0a7.773,7.773,0,0,0-6.083,2.721c-2.411,3.208-2.765,7.455-3.031,11.459-.553,8.141-1.084,16.414-.265,24.489,1.416.044,2.854.066,4.27.066a119.112,119.112,0,0,0,12.853-.664c-.907-13.494,1.283-27.9-2.986-35.727a5.218,5.218,0,0,0-4.756-2.345Z" transform="translate(-1216.294 -886.7)" fill="#fff"/>
        </g>
        <path id="Path_168" data-name="Path 168" d="M1235.222,1058.8a61.9,61.9,0,0,0,1.261,9.2c3.473,15.264,11.835,28.316,26.192,34.532,3.517,1.526,12.9,1.991,16.68,2.743a17,17,0,0,1,6.659,2.345,2.363,2.363,0,0,1,1.04,1.283c.265,1.106-.907,2.1-2.035,2.212a11.982,11.982,0,0,1-3.186-.31,5.043,5.043,0,0,0-2.3.265c-.841.553-.022,1.106.708,1.792a18.531,18.531,0,0,0,2.721,2.035c.863.509,1.637,1.5,1.305,2.455a1.911,1.911,0,0,1-1.991,1.106,5.851,5.851,0,0,1-2.279-.863c-2.3-1.283-6.3-3.915-7.145-3.274-1.659,1.261,2.854,2.854,3.23,4.911.155.818-.022.8-.265,1.15-.708,1.04-2.854.6-3.274.509-3.849-.885-6.393-2.92-10.065-5.8-3.694-2.876-4.911-4.115-8.893-6.57-14.379-8.871-28.891-22.63-33.559-38.868a57.89,57.89,0,0,1-1.925-10.265A126.584,126.584,0,0,0,1235.222,1058.8Z" transform="translate(-1203.279 -956.979)" fill="#fff"/>
        <path id="Path_169" data-name="Path 169" d="M1282.4,1210.482c4.181-4,13.052-4.469,23.007-3.894" transform="translate(-1253.355 -1071.917)" fill="none" stroke="#fff" stroke-linecap="round" stroke-linejoin="round" stroke-miterlimit="10" stroke-width="1.5"/>
      </g>
    </g>
  </g>
</svg>
