<svg xmlns="http://www.w3.org/2000/svg" xmlns:xlink="http://www.w3.org/1999/xlink" width="28.217" height="33.484" viewBox="0 0 28.217 33.484">
  <defs>
    <clipPath id="clip-path">
      <rect id="Rectangle_215" data-name="Rectangle 215" width="28.217" height="33.484" transform="translate(0 0)" fill="none"/>
    </clipPath>
  </defs>
  <g id="Group_750" data-name="Group 750" transform="translate(0 0)">
    <g id="Group_749" data-name="Group 749" clip-path="url(#clip-path)">
      <path id="Path_1032" data-name="Path 1032" d="M14.179,25.356l-7,1.6L1.572,25.22a2.256,2.256,0,0,1-.423-2.013,2.253,2.253,0,0,1,1.486-1.422Z" fill="#fff"/>
      <path id="Path_1033" data-name="Path 1033" d="M27.069,31.225a2.261,2.261,0,0,1-1.487,1.423L14.039,29.077l7-1.6,5.6,1.734a2.26,2.26,0,0,1,.424,2.013" fill="#fff"/>
      <path id="Path_1034" data-name="Path 1034" d="M26.76,26.172l-5.72,1.306-7,1.6L2.258,31.766A2.258,2.258,0,0,1,.883,30.235a2.259,2.259,0,0,1,.575-1.975l5.719-1.306,7-1.6,11.78-2.69a2.117,2.117,0,0,1,.8,3.506" fill="#fff"/>
      <path id="Path_1035" data-name="Path 1035" d="M24.142,12.722A9.43,9.43,0,1,1,6.9,7.086s0,0,2.8,3.089a12.037,12.037,0,0,0,2.131-2.9A11.135,11.135,0,0,0,13.077.836a7.052,7.052,0,0,1,6.435,6.726,13.211,13.211,0,0,1-.12,2.979L22.908,7.69a9.378,9.378,0,0,1,1.234,5.032" fill="#ed207a"/>
      <path id="Path_1036" data-name="Path 1036" d="M.822,27.717a3.109,3.109,0,0,0-.754,2.705,3.113,3.113,0,0,0,1.853,2.11.853.853,0,0,0,.306.07.832.832,0,0,0,.217-.02l11.562-2.64,11.329,3.5a.825.825,0,0,0,.525-.011,2.947,2.947,0,0,0,1.46-4.717.839.839,0,0,0-.428-.306L24.263,27.6l2.683-.613a.837.837,0,0,0,.45-.272A2.949,2.949,0,0,0,26.3,21.9a.839.839,0,0,0-.523-.05l-11.561,2.64-11.33-3.5a.842.842,0,0,0-.525.01A3.109,3.109,0,0,0,.35,22.96,3.11,3.11,0,0,0,.9,25.714a.843.843,0,0,0,.428.3l2.63.814-2.683.612a.837.837,0,0,0-.45.272M26.11,29.922a1.227,1.227,0,0,1-.569,1.838L17.261,29.2l3.747-.856Zm-24-5.411a1.341,1.341,0,0,1-.159-1.057,1.337,1.337,0,0,1,.728-.781l8.28,2.561-2.611.6-1.135.259Zm-.169,4.5,5.425-1.239,7-1.6,11.487-2.623a1.229,1.229,0,0,1,.428,1.877l-5.423,1.238-7,1.6L2.367,30.885a1.228,1.228,0,0,1-.429-1.877"/>
      <path id="Path_1037" data-name="Path 1037" d="M19.177,17.831a3.968,3.968,0,1,0-4.115,3.815,3.968,3.968,0,0,0,4.115-3.815" fill="#face36"/>
      <path id="Path_1038" data-name="Path 1038" d="M11.092,6.885a11.072,11.072,0,0,1-1.385,2.05L7.524,6.525a.836.836,0,0,0-1.313.092,10.267,10.267,0,1,0,17.424.658.837.837,0,0,0-1.087-.339.87.87,0,0,0-.167.105l-2,1.621q.009-.6-.037-1.158V7.493a7.692,7.692,0,0,0-3.83-6.4A8.524,8.524,0,0,0,13.129,0a.835.835,0,0,0-.876.974,10.313,10.313,0,0,1-1.147,5.885l-.014.024m1.469.8c.005-.009.01-.017.014-.026a12.389,12.389,0,0,0,1.409-5.815,6.084,6.084,0,0,1,4.694,5.777v.01a12.437,12.437,0,0,1-.114,2.791.836.836,0,0,0,1.354.769l2.707-2.2A8.594,8.594,0,1,1,7.047,8.488l2.035,2.248a.837.837,0,0,0,1.215.027,12.949,12.949,0,0,0,2.264-3.078"/>
    </g>
  </g>
</svg>
