<svg xmlns="http://www.w3.org/2000/svg" width="23.739" height="19.442" viewBox="0 0 23.739 19.442">
  <path id="Path_361" data-name="Path 361" d="M1076,1132.66a11.642,11.642,0,0,0,1.7,0,9.536,9.536,0,0,0,1.851-.331,9.924,9.924,0,0,0,2.79-1.267,4.878,4.878,0,0,0,.65-.488,4.979,4.979,0,0,1-2.825-.975,4.841,4.841,0,0,1-1.735-2.423,4.856,4.856,0,0,0,2.106-.073c-.005-.085-2.28-.756-3.185-2.407a4.926,4.926,0,0,1-.655-2.4c0-.125.07-.059.107-.038a4.847,4.847,0,0,0,1.526.5c.172.028.349.029.545.044a5.031,5.031,0,0,1-1.509-6.562c.305.333.577.642.862.938a14.009,14.009,0,0,0,6.334,3.734,13.9,13.9,0,0,0,2.776.461c.181.011.2-.055.173-.2a4.775,4.775,0,0,1,1.646-4.656,4.656,4.656,0,0,1,3.5-1.139,4.745,4.745,0,0,1,3.135,1.421.275.275,0,0,0,.291.07,9.756,9.756,0,0,0,2.677-1.01c.059-.034.124-.059.242-.114a5.032,5.032,0,0,1-2.049,2.641,8.784,8.784,0,0,0,2.658-.686,2.613,2.613,0,0,1-.417.615,9.191,9.191,0,0,1-1.789,1.734.371.371,0,0,0-.168.351,13.649,13.649,0,0,1-.47,3.984,14.621,14.621,0,0,1-2.529,5.149,13.367,13.367,0,0,1-3.146,2.974,12.887,12.887,0,0,1-2.981,1.5,14.5,14.5,0,0,1-3.014.7,15.088,15.088,0,0,1-2.941.063,13.451,13.451,0,0,1-3.635-.787,14.147,14.147,0,0,1-2.564-1.239.775.775,0,0,1-.085-.072A.139.139,0,0,1,1076,1132.66Z" transform="translate(-1075.866 -1115.367)" fill="#fff"/>
</svg>
