<svg xmlns="http://www.w3.org/2000/svg" width="82.083" height="74.134" viewBox="0 0 82.083 74.134">
  <g id="Group_951" data-name="Group 951" transform="translate(0.294 0.295)">
    <path id="Path_1473" data-name="Path 1473" d="M72.468,60.467a37.9,37.9,0,1,0-62.33,0h-6A3.141,3.141,0,0,0,1,63.608v6.385a3.141,3.141,0,0,0,3.141,3.141H20.456a4.629,4.629,0,0,0,4.629-4.574l.073-6.036a4.609,4.609,0,0,0-1.6-3.5,26.828,26.828,0,1,1,35.3.162,4.54,4.54,0,0,0-1.6,3.416l-.008,5.9a4.63,4.63,0,0,0,4.63,4.636H77.943a3.141,3.141,0,0,0,3.14-3.141V63.608a3.141,3.141,0,0,0-3.14-3.141Z" transform="translate(-0.294 -0.294)" fill="#fff"/>
    <path id="Path_1474" data-name="Path 1474" d="M72.468,60.467a37.9,37.9,0,1,0-62.33,0h-6A3.141,3.141,0,0,0,1,63.608v6.385a3.141,3.141,0,0,0,3.141,3.141H20.456a4.629,4.629,0,0,0,4.629-4.574l.073-6.036a4.609,4.609,0,0,0-1.6-3.5,26.828,26.828,0,1,1,35.3.162,4.54,4.54,0,0,0-1.6,3.416l-.008,5.9a4.63,4.63,0,0,0,4.63,4.636H77.943a3.141,3.141,0,0,0,3.14-3.141V63.608a3.141,3.141,0,0,0-3.14-3.141Z" transform="translate(-0.294 -0.294)" fill="none" stroke="#000" stroke-linecap="round" stroke-linejoin="round" stroke-width="2"/>
    <path id="Path_1475" data-name="Path 1475" d="M59.959,7.918a2.627,2.627,0,1,0-2.627,2.627,2.627,2.627,0,0,0,2.627-2.627" transform="translate(-16.109 -1.558)" fill="#fff"/>
    <circle id="Ellipse_31" data-name="Ellipse 31" cx="2.627" cy="2.627" r="2.627" transform="translate(38.597 3.733)" fill="none" stroke="#000" stroke-linecap="round" stroke-linejoin="round" stroke-width="2"/>
    <path id="Path_1476" data-name="Path 1476" d="M104.968,50.709a2.627,2.627,0,1,0-2.627,2.627,2.627,2.627,0,0,0,2.627-2.627" transform="translate(-29.362 -14.158)" fill="#fff"/>
    <circle id="Ellipse_32" data-name="Ellipse 32" cx="2.627" cy="2.627" r="2.627" transform="translate(70.353 33.923)" fill="none" stroke="#000" stroke-linecap="round" stroke-linejoin="round" stroke-width="2"/>
    <path id="Path_1477" data-name="Path 1477" d="M13.6,50.709a2.627,2.627,0,1,0-2.627,2.627A2.627,2.627,0,0,0,13.6,50.709" transform="translate(-2.457 -14.158)" fill="#fff"/>
    <circle id="Ellipse_33" data-name="Ellipse 33" cx="2.627" cy="2.627" r="2.627" transform="translate(5.887 33.923)" fill="none" stroke="#000" stroke-linecap="round" stroke-linejoin="round" stroke-width="2"/>
  </g>
</svg>
