<svg xmlns="http://www.w3.org/2000/svg" xmlns:xlink="http://www.w3.org/1999/xlink" width="110.973" height="87.959" viewBox="0 0 110.973 87.959">
  <defs>
    <clipPath id="clip-path">
      <rect id="Rectangle_304" data-name="Rectangle 304" width="110.973" height="87.959" fill="none"/>
    </clipPath>
  </defs>
  <g id="Group_939" data-name="Group 939" transform="translate(0 0)">
    <g id="Group_938" data-name="Group 938" transform="translate(0 0)" clip-path="url(#clip-path)">
      <path id="Path_1415" data-name="Path 1415" d="M97.178,47.149a40.105,40.105,0,1,0-40.1,40.1,40.105,40.105,0,0,0,40.1-40.1" transform="translate(-1.586 -0.658)" fill="#fff" fill-rule="evenodd"/>
      <path id="Path_1416" data-name="Path 1416" d="M97.178,47.149a40.105,40.105,0,1,0-40.1,40.1A40.105,40.105,0,0,0,97.178,47.149Z" transform="translate(-1.586 -0.658)" fill="none" stroke="#000" stroke-linecap="round" stroke-linejoin="round" stroke-width="2"/>
      <path id="Path_1417" data-name="Path 1417" d="M20.991,65.806c-5.238,9.335-6.863,16.784-3.625,20.09,6.39,6.52,29.294-5.562,51.157-26.988s34.407-44.079,28.018-50.6c-3.2-3.261-10.518-1.87-19.776,3.014" transform="translate(-1.467 -0.611)" fill="none" stroke="#000" stroke-linecap="round" stroke-linejoin="round" stroke-width="2"/>
      <path id="Path_1418" data-name="Path 1418" d="M95.4,44.6c9.839,4.889,15.535,10.263,14.676,14.885-1.666,8.976-27.416,11.721-57.513,6.131-14.749-2.74-27.805-6.972-37.089-11.633C5.812,49.131.235,43.817,1.085,39.24c.834-4.487,7.688-7.418,18.1-8.528" transform="translate(-0.093 -2.87)" fill="none" stroke="#000" stroke-linecap="round" stroke-linejoin="round" stroke-width="2"/>
      <path id="Path_1419" data-name="Path 1419" d="M46.626,37.282c5.285,2.189,7.06,3.964,9.249,9.249,2.189-5.285,3.963-7.06,9.248-9.249-5.285-2.189-7.059-3.964-9.248-9.249-2.189,5.285-3.964,7.06-9.249,9.249" transform="translate(-4.358 -2.62)" fill="#face37"/>
      <path id="Path_1420" data-name="Path 1420" d="M46.626,37.282c5.285,2.189,7.06,3.964,9.249,9.249,2.189-5.285,3.963-7.06,9.248-9.249-5.285-2.189-7.059-3.964-9.248-9.249C53.686,33.318,51.911,35.093,46.626,37.282Z" transform="translate(-4.358 -2.62)" fill="none" stroke="#000" stroke-linecap="round" stroke-linejoin="round" stroke-width="2"/>
      <path id="Path_1421" data-name="Path 1421" d="M22.878,12.314c6.465,2.678,8.636,4.848,11.314,11.314,2.679-6.465,4.848-8.636,11.314-11.314C39.04,9.636,36.87,7.465,34.192,1c-2.678,6.465-4.848,8.636-11.314,11.314" transform="translate(-2.138 -0.093)" fill="#face37"/>
      <path id="Path_1422" data-name="Path 1422" d="M22.878,12.314c6.465,2.678,8.636,4.848,11.314,11.314,2.679-6.465,4.848-8.636,11.314-11.314C39.04,9.636,36.87,7.465,34.192,1c-2.678,6.465-4.848,8.636-11.314,11.314" transform="translate(-2.138 -0.093)" fill="#face37" stroke="#000" stroke-linecap="round" stroke-linejoin="round" stroke-width="2"/>
    </g>
  </g>
</svg>
