<svg xmlns="http://www.w3.org/2000/svg" xmlns:xlink="http://www.w3.org/1999/xlink" width="102.627" height="74.547" viewBox="0 0 102.627 74.547">
  <defs>
    <clipPath id="clip-path">
      <rect id="Rectangle_316" data-name="Rectangle 316" width="102.627" height="74.547" fill="#fff"/>
    </clipPath>
  </defs>
  <g id="Group_974" data-name="Group 974" transform="translate(0 0)">
    <g id="Group_973" data-name="Group 973" transform="translate(0 0)" clip-path="url(#clip-path)">
      <path id="Path_1505" data-name="Path 1505" d="M50.435,71.789l-3.9-1.715a31,31,0,0,0-12.49-2.649H1V1H34.04a31,31,0,0,1,12.49,2.649l3.9,1.715Z" transform="translate(0.879 0.88)" fill="#fff" stroke="#000" stroke-linecap="round" stroke-linejoin="round" stroke-width="2"/>
      <line id="Line_335" data-name="Line 335" x2="16.917" transform="translate(11.676 19.448)" fill="none" stroke="#000" stroke-linecap="round" stroke-linejoin="round" stroke-width="2"/>
      <line id="Line_336" data-name="Line 336" x2="23.872" transform="translate(11.676 30.487)" fill="none" stroke="#000" stroke-linecap="round" stroke-linejoin="round" stroke-width="2"/>
      <line id="Line_337" data-name="Line 337" x2="23.872" transform="translate(11.676 41.526)" fill="none" stroke="#000" stroke-linecap="round" stroke-linejoin="round" stroke-width="2"/>
      <line id="Line_338" data-name="Line 338" x2="23.872" transform="translate(11.676 52.565)" fill="none" stroke="#000" stroke-linecap="round" stroke-linejoin="round" stroke-width="2"/>
      <path id="Path_1506" data-name="Path 1506" d="M27.312,71.789l3.9-1.715a31,31,0,0,1,12.49-2.649h33.04V1H43.706a31,31,0,0,0-12.49,2.649l-3.9,1.715Z" transform="translate(24.001 0.88)" fill="#fff" stroke="#000" stroke-linecap="round" stroke-linejoin="round" stroke-width="2"/>
    </g>
  </g>
</svg>
