<svg xmlns="http://www.w3.org/2000/svg" xmlns:xlink="http://www.w3.org/1999/xlink" width="71.728" height="87.654" viewBox="0 0 71.728 87.654">
  <defs>
    <clipPath id="clip-path">
      <rect id="Rectangle_286" data-name="Rectangle 286" width="71.728" height="87.654" fill="none"/>
    </clipPath>
  </defs>
  <g id="Group_934" data-name="Group 934" clip-path="url(#clip-path)">
    <path id="Path_1393" data-name="Path 1393" d="M67.909,53.369a4.539,4.539,0,0,0-.542.243,8.018,8.018,0,0,0-4.217,7.067V70.794a3.029,3.029,0,0,1-3.023,3.023h-11.2a4.3,4.3,0,0,0-4.3,4.3v8.265a.706.706,0,0,1-.707.706h-30.3a.688.688,0,0,1-.516-.227.706.706,0,0,1-.185-.542l1-11.225a36.215,36.215,0,0,0-4.986-21.49,79.159,79.159,0,0,1-6.15-13.638C-1.922,26.56,2.9,13.994,14.838,6.248c21.924-14.215,53.637,1.9,48.77,30.9A9.471,9.471,0,0,0,64.714,43.4a3.93,3.93,0,0,0,.282.428l6.172,8.32Z" transform="translate(-0.22 -0.22)" fill="#fff"/>
    <path id="Path_1394" data-name="Path 1394" d="M67.909,53.369a4.539,4.539,0,0,0-.542.243,8.018,8.018,0,0,0-4.217,7.067V70.794a3.029,3.029,0,0,1-3.023,3.023h-11.2a4.3,4.3,0,0,0-4.3,4.3v8.265a.706.706,0,0,1-.707.706h-30.3a.688.688,0,0,1-.516-.227.706.706,0,0,1-.185-.542l1-11.225a36.215,36.215,0,0,0-4.986-21.49,79.159,79.159,0,0,1-6.15-13.638C-1.922,26.56,2.9,13.994,14.838,6.248c21.924-14.215,53.637,1.9,48.77,30.9A9.471,9.471,0,0,0,64.714,43.4a3.93,3.93,0,0,0,.282.428l6.172,8.32Z" transform="translate(-0.22 -0.22)" fill="none" stroke="#000" stroke-linecap="round" stroke-linejoin="round" stroke-width="2"/>
    <path id="Path_1395" data-name="Path 1395" d="M36.379,19.729A18.093,18.093,0,0,0,18.3,37.345H36.379Z" transform="translate(-4.021 -4.336)" fill="#fff"/>
    <path id="Path_1396" data-name="Path 1396" d="M36.379,19.729A18.093,18.093,0,0,0,18.3,37.345H36.379Z" transform="translate(-4.021 -4.336)" fill="none" stroke="#000" stroke-linecap="round" stroke-linejoin="round" stroke-width="2"/>
    <path id="Path_1397" data-name="Path 1397" d="M63.544,33.358A18.093,18.093,0,0,0,45.46,15.742V33.358Z" transform="translate(-9.992 -3.46)" fill="#ed207a"/>
    <path id="Path_1398" data-name="Path 1398" d="M63.544,33.358A18.093,18.093,0,0,0,45.46,15.742V33.358Z" transform="translate(-9.992 -3.46)" fill="none" stroke="#000" stroke-linecap="round" stroke-linejoin="round" stroke-width="1.75"/>
    <path id="Path_1399" data-name="Path 1399" d="M41.474,59.923A18.094,18.094,0,0,0,59.559,42.307H41.474Z" transform="translate(-9.116 -9.299)" fill="#fff"/>
    <path id="Path_1400" data-name="Path 1400" d="M41.474,59.923A18.094,18.094,0,0,0,59.559,42.307H41.474Z" transform="translate(-9.116 -9.299)" fill="none" stroke="#000" stroke-linecap="round" stroke-linejoin="round" stroke-width="2"/>
    <path id="Path_1401" data-name="Path 1401" d="M18.3,42.307A18.093,18.093,0,0,0,36.38,59.923V42.307Z" transform="translate(-4.021 -9.299)" fill="#fff"/>
    <path id="Path_1402" data-name="Path 1402" d="M18.3,42.307A18.093,18.093,0,0,0,36.38,59.923V42.307Z" transform="translate(-4.021 -9.299)" fill="none" stroke="#000" stroke-linecap="round" stroke-linejoin="round" stroke-width="2"/>
  </g>
</svg>
