<svg xmlns="http://www.w3.org/2000/svg" xmlns:xlink="http://www.w3.org/1999/xlink" width="68.449" height="68.242" viewBox="0 0 68.449 68.242">
  <defs>
    <clipPath id="clip-path">
      <rect id="Rectangle_314" data-name="Rectangle 314" width="68.449" height="68.242" transform="translate(0 0)" fill="none"/>
    </clipPath>
  </defs>
  <g id="Group_957" data-name="Group 957" transform="translate(0 0)">
    <g id="Group_956" data-name="Group 956" clip-path="url(#clip-path)">
      <path id="Path_1490" data-name="Path 1490" d="M14.6,13.967C18.514,6.215,25.838,1,34.225,1s15.71,5.215,19.628,12.967" fill="none" stroke="#000" stroke-linecap="round" stroke-linejoin="round" stroke-width="2"/>
      <path id="Path_1491" data-name="Path 1491" d="M63.731,67.242H4.718A3.718,3.718,0,0,1,1,63.524V17.686a3.718,3.718,0,0,1,3.718-3.718H63.731a3.719,3.719,0,0,1,3.718,3.718V63.524a3.719,3.719,0,0,1-3.718,3.718" fill="#fff" fill-rule="evenodd"/>
      <rect id="Rectangle_313" data-name="Rectangle 313" width="66.449" height="53.274" rx="3.718" transform="translate(1 13.968)" fill="none" stroke="#000" stroke-linecap="round" stroke-linejoin="round" stroke-width="2"/>
      <path id="Path_1492" data-name="Path 1492" d="M67.449,32.276H1V17.683a3.715,3.715,0,0,1,3.715-3.715H63.734a3.715,3.715,0,0,1,3.715,3.715Z" fill="#fff" fill-rule="evenodd"/>
      <path id="Path_1493" data-name="Path 1493" d="M67.449,32.276H1V17.683a3.715,3.715,0,0,1,3.715-3.715H63.734a3.715,3.715,0,0,1,3.715,3.715Z" fill="none" stroke="#000" stroke-linecap="round" stroke-linejoin="round" stroke-width="2"/>
      <path id="Path_1494" data-name="Path 1494" d="M40.451,46.3H28a1.972,1.972,0,0,1-1.972-1.973V32.276h16.4V44.325A1.973,1.973,0,0,1,40.451,46.3" fill="#face37" fill-rule="evenodd"/>
      <path id="Path_1495" data-name="Path 1495" d="M40.451,46.3H28a1.972,1.972,0,0,1-1.972-1.973V32.276h16.4V44.325A1.973,1.973,0,0,1,40.451,46.3Z" fill="none" stroke="#000" stroke-linecap="round" stroke-linejoin="round" stroke-width="1.75"/>
    </g>
  </g>
</svg>
