<svg id="Group_948" data-name="Group 948" xmlns="http://www.w3.org/2000/svg" xmlns:xlink="http://www.w3.org/1999/xlink" width="65.447" height="111.569" viewBox="0 0 65.447 111.569">
  <defs>
    <clipPath id="clip-path">
      <rect id="Rectangle_310" data-name="Rectangle 310" width="65.447" height="111.569" fill="none"/>
    </clipPath>
  </defs>
  <g id="Group_947" data-name="Group 947" clip-path="url(#clip-path)">
    <path id="Path_1469" data-name="Path 1469" d="M55.02,84.972H10.427A9.427,9.427,0,0,1,1,75.545V31.983a9.427,9.427,0,0,1,9.427-9.427H55.02a9.427,9.427,0,0,1,9.427,9.427V75.545a9.427,9.427,0,0,1-9.427,9.427" fill="#fff"/>
    <rect id="Rectangle_309" data-name="Rectangle 309" width="63.447" height="62.416" rx="9.427" transform="translate(1 22.556)" fill="none" stroke="#000" stroke-linecap="round" stroke-linejoin="round" stroke-width="2"/>
    <line id="Line_318" data-name="Line 318" x1="2.935" y2="25.544" transform="translate(15.113 85.024)" fill="#fff"/>
    <line id="Line_319" data-name="Line 319" x1="2.935" y2="25.544" transform="translate(15.113 85.024)" fill="none" stroke="#000" stroke-linecap="round" stroke-linejoin="round" stroke-width="2"/>
    <line id="Line_320" data-name="Line 320" x2="2.935" y2="25.544" transform="translate(47.399 85.024)" fill="#fff"/>
    <line id="Line_321" data-name="Line 321" x2="2.935" y2="25.544" transform="translate(47.399 85.024)" fill="none" stroke="#000" stroke-linecap="round" stroke-linejoin="round" stroke-width="2"/>
    <line id="Line_322" data-name="Line 322" y2="21.556" transform="translate(32.724 85.024)" fill="#fff"/>
    <line id="Line_323" data-name="Line 323" y2="21.556" transform="translate(32.724 85.024)" fill="none" stroke="#000" stroke-linecap="round" stroke-linejoin="round" stroke-width="2"/>
    <line id="Line_324" data-name="Line 324" y2="21.556" transform="translate(32.724 1)" fill="#fff"/>
    <line id="Line_325" data-name="Line 325" y2="21.556" transform="translate(32.724 1)" fill="none" stroke="#000" stroke-linecap="round" stroke-linejoin="round" stroke-width="2"/>
    <line id="Line_326" data-name="Line 326" x2="39.699" transform="translate(12.874 94.039)" fill="#fff"/>
    <line id="Line_327" data-name="Line 327" x2="39.699" transform="translate(12.874 94.039)" fill="none" stroke="#000" stroke-linecap="round" stroke-linejoin="round" stroke-width="2"/>
    <path id="Path_1470" data-name="Path 1470" d="M42.4,22.556H22.278l2.2-12.29H40.2Z" fill="none" stroke="#000" stroke-linecap="round" stroke-linejoin="round" stroke-width="2"/>
    <path id="Path_1471" data-name="Path 1471" d="M31.244,39.716a14.556,14.556,0,0,0-8.67.313,8.45,8.45,0,0,0-5.4,6.437c-.556,4.37,3.061,8.144,3.906,12.467a13.359,13.359,0,0,1-1.835,9.06,33.078,33.078,0,0,1-6.061,7.2A40.486,40.486,0,0,0,35.3,77.6c.5-.087,1.1-.275,1.208-.773a1.441,1.441,0,0,0-.206-.866c-1.618-3.561-.32-8,2.482-10.73s6.818-3.928,10.728-4.049a5.3,5.3,0,0,0,1.782-.235,3.127,3.127,0,0,0,1.7-1.868c.9-2.421-.563-5.206-2.692-6.671s-4.765-1.931-7.3-2.412a10.051,10.051,0,0,0-3.632-.248,9.22,9.22,0,0,0-2.126.747,78.839,78.839,0,0,0-15.095,8.975,18.433,18.433,0,0,1-4.753,2.969,5.419,5.419,0,0,1-5.324-.664,1.773,1.773,0,0,1-.639-.994,2.02,2.02,0,0,1,.3-1.217c2.816-5.481,10.15-6.4,15.253-9.855A35.428,35.428,0,0,1,31,46.967a17.092,17.092,0,0,1,3.588-1.146l6.039-1.448a16.975,16.975,0,0,0,5.033-1.786,5.741,5.741,0,0,0,2.9-4.271c.168-2.489-1.841-4.591-3.951-5.921a19.706,19.706,0,0,0-12.56-2.883c-2.1.234-4.448,1.048-5.229,3.016-.58,1.46-.112,3.1.359,4.6a5.912,5.912,0,0,0,1.844,3.226c2.089,1.489,5.328-.144,7.434,1.321,1.418.987,1.691,3.061,1.123,4.693a13.821,13.821,0,0,1-2.908,4.251,37.873,37.873,0,0,0-7.8,13.2c-.6,1.9-.956,4.059-.034,5.828,1.146,2.2,3.834,3.032,6.274,3.462a46.7,46.7,0,0,0,9.182.7c3.048-.07,6.765-.11,8.312,2.516a2.909,2.909,0,0,0,1.176-2.95" fill="#fff"/>
    <path id="Path_1472" data-name="Path 1472" d="M31.244,39.716a14.556,14.556,0,0,0-8.67.313,8.45,8.45,0,0,0-5.4,6.437c-.556,4.37,3.061,8.144,3.906,12.467a13.359,13.359,0,0,1-1.835,9.06,33.078,33.078,0,0,1-6.061,7.2A40.486,40.486,0,0,0,35.3,77.6c.5-.087,1.1-.275,1.208-.773a1.441,1.441,0,0,0-.206-.866c-1.618-3.561-.32-8,2.482-10.73s6.818-3.928,10.728-4.049a5.3,5.3,0,0,0,1.782-.235,3.127,3.127,0,0,0,1.7-1.868c.9-2.421-.563-5.206-2.692-6.671s-4.765-1.931-7.3-2.412a10.051,10.051,0,0,0-3.632-.248,9.22,9.22,0,0,0-2.126.747,78.839,78.839,0,0,0-15.095,8.975,18.433,18.433,0,0,1-4.753,2.969,5.419,5.419,0,0,1-5.324-.664,1.773,1.773,0,0,1-.639-.994,2.02,2.02,0,0,1,.3-1.217c2.816-5.481,10.15-6.4,15.253-9.855A35.428,35.428,0,0,1,31,46.967a17.092,17.092,0,0,1,3.588-1.146l6.039-1.448a16.975,16.975,0,0,0,5.033-1.786,5.741,5.741,0,0,0,2.9-4.271c.168-2.489-1.841-4.591-3.951-5.921a19.706,19.706,0,0,0-12.56-2.883c-2.1.234-4.448,1.048-5.229,3.016-.58,1.46-.112,3.1.359,4.6a5.912,5.912,0,0,0,1.844,3.226c2.089,1.489,5.328-.144,7.434,1.321,1.418.987,1.691,3.061,1.123,4.693a13.821,13.821,0,0,1-2.908,4.251,37.873,37.873,0,0,0-7.8,13.2c-.6,1.9-.956,4.059-.034,5.828,1.146,2.2,3.834,3.032,6.274,3.462a46.7,46.7,0,0,0,9.182.7c3.048-.07,6.765-.11,8.312,2.516a2.909,2.909,0,0,0,1.176-2.95" fill="none" stroke="#000" stroke-linecap="round" stroke-linejoin="round" stroke-width="2"/>
  </g>
</svg>
