<svg xmlns="http://www.w3.org/2000/svg" width="87.823" height="60.149" viewBox="0 0 87.823 60.149">
  <g id="Group_966" data-name="Group 966" transform="translate(0.277 0.277)">
    <path id="Path_1500" data-name="Path 1500" d="M43.913,69.677H1V60.4a21.456,21.456,0,0,1,42.912,0" transform="translate(-0.278 -10.805)" fill="none" stroke="#000" stroke-linecap="round" stroke-linejoin="round" stroke-width="2"/>
    <path id="Path_1501" data-name="Path 1501" d="M37.873,12.929A11.93,11.93,0,1,0,25.943,24.859,11.929,11.929,0,0,0,37.873,12.929Z" transform="translate(-3.888 -0.277)" fill="none" stroke="#000" stroke-linecap="round" stroke-linejoin="round" stroke-width="2"/>
    <path id="Path_1502" data-name="Path 1502" d="M67.73,44.24A21.457,21.457,0,0,1,103.3,60.4v9.28H60.393" transform="translate(-16.758 -10.805)" fill="none" stroke="#000" stroke-linecap="round" stroke-linejoin="round" stroke-width="2"/>
    <path id="Path_1503" data-name="Path 1503" d="M97.266,12.929A11.93,11.93,0,1,0,85.336,24.859,11.929,11.929,0,0,0,97.266,12.929Z" transform="translate(-20.369 -0.277)" fill="none" stroke="#000" stroke-linecap="round" stroke-linejoin="round" stroke-width="2"/>
  </g>
</svg>
