<svg xmlns="http://www.w3.org/2000/svg" xmlns:xlink="http://www.w3.org/1999/xlink" width="87.244" height="61.865" viewBox="0 0 87.244 61.865">
  <defs>
    <clipPath id="clip-path">
      <rect id="Rectangle_311" data-name="Rectangle 311" width="87.244" height="61.865" fill="none"/>
    </clipPath>
  </defs>
  <g id="Group_953" data-name="Group 953" transform="translate(0 0)">
    <g id="Group_952" data-name="Group 952" transform="translate(0 0)" clip-path="url(#clip-path)">
      <path id="Path_1478" data-name="Path 1478" d="M46.259,29.243C53,44.521,43.9,63.331,43.9,63.331S23.88,57.368,17.14,42.09,19.495,8,19.495,8s20.024,5.962,26.764,21.24" transform="translate(-4.452 -2.432)" fill="#fff"/>
      <path id="Path_1479" data-name="Path 1479" d="M46.259,29.243C53,44.521,43.9,63.331,43.9,63.331S23.88,57.368,17.14,42.09,19.495,8,19.495,8,39.519,13.965,46.259,29.243Z" transform="translate(-4.452 -2.432)" fill="none" stroke="#000" stroke-linecap="round" stroke-linejoin="round" stroke-width="2"/>
      <path id="Path_1480" data-name="Path 1480" d="M64.178,29.243c-6.741,15.278,2.355,34.088,2.355,34.088S86.557,57.368,93.3,42.09,90.942,8,90.942,8s-20.024,5.962-26.764,21.24" transform="translate(-18.742 -2.432)" fill="#fff"/>
      <path id="Path_1481" data-name="Path 1481" d="M64.178,29.243c-6.741,15.278,2.355,34.088,2.355,34.088S86.557,57.368,93.3,42.09,90.942,8,90.942,8,70.918,13.965,64.178,29.243Z" transform="translate(-18.742 -2.432)" fill="none" stroke="#000" stroke-linecap="round" stroke-linejoin="round" stroke-width="2"/>
      <path id="Path_1482" data-name="Path 1482" d="M33.715,36.414C45.523,48.223,43.843,69.048,43.843,69.048S23.018,70.728,11.209,58.92,1.082,26.287,1.082,26.287s20.825-1.681,32.633,10.127" transform="translate(-0.304 -7.961)" fill="#fff"/>
      <path id="Path_1483" data-name="Path 1483" d="M33.715,36.414C45.523,48.223,43.843,69.048,43.843,69.048S23.018,70.728,11.209,58.92,1.082,26.287,1.082,26.287,21.907,24.606,33.715,36.414Z" transform="translate(-0.304 -7.961)" fill="none" stroke="#000" stroke-linecap="round" stroke-linejoin="round" stroke-width="2"/>
      <path id="Path_1484" data-name="Path 1484" d="M72.867,36.414C61.059,48.223,62.74,69.048,62.74,69.048S83.565,70.728,95.373,58.92,105.5,26.287,105.5,26.287,84.676,24.606,72.867,36.414" transform="translate(-19.036 -7.961)" fill="#fff"/>
      <path id="Path_1485" data-name="Path 1485" d="M72.867,36.414C61.059,48.223,62.74,69.048,62.74,69.048S83.565,70.728,95.373,58.92,105.5,26.287,105.5,26.287,84.676,24.606,72.867,36.414Z" transform="translate(-19.036 -7.961)" fill="none" stroke="#000" stroke-linecap="round" stroke-linejoin="round" stroke-width="2"/>
      <path id="Path_1486" data-name="Path 1486" d="M71.627,31.236c0,16.7-15.914,30.236-15.914,30.236S39.8,47.935,39.8,31.236,55.713,1,55.713,1,71.627,14.537,71.627,31.236" transform="translate(-12.091 -0.304)" fill="#fff"/>
      <path id="Path_1487" data-name="Path 1487" d="M71.627,31.236c0,16.7-15.914,30.236-15.914,30.236S39.8,47.935,39.8,31.236,55.713,1,55.713,1,71.627,14.537,71.627,31.236Z" transform="translate(-12.091 -0.304)" fill="none" stroke="#000" stroke-linecap="round" stroke-linejoin="round" stroke-width="2"/>
    </g>
  </g>
</svg>
