<svg xmlns="http://www.w3.org/2000/svg" xmlns:xlink="http://www.w3.org/1999/xlink" width="110.388" height="80.983" viewBox="0 0 110.388 80.983">
  <defs>
    <clipPath id="clip-path">
      <rect id="Rectangle_308" data-name="Rectangle 308" width="110.388" height="80.983" fill="none"/>
    </clipPath>
  </defs>
  <g id="Group_946" data-name="Group 946" transform="translate(0 0)">
    <g id="Group_945" data-name="Group 945" transform="translate(0 0)" clip-path="url(#clip-path)">
      <path id="Path_1459" data-name="Path 1459" d="M62.657,75.332h0a9.4,9.4,0,0,1-12.586.645l-35.2-28.64a2.533,2.533,0,0,1-.12-3.694L31.2,27.195a2.534,2.534,0,0,1,3.706.134L63.345,62.8a9.406,9.406,0,0,1-.687,12.534" transform="translate(0.968 1.827)" fill="#face37"/>
      <path id="Path_1460" data-name="Path 1460" d="M62.657,75.332h0a9.4,9.4,0,0,1-12.586.645l-35.2-28.64a2.533,2.533,0,0,1-.12-3.694L31.2,27.195a2.534,2.534,0,0,1,3.706.134L63.345,62.8A9.406,9.406,0,0,1,62.657,75.332Z" transform="translate(0.968 1.827)" fill="none" stroke="#000" stroke-linecap="round" stroke-linejoin="round" stroke-width="2"/>
      <path id="Path_1461" data-name="Path 1461" d="M16.165,15.592a7.406,7.406,0,0,0-1.173,1.542c-.059-.064-.112-.131-.175-.194A7.372,7.372,0,0,0,4.391,27.365c.052.052.109.1.162.146a7.37,7.37,0,1,0,11.179,6.53l5.209,5.209,5.876-5.877L21.61,28.166a7.369,7.369,0,1,0-5.445-12.574" transform="translate(0.069 0.928)" fill="#7aba49"/>
      <path id="Path_1462" data-name="Path 1462" d="M16.165,15.592a7.406,7.406,0,0,0-1.173,1.542c-.059-.064-.112-.131-.175-.194A7.372,7.372,0,0,0,4.391,27.365c.052.052.109.1.162.146a7.37,7.37,0,1,0,11.179,6.53l5.209,5.209,5.876-5.877L21.61,28.166a7.369,7.369,0,1,0-5.445-12.574Z" transform="translate(0.069 0.928)" fill="none" stroke="#000" stroke-linecap="round" stroke-linejoin="round" stroke-width="2"/>
      <line id="Line_300" data-name="Line 300" y1="6.83" x2="6.83" transform="translate(20.55 46.168)" fill="#fff"/>
      <line id="Line_301" data-name="Line 301" y1="6.83" x2="6.83" transform="translate(20.55 46.168)" fill="none" stroke="#000" stroke-linecap="round" stroke-linejoin="round" stroke-width="2"/>
      <line id="Line_302" data-name="Line 302" y1="6.83" x2="6.83" transform="translate(49.321 54.087)" fill="#fff"/>
      <line id="Line_303" data-name="Line 303" y1="6.83" x2="6.83" transform="translate(49.321 54.087)" fill="none" stroke="#000" stroke-linecap="round" stroke-linejoin="round" stroke-width="2"/>
      <line id="Line_304" data-name="Line 304" y1="10.426" x2="10.426" transform="translate(41.099 49.462)" fill="#fff"/>
      <line id="Line_305" data-name="Line 305" y1="10.426" x2="10.426" transform="translate(41.099 49.462)" fill="none" stroke="#000" stroke-linecap="round" stroke-linejoin="round" stroke-width="2"/>
      <path id="Path_1463" data-name="Path 1463" d="M89.064,37.99c-8.367,0-15.15-8.372-15.15-8.372s6.783-8.372,15.15-8.372,15.15,8.372,15.15,8.372S97.43,37.99,89.064,37.99" transform="translate(5.105 1.468)" fill="#7aba49"/>
      <path id="Path_1464" data-name="Path 1464" d="M89.064,37.99c-8.367,0-15.15-8.372-15.15-8.372s6.783-8.372,15.15-8.372,15.15,8.372,15.15,8.372S97.43,37.99,89.064,37.99Z" transform="translate(5.105 1.468)" fill="none" stroke="#000" stroke-linecap="round" stroke-linejoin="round" stroke-width="2"/>
      <line id="Line_306" data-name="Line 306" x1="30.3" transform="translate(79.02 31.086)" fill="#fff"/>
      <line id="Line_307" data-name="Line 307" x1="30.3" transform="translate(79.02 31.086)" fill="none" stroke="#000" stroke-linecap="round" stroke-linejoin="round" stroke-width="2"/>
      <path id="Path_1465" data-name="Path 1465" d="M82.715,44.34c0-8.367-8.372-15.15-8.372-15.15s-8.372,6.783-8.372,15.15,8.372,15.15,8.372,15.15,8.372-6.783,8.372-15.15" transform="translate(4.557 2.016)" fill="#7aba49"/>
      <path id="Path_1466" data-name="Path 1466" d="M82.715,44.34c0-8.367-8.372-15.15-8.372-15.15s-8.372,6.783-8.372,15.15,8.372,15.15,8.372,15.15S82.715,52.706,82.715,44.34Z" transform="translate(4.557 2.016)" fill="none" stroke="#000" stroke-linecap="round" stroke-linejoin="round" stroke-width="2"/>
      <line id="Line_308" data-name="Line 308" y1="30.3" transform="translate(78.899 31.206)" fill="#fff"/>
      <line id="Line_309" data-name="Line 309" y1="30.3" transform="translate(78.899 31.206)" fill="none" stroke="#000" stroke-linecap="round" stroke-linejoin="round" stroke-width="2"/>
      <line id="Line_310" data-name="Line 310" x2="10.97" transform="translate(7.858 72.213)" fill="#fff"/>
      <line id="Line_311" data-name="Line 311" x2="10.97" transform="translate(7.858 72.213)" fill="none" stroke="#000" stroke-linecap="round" stroke-linejoin="round" stroke-width="2"/>
      <line id="Line_312" data-name="Line 312" y2="10.97" transform="translate(13.343 66.728)" fill="#fff"/>
      <line id="Line_313" data-name="Line 313" y2="10.97" transform="translate(13.343 66.728)" fill="none" stroke="#000" stroke-linecap="round" stroke-linejoin="round" stroke-width="2"/>
      <path id="Path_1467" data-name="Path 1467" d="M66.553,1a9.772,9.772,0,0,0-9.607,8h-.338a9.772,9.772,0,0,0-19.382,1.777c0,10.665,19.551,22.883,19.551,22.883S76.328,21.441,76.328,10.776A9.776,9.776,0,0,0,66.553,1" transform="translate(2.571 0.069)" fill="#ed207a"/>
      <path id="Path_1468" data-name="Path 1468" d="M66.553,1a9.772,9.772,0,0,0-9.607,8h-.338a9.772,9.772,0,0,0-19.382,1.777c0,10.665,19.551,22.883,19.551,22.883S76.328,21.441,76.328,10.776A9.776,9.776,0,0,0,66.553,1Z" transform="translate(2.571 0.069)" fill="none" stroke="#000" stroke-linecap="round" stroke-linejoin="round" stroke-width="2"/>
      <line id="Line_314" data-name="Line 314" x2="8.651" transform="translate(55.023 18.462)" fill="#fff"/>
      <line id="Line_315" data-name="Line 315" x2="8.651" transform="translate(55.023 18.462)" fill="none" stroke="#000" stroke-linecap="round" stroke-linejoin="round" stroke-width="2"/>
      <line id="Line_316" data-name="Line 316" y2="8.651" transform="translate(59.348 14.137)" fill="#fff"/>
      <line id="Line_317" data-name="Line 317" y2="8.651" transform="translate(59.348 14.137)" fill="none" stroke="#000" stroke-linecap="round" stroke-linejoin="round" stroke-width="2"/>
    </g>
  </g>
</svg>
