<svg xmlns="http://www.w3.org/2000/svg" xmlns:xlink="http://www.w3.org/1999/xlink" width="106.795" height="36.087" viewBox="0 0 106.795 36.087">
  <defs>
    <clipPath id="clip-path">
      <rect id="Rectangle_27" data-name="Rectangle 27" width="106.795" height="36.087"/>
    </clipPath>
  </defs>
  <g id="Group_268" data-name="Group 268" transform="translate(0 0)">
    <g id="Group_60" data-name="Group 60" transform="translate(0 0)" clip-path="url(#clip-path)">
      <path id="Path_39" data-name="Path 39" d="M204.172,68.523a2.339,2.339,0,0,1,.193-.947,2.478,2.478,0,0,1,1.3-1.3,2.412,2.412,0,0,1,1.894,0,2.478,2.478,0,0,1,1.3,1.3,2.419,2.419,0,0,1,0,1.894,2.478,2.478,0,0,1-1.3,1.3,2.418,2.418,0,0,1-1.894,0,2.478,2.478,0,0,1-1.3-1.3,2.339,2.339,0,0,1-.193-.947m.668,0a1.877,1.877,0,0,0,.138.718,1.815,1.815,0,0,0,.38.587,1.87,1.87,0,0,0,.564.4,1.68,1.68,0,0,0,1.376,0,1.867,1.867,0,0,0,.563-.4,1.816,1.816,0,0,0,.38-.587,1.936,1.936,0,0,0,0-1.435,1.816,1.816,0,0,0-.38-.587,1.869,1.869,0,0,0-.563-.4,1.68,1.68,0,0,0-1.376,0,1.871,1.871,0,0,0-.564.4,1.815,1.815,0,0,0-.38.587,1.875,1.875,0,0,0-.138.717m.833-1.3h.9c.069,0,.166,0,.288.013a1.062,1.062,0,0,1,.36.092.808.808,0,0,1,.308.246.759.759,0,0,1,.131.475.861.861,0,0,1-.052.324.629.629,0,0,1-.134.21.551.551,0,0,1-.19.125.893.893,0,0,1-.22.056l.656,1.016h-.688l-.583-.983h-.111v.983h-.668Zm.662,1.062h.269c.039,0,.082,0,.128-.007a.4.4,0,0,0,.128-.033.236.236,0,0,0,.1-.082.322.322,0,0,0,0-.308.239.239,0,0,0-.1-.082.4.4,0,0,0-.128-.033c-.046,0-.088-.007-.128-.007h-.269Z" transform="translate(-107.744 -34.874)"/>
      <path id="Path_40" data-name="Path 40" d="M18.18,11.4a7.213,7.213,0,0,0-3.777-1,7.562,7.562,0,0,0-7.151,4.523V10.975H2.339A2.339,2.339,0,0,0,0,13.315V36H4.912a2.339,2.339,0,0,0,2.339-2.339v-9.4c0-5.18,2.117-7.3,5.619-7.3a6.921,6.921,0,0,1,.86.052A14.853,14.853,0,0,1,18.18,11.4" transform="translate(0 -5.49)"/>
      <path id="Path_41" data-name="Path 41" d="M46.54,32.832a2.339,2.339,0,0,0,2.152,3.255H96.574a18.748,18.748,0,0,0,13.02-5.065,17.505,17.505,0,0,0,3.972-5.659l.171-.4,6.253-14.694c1.12-2.5,2.218-5.077,3.033-7.027A2.339,2.339,0,0,0,120.864,0H72.94A18.748,18.748,0,0,0,59.92,5.065a17.492,17.492,0,0,0-3.879,5.462,13.635,13.635,0,0,0-11.3-5.615c-7.66,0-13.642,5.531-13.642,13.119,0,7.567,5.951,13.095,13.582,13.123l1.941-4.572a1.172,1.172,0,0,0-1.214-1.618q-.326.033-.667.033a5.906,5.906,0,0,1-5.693-4.074h12.56ZM39.048,15.31a5.673,5.673,0,0,1,5.693-4.124,5.647,5.647,0,0,1,5.67,4.124ZM73.3,24.974a5.791,5.791,0,0,0,4.059-1.517A1.177,1.177,0,0,1,79,23.469l3.1,3.1a1.174,1.174,0,0,1-.123,1.762A14.122,14.122,0,0,1,73.3,31.175c-7.66,0-13.642-5.544-13.642-13.131S65.642,4.912,73.3,4.912A14.122,14.122,0,0,1,81.976,7.76,1.174,1.174,0,0,1,82.1,9.522l-3.1,3.1a1.177,1.177,0,0,1-1.641.011A5.791,5.791,0,0,0,73.3,11.113c-3.793,0-6.128,2.918-6.128,6.93s2.335,6.93,6.128,6.93m22.954,6.2c-7.66,0-13.643-5.544-13.643-13.131S88.6,4.912,96.255,4.912,109.9,10.457,109.9,18.044s-5.982,13.131-13.642,13.131" transform="translate(-16.411 0)"/>
      <path id="Path_42" data-name="Path 42" d="M162.21,23.531c-3.793,0-6.128,2.918-6.128,6.93s2.335,6.93,6.128,6.93,6.128-2.918,6.128-6.93-2.335-6.93-6.128-6.93" transform="translate(-82.366 -12.417)"/>
    </g>
  </g>
</svg>
