<svg xmlns="http://www.w3.org/2000/svg" width="66.406" height="66.286" viewBox="0 0 66.406 66.286">
  <g id="Group_1005" data-name="Group 1005" transform="translate(0.998 1)">
    <g id="Group_1001" data-name="Group 1001" transform="translate(0.001)">
      <path id="Path_358" data-name="Path 358" d="M32.143,5.852c8.562,0,9.586,0,12.97.189a17.439,17.439,0,0,1,5.959,1.106,10.666,10.666,0,0,1,6.081,6.081,17.437,17.437,0,0,1,1.106,5.959c.162,3.384.189,4.409.189,12.97s0,9.586-.189,12.97a17.437,17.437,0,0,1-1.106,5.959,10.665,10.665,0,0,1-6.081,6.081,17.434,17.434,0,0,1-5.959,1.106c-3.384.162-4.4.189-12.97.189s-9.586,0-12.97-.189a17.436,17.436,0,0,1-5.959-1.106A10.665,10.665,0,0,1,7.2,51.073a17.439,17.439,0,0,1-1.106-5.959c-.162-3.384-.189-4.409-.189-12.97s0-9.586.189-12.97A17.441,17.441,0,0,1,7.2,13.213,10.665,10.665,0,0,1,13.213,7.2a17.435,17.435,0,0,1,5.959-1.106c3.384-.162,4.409-.189,12.97-.189m0-5.784c-8.71,0-9.8,0-13.227.189a23.581,23.581,0,0,0-7.793,1.5,16.314,16.314,0,0,0-9.438,9.438,23.582,23.582,0,0,0-1.5,7.793C.04,22.462,0,23.554,0,32.264s0,9.8.189,13.227a23.582,23.582,0,0,0,1.618,7.672A16.314,16.314,0,0,0,11.245,62.6a23.587,23.587,0,0,0,7.793,1.5c3.425.148,4.517.189,13.227.189s9.8,0,13.227-.189a23.585,23.585,0,0,0,7.793-1.5,16.313,16.313,0,0,0,9.438-9.438,23.578,23.578,0,0,0,1.5-7.793c.148-3.425.189-4.517.189-13.227s0-9.8-.189-13.227a23.578,23.578,0,0,0-1.5-7.793,16.314,16.314,0,0,0-9.438-9.438,23.582,23.582,0,0,0-7.793-1.5C42.066.04,40.974,0,32.264,0Z" transform="translate(0 0)" fill="#ed207a" stroke="#000" stroke-linecap="round" stroke-linejoin="round" stroke-width="2"/>
      <path id="Path_359" data-name="Path 359" d="M161.533,145.056a16.476,16.476,0,1,0,16.476,16.476,16.476,16.476,0,0,0-16.476-16.476m0,27.168a10.692,10.692,0,1,1,10.692-10.692,10.692,10.692,0,0,1-10.692,10.692" transform="translate(-129.39 -129.389)" fill="#ed207a" stroke="#000" stroke-linecap="round" stroke-linejoin="round" stroke-width="2"/>
      <path id="Path_360" data-name="Path 360" d="M424.3,103.362a3.856,3.856,0,1,1-3.856,3.856,3.856,3.856,0,0,1,3.856-3.856" transform="translate(-375.031 -92.198)" fill="#ed207a" stroke="#000" stroke-linecap="round" stroke-linejoin="round" stroke-width="2"/>
    </g>
  </g>
</svg>
