<svg xmlns="http://www.w3.org/2000/svg" xmlns:xlink="http://www.w3.org/1999/xlink" width="23.764" height="34.412" viewBox="0 0 23.764 34.412">
  <defs>
    <clipPath id="clip-path">
      <rect id="Rectangle_320" data-name="Rectangle 320" width="23.764" height="34.412" transform="translate(0 0)" fill="none"/>
    </clipPath>
  </defs>
  <g id="Group_997" data-name="Group 997" transform="translate(0 0)">
    <g id="Group_996" data-name="Group 996" clip-path="url(#clip-path)">
      <path id="Path_1509" data-name="Path 1509" d="M12.011,32.989l-.74-.925C1.171,19.6.875,12.64.875,12.344l.148-2a10.985,10.985,0,0,1,21.865,1.517,9.99,9.99,0,0,1-.148,1.813c-.777,6.105-9.619,17.907-10.026,18.388Z" fill="none" stroke="#000" stroke-linecap="round" stroke-miterlimit="10" stroke-width="1.75"/>
      <path id="Path_1510" data-name="Path 1510" d="M12.249,18.77a.537.537,0,0,1-.759,0L7.1,14.4a3.379,3.379,0,1,1,4.749-4.768c3.568-3.583,8.337,1.166,4.769,4.749Z" fill="#ed207a"/>
      <path id="Path_1511" data-name="Path 1511" d="M12.249,18.77a.537.537,0,0,1-.759,0L7.1,14.4a3.379,3.379,0,1,1,4.749-4.768c3.568-3.583,8.337,1.166,4.769,4.749Z" fill="none" stroke="#000" stroke-linecap="round" stroke-linejoin="round" stroke-width="1.75"/>
    </g>
  </g>
</svg>
