<svg xmlns="http://www.w3.org/2000/svg" xmlns:xlink="http://www.w3.org/1999/xlink" width="188" height="196.185" viewBox="0 0 188 196.185">
  <defs>
    <clipPath id="clip-path">
      <rect id="Rectangle_25" data-name="Rectangle 25" width="188" height="196.185" fill="none"/>
    </clipPath>
  </defs>
  <g id="Group_245" data-name="Group 245" transform="translate(378)">
    <g id="Group_53" data-name="Group 53" transform="translate(-378)" clip-path="url(#clip-path)">
      <path id="Path_10" data-name="Path 10" d="M257.1,247.973c-3.171-8.361-20.461-4.367-24.305-7.441l-1.163-1q0-.774-.008-1.536c-2.138,2.294-3.969,4.928-5.935,7.341.811,3.742,1.243,6.056,1.243,6.056a96.1,96.1,0,0,0,14.127,1.347c8.168,0,17.162-1.809,16.041-4.765" transform="translate(-69.882 -73.693)" fill="#79ac31"/>
      <path id="Path_11" data-name="Path 11" d="M257.1,247.973c-3.171-8.361-20.461-4.367-24.305-7.441l-1.163-1q0-.774-.008-1.536c-2.138,2.294-3.969,4.928-5.935,7.341.811,3.742,1.243,6.056,1.243,6.056a96.1,96.1,0,0,0,14.127,1.347C249.224,252.743,258.218,250.929,257.1,247.973Z" transform="translate(-69.882 -73.693)" fill="none" stroke="#050605" stroke-linecap="round" stroke-linejoin="round" stroke-width="2"/>
      <path id="Path_12" data-name="Path 12" d="M178.974,138.111c-11.763-17.247-48.883-15.748-60.915-22.428L98.808,127.336c7.207,3.172,53.47,13.627,66.587,25.447,10.265,9.25,18.087,41.213,21,54.678,1.966-2.413,3.8-5.046,5.935-7.341-.148-26.913-1.551-44.694-13.36-62.01" transform="translate(-30.595 -35.82)" fill="#23b9ee"/>
      <path id="Path_13" data-name="Path 13" d="M178.974,138.111c-11.763-17.247-48.883-15.748-60.915-22.428L98.808,127.336c7.207,3.172,53.47,13.627,66.587,25.447,10.265,9.25,18.087,41.213,21,54.678,1.966-2.413,3.8-5.046,5.935-7.341C192.186,173.208,190.784,155.427,178.974,138.111Z" transform="translate(-30.595 -35.82)" fill="none" stroke="#050605" stroke-linecap="round" stroke-linejoin="round" stroke-width="2"/>
      <path id="Path_14" data-name="Path 14" d="M66.972,49.058c.09.08-.039-.115,0,0" transform="translate(-20.735 -15.179)" fill="#393838"/>
      <path id="Path_15" data-name="Path 15" d="M174.96,168.735c-2.816-13.741-6.587-27.879-18.825-36.159-6.1-4.128-12.958-6.216-20-8.248-6.519-1.881-15.4-4.266-22.134-5.465l1.081-4.632a27.924,27.924,0,0,1-5.125-3.7A138.17,138.17,0,0,1,88.72,137.551c5.233,4.59,11.65,7.309,18.63,8.792q11.553,2.455,23.26,4.1c5.684.8,11.6,1.664,15.923,5.78a38.077,38.077,0,0,1,7.02,9.619c4.243,7.858,12.68,32.381,14.837,41.013.73,2.924,1.4,5.868,2,8.828a70.91,70.91,0,0,0,7.2-5.593,149.908,149.908,0,0,0-2.627-41.354" transform="translate(-27.472 -34.225)" fill="#23b9ee"/>
      <path id="Path_16" data-name="Path 16" d="M239.2,271.012c-1.586-7.928-17.3-7.207-24.073-14.127L214.118,256q.053-.626.1-1.254a70.915,70.915,0,0,1-7.2,5.594q.148.736.291,1.474.7,3.628,1.221,7.283l15.819,3.79c8.649,2.6,15.561,1.691,14.847-1.874" transform="translate(-64.103 -78.88)" fill="#79ac31"/>
      <path id="Path_17" data-name="Path 17" d="M239.2,271.012c-1.586-7.928-17.3-7.207-24.073-14.127L214.118,256q.053-.626.1-1.254a70.915,70.915,0,0,1-7.2,5.594q.148.736.291,1.474.7,3.628,1.221,7.283l15.819,3.79C233,275.48,239.913,274.576,239.2,271.012Z" transform="translate(-64.103 -78.88)" fill="none" stroke="#050605" stroke-linecap="round" stroke-linejoin="round" stroke-width="2"/>
      <path id="Path_18" data-name="Path 18" d="M100.94,91.5c-12.9-11.713-13.555-33.346-22.984-40.551-7.83,2.149-12.941-.921-13.262-1.874-1.586,2.018-3.027,3.459-3.748,5.045-1.842,4.051-1.3,10.235-1.154,15.568.193,7.118,2.592,17.493,4.469,24.361,2.164,7.918,6.436,14.208,11.7,20.606a33.175,33.175,0,0,0,3.748,3.867A138.15,138.15,0,0,0,100.94,91.5" transform="translate(-18.456 -15.196)" fill="#e10868"/>
      <path id="Path_19" data-name="Path 19" d="M100.94,91.5c-12.9-11.713-13.555-33.346-22.984-40.551-7.83,2.149-12.941-.921-13.262-1.874-1.586,2.018-3.027,3.459-3.748,5.045-1.842,4.051-1.3,10.235-1.154,15.568.193,7.118,2.592,17.493,4.469,24.361,2.164,7.918,6.436,14.208,11.7,20.606a33.175,33.175,0,0,0,3.748,3.867A138.15,138.15,0,0,0,100.94,91.5Z" transform="translate(-18.456 -15.196)" fill="none" stroke="#050605" stroke-linecap="round" stroke-linejoin="round" stroke-width="2"/>
      <path id="Path_20" data-name="Path 20" d="M106.208,95.2a27.825,27.825,0,0,1-3.885-2.634C88.2,81.153,87.678,58.378,77.955,50.949c-3.486.957-5.47.431-9.006-.371a17.065,17.065,0,0,1-2.9-.918c-.213-.09-1.354-.584-1.354-.584s-3.409,3.325-4.181,6.631c-1.268,5.43-1.033,13.588-.354,19.048a137.279,137.279,0,0,0,2.383,13.779,53.736,53.736,0,0,0,6.764,17.193c3.312,5.5,6.669,10.871,11.979,14.61a46.083,46.083,0,0,0,17.05,6.978q11.553,2.455,23.261,4.1c5.684.8,11.6,1.664,15.922,5.78a38.06,38.06,0,0,1,7.02,9.619c4.243,7.858,12.68,32.381,14.837,41.013.852,3.408,1.627,6.846,2.291,10.3q.7,3.63,1.221,7.283l15.82,3.791c8.649,2.6,15.56,1.691,14.848-1.874-1.586-7.928-17.3-7.207-24.073-14.127l-1.009-.886a149.878,149.878,0,0,0-2.527-42.608c-2.816-13.741-6.587-27.879-18.825-36.158-6.1-4.129-12.957-6.217-20-8.249-6.519-1.881-15.4-4.266-22.134-5.465" transform="translate(-18.456 -15.196)" fill="none" stroke="#050605" stroke-linecap="round" stroke-linejoin="round" stroke-width="2"/>
      <path id="Path_21" data-name="Path 21" d="M70.426,29.2c-.6,3.148-.964,5.5-2.684,7.653a.846.846,0,0,0,.234.875s4.65,5.65,12.475,1.147c-1.629-2.862-2.808-6.163-1.23-9.872,0,0,4.962.975,5.249-1.985.269-2.777.424-4.874.424-4.874s2.18-.022,1.932-.85c-.293-.98-1.417-4.184-1.514-4.808-.074-.476.541-4.9-3.075-5.927l-7.892.429s-4.886.407-4.814,4.9.895,13.318.895,13.318" transform="translate(-20.964 -3.27)" fill="#fff"/>
      <path id="Path_22" data-name="Path 22" d="M68.421,26.185c-2.549-.758-2.843-4.055-3.669-6.17-.485-1.243-1.16-2.4-1.721-3.613a11.133,11.133,0,0,1-1.067-4.6,6.091,6.091,0,0,1,.893-3.642,7.61,7.61,0,0,1,4.3-2.636c1.667-.381,3.408-.288,5.064-.729a11.651,11.651,0,0,0,4.308-2.547A4.6,4.6,0,0,1,78.861,1.01c1.124-.11,2.621.665,2.427,1.945-.483,3.181-2.9,4.969-5.408,6.752-1.21.859-3.051,1.2-3.677,2.616-.446,1.009.053,3.216.335,4.282.152.577-.329.307-.7.289a1.582,1.582,0,0,0-.866.169,1.674,1.674,0,0,0-.606.653,2.161,2.161,0,0,0,2.472,3.124.66.66,0,0,1,.217-.023c.434.055-.066,1.412-.136,1.68a7.281,7.281,0,0,1-.723,1.841,3.406,3.406,0,0,1-3.519,1.91c-.086-.019-.171-.041-.253-.065" transform="translate(-19.186 -0.31)" fill="#ffc222"/>
      <path id="Path_23" data-name="Path 23" d="M68.421,26.185c-2.549-.758-2.843-4.055-3.669-6.17-.485-1.243-1.16-2.4-1.721-3.613a11.133,11.133,0,0,1-1.067-4.6,6.091,6.091,0,0,1,.893-3.642,7.61,7.61,0,0,1,4.3-2.636c1.667-.381,3.408-.288,5.064-.729a11.651,11.651,0,0,0,4.308-2.547A4.6,4.6,0,0,1,78.861,1.01c1.124-.11,2.621.665,2.427,1.945-.483,3.181-2.9,4.969-5.408,6.752-1.21.859-3.051,1.2-3.677,2.616-.446,1.009.053,3.216.335,4.282.152.577-.329.307-.7.289a1.582,1.582,0,0,0-.866.169,1.674,1.674,0,0,0-.606.653,2.161,2.161,0,0,0,2.472,3.124.66.66,0,0,1,.217-.023c.434.055-.066,1.412-.136,1.68a7.281,7.281,0,0,1-.723,1.841,3.406,3.406,0,0,1-3.519,1.91C68.588,26.231,68.5,26.209,68.421,26.185Z" transform="translate(-19.186 -0.31)" fill="none" stroke="#050605" stroke-linecap="round" stroke-linejoin="round" stroke-width="2"/>
      <path id="Path_24" data-name="Path 24" d="M81.191,10.695c4.824.325,4.094,5.646,4.168,6.123.1.623,1.221,3.827,1.514,4.807.249.828-1.932.85-1.932.85s-.155,2.1-.424,4.874c-.287,2.962-5.249,1.985-5.249,1.985A11.513,11.513,0,0,0,79.9,39.64c-7.825,4.5-11.882-1.58-11.882-1.58-.414-.407-.234-.3-.234-.3,1.72-2.155,2.084-5.08,2.684-8.229" transform="translate(-20.978 -3.312)" fill="none" stroke="#050605" stroke-linecap="round" stroke-linejoin="round" stroke-width="2"/>
      <path id="Path_25" data-name="Path 25" d="M86.65,20.917a2.46,2.46,0,0,0,2.331-.394" transform="translate(-26.831 -6.355)" fill="none" stroke="#050605" stroke-linecap="round" stroke-linejoin="round" stroke-width="2"/>
      <path id="Path_26" data-name="Path 26" d="M34.586,90.575c-3.446,10.839-6.369,19.486-10.125,30.228-1.259,3.6-2.215,6.922-4.931,9.6-1.466,1.444-4.778,1.894-6.652,2.743a41.543,41.543,0,0,1-7.93,2.525,14.431,14.431,0,0,0-3.256,1.188c-.463.4-1.232,1.222-.113,1.929,2.747,1.735,8.493-1.807,9.7-.9.43.322-.628.761-1.109.966s-1.261.7-1.233,1.222c.016.288.767.824,2.214.89,2.683.122,4.024-1.385,6.71-1.376,1.236,0,4.079.662,5.205.15,2.525-1.148,1.717-3.615,2.989-6.081,3.526-6.832,6.257-9.924,9.539-16.754,3.382-7.035,7.593-14.52,10.843-21.625-4.054-1.7-7.664-3.193-11.856-4.7" transform="translate(-0.31 -28.046)" fill="#fff"/>
      <path id="Path_27" data-name="Path 27" d="M34.586,90.575c-3.446,10.839-6.369,19.486-10.125,30.228-1.259,3.6-2.215,6.922-4.931,9.6-1.466,1.444-4.778,1.894-6.652,2.743a41.543,41.543,0,0,1-7.93,2.525,14.431,14.431,0,0,0-3.256,1.188c-.463.4-1.232,1.222-.113,1.929,2.747,1.735,8.493-1.807,9.7-.9.43.322-.628.761-1.109.966s-1.261.7-1.233,1.222c.016.288.767.824,2.214.89,2.683.122,4.024-1.385,6.71-1.376,1.236,0,4.079.662,5.205.15,2.525-1.148,1.717-3.615,2.989-6.081,3.526-6.832,6.257-9.924,9.539-16.754,3.382-7.035,7.593-14.52,10.843-21.625C42.388,93.573,38.779,92.083,34.586,90.575Z" transform="translate(-0.31 -28.046)" fill="none" stroke="#050605" stroke-miterlimit="10" stroke-width="2"/>
      <path id="Path_28" data-name="Path 28" d="M67.177,65.367c.288-2.173.368-4.59-.971-6.325-3.656-4.737-9.568.052-11.842,3.567-1.455,2.248-2.014,5.2-2.761,7.737-.972,3.3-1.881,6.627-2.923,9.911-.024.077-.049.153-.073.229,4.193,1.508,8.235,3.285,12.288,4.989a70.789,70.789,0,0,0,6.282-20.107" transform="translate(-15.051 -17.668)" fill="#653186"/>
      <path id="Path_29" data-name="Path 29" d="M67.177,65.367c.288-2.173.368-4.59-.971-6.325-3.656-4.737-9.568.052-11.842,3.567-1.455,2.248-2.014,5.2-2.761,7.737-.972,3.3-1.881,6.627-2.923,9.911-.024.077-.049.153-.073.229,4.193,1.508,8.235,3.285,12.288,4.989A70.789,70.789,0,0,0,67.177,65.367Z" transform="translate(-15.051 -17.668)" fill="none" stroke="#050605" stroke-linecap="round" stroke-linejoin="round" stroke-width="2"/>
    </g>
  </g>
</svg>
