<svg xmlns="http://www.w3.org/2000/svg" xmlns:xlink="http://www.w3.org/1999/xlink" width="42.049" height="37.103" viewBox="0 0 42.049 37.103">
  <defs>
    <clipPath id="clip-path">
      <rect id="Rectangle_362" data-name="Rectangle 362" width="42.049" height="37.103" transform="translate(0 0)" fill="none"/>
    </clipPath>
  </defs>
  <g id="Group_1106" data-name="Group 1106" transform="translate(0 0)">
    <g id="Group_1105" data-name="Group 1105" clip-path="url(#clip-path)">
      <path id="Path_1576" data-name="Path 1576" d="M27.422,36.1h0a8.752,8.752,0,0,1-8.752-8.752V14.633h17.5V27.351A8.752,8.752,0,0,1,27.422,36.1" fill="#fff"/>
      <path id="Path_1577" data-name="Path 1577" d="M27.422,36.1h0a8.752,8.752,0,0,1-8.752-8.752V14.633h17.5V27.351A8.752,8.752,0,0,1,27.422,36.1Z" fill="none" stroke="#000" stroke-linecap="round" stroke-linejoin="round" stroke-width="2"/>
      <line id="Line_371" data-name="Line 371" x2="17.505" transform="translate(18.67 20.019)" fill="#fff"/>
      <line id="Line_372" data-name="Line 372" x2="17.505" transform="translate(18.67 20.019)" fill="none" stroke="#000" stroke-linecap="round" stroke-linejoin="round" stroke-width="2"/>
      <path id="Path_1578" data-name="Path 1578" d="M27.422,14.633V12.025a8.422,8.422,0,0,0-16.844,0v6.918a4.789,4.789,0,0,1-9.578,0V7.273" fill="none" stroke="#000" stroke-linecap="round" stroke-linejoin="round" stroke-width="2"/>
      <rect id="Rectangle_360" data-name="Rectangle 360" width="4.109" height="5.386" transform="translate(25.367 14.633)" fill="#ed207a"/>
      <rect id="Rectangle_361" data-name="Rectangle 361" width="4.109" height="5.386" transform="translate(25.367 14.633)" fill="none" stroke="#000" stroke-linecap="round" stroke-linejoin="round" stroke-width="1.75"/>
      <line id="Line_373" data-name="Line 373" y2="5.08" transform="translate(31.299 1)" fill="none" stroke="#000" stroke-linecap="round" stroke-linejoin="round" stroke-width="2"/>
      <line id="Line_374" data-name="Line 374" x1="3.592" y2="3.592" transform="translate(34.602 3.856)" fill="none" stroke="#000" stroke-linecap="round" stroke-linejoin="round" stroke-width="2"/>
      <line id="Line_375" data-name="Line 375" x1="5.08" transform="translate(35.969 10.75)" fill="none" stroke="#000" stroke-linecap="round" stroke-linejoin="round" stroke-width="2"/>
    </g>
  </g>
</svg>
