<svg id="Layer_1" data-name="Layer 1" xmlns="http://www.w3.org/2000/svg" viewBox="0 0 179 70"><defs><style>.cls-1{fill:#fff;}</style></defs><title>OGK_Logo_White</title><path class="cls-1" d="M66.8.1H3.4A3.16,3.16,0,0,0,.2,3.3V66.8A3.16,3.16,0,0,0,3.4,70H66.9a3.16,3.16,0,0,0,3.2-3.2V56.5H68.4c-1.5,0-2-.2-2.7-1.5l-2.9-5.4c-.3-.6-1.1-.6-1.6-.6h-.9v7.6H56V42.8H54.8a.63.63,0,0,0-.7.7V55.4c0,5.9-4.6,8.2-9.1,8.2a13.1,13.1,0,0,1-6.1-1.5l1.3-3.4A10.66,10.66,0,0,0,45,59.9c2.6,0,4.9-1.1,4.9-4.2V54h-.1c-1,1.5-2.5,2.2-4.8,2.2a7.34,7.34,0,0,1-7.3-5.7,9.14,9.14,0,0,1-9.1,6.4h-.1a9.08,9.08,0,0,1-9.4-9.1c0-5.3,4.2-9,9.4-9.1h0a9.33,9.33,0,0,1,9,6,7.2,7.2,0,0,1,7.4-6c4,0,5.3,2.4,5.3,2.4h.1v-.4c0-.8.5-1.6,1.9-1.6H56V36.7a.63.63,0,0,0-.7-.7H53.9V32.3H58c1.6,0,2.3.4,2.3,2V45.2h1.3c.5,0,1.3-.1,1.6-.6l3.5-5.5H70V3.3A3.22,3.22,0,0,0,66.8.1Z"/><path class="cls-1" d="M45.5,42.4c-2.6,0-4,1.9-4,4.8s1.5,5.3,4.3,5.3c2.1,0,4-1.2,4-5.1S47.9,42.4,45.5,42.4Z"/><path class="cls-1" d="M28.4,42.4a5.13,5.13,0,0,0-5.1,5.4,5.18,5.18,0,0,0,5,5.4h.1a5.4,5.4,0,0,0,0-10.8Z"/><path class="cls-1" d="M65.8,47h0A4.59,4.59,0,0,1,67,48.4l2,3.7a1,1,0,0,0,1,.6V41.3l-2.9,4.4A3.79,3.79,0,0,1,65.8,47Z"/><path class="cls-1" d="M176.7,52.8a1.8,1.8,0,1,0,1.8,1.8A1.79,1.79,0,0,0,176.7,52.8Zm0,3.3a1.47,1.47,0,0,1-1.5-1.5,1.42,1.42,0,0,1,1.5-1.5,1.5,1.5,0,0,1,0,3Z"/><path class="cls-1" d="M177.5,54.1c0-.4-.2-.6-.7-.6H176v2.1h.3v-.9h.4l.6.9h.3l-.6-.9C177.3,54.7,177.5,54.5,177.5,54.1Zm-.9.4h-.3v-.7h.5c.2,0,.5,0,.5.3S176.9,54.5,176.6,54.5Z"/><path class="cls-1" d="M81.8,39.3c1.8,0,5.7.8,5.7,3.4v1.4h-2v-.9c0-1.3-2.3-2-3.7-2a6.12,6.12,0,0,0-6.2,6.5,6.12,6.12,0,0,0,6.3,6.4,7.13,7.13,0,0,0,5.2-2.3l1,1.6A8.59,8.59,0,0,1,81.8,56a8.17,8.17,0,0,1-8.5-8.4A8.26,8.26,0,0,1,81.8,39.3Z"/><path class="cls-1" d="M90.8,42.3a.68.68,0,0,0-.7-.7H88.8V39.7H91c1.3,0,2,.5,2,1.8v1.1a6.76,6.76,0,0,1-.1,1.2H93c.8-2.4,2.6-4.3,5.1-4.3a5.53,5.53,0,0,1,.9.1v2.1a3.78,3.78,0,0,0-.8-.1c-2.3,0-4,1.8-4.7,4.2A9.27,9.27,0,0,0,93,49v6.8H90.8Z"/><path class="cls-1" d="M106.6,39.3c4.5,0,6.8,3.4,6.8,7.4a10.42,10.42,0,0,1-.1,1.1H100.9c.1,4.1,2.9,6.4,6.2,6.4a7.16,7.16,0,0,0,4.8-2l1.1,1.6a9,9,0,0,1-6,2.3,8.14,8.14,0,0,1-8.4-8.4C98.6,42.5,102.3,39.3,106.6,39.3Zm4.5,6.8c-.1-3.3-2.2-5-4.5-5a5.42,5.42,0,0,0-5.5,5Z"/><path class="cls-1" d="M124.3,45.8h.9v-.2c0-3.4-1.2-4.5-4.2-4.5-.8,0-3.1.2-3.1,1.4v1h-2.1V42c0-2.2,3.8-2.7,5.3-2.7,5.1,0,6.3,2.7,6.3,6.2v7.7a.63.63,0,0,0,.7.7h1.3v1.9h-2.2c-1.4,0-1.9-.6-1.9-1.9V52.7h-.1a5.7,5.7,0,0,1-5.3,3.5c-2.7,0-5.5-1.6-5.5-4.8C114.4,46,121.5,45.8,124.3,45.8Zm-4,8.5c3.1,0,4.9-3.2,4.9-6v-.7h-.9c-2.5,0-7.6.1-7.6,3.7C116.7,52.8,117.9,54.3,120.3,54.3Z"/><path class="cls-1" d="M130.5,41.5h-2.1V39.7h2.1V35.3h2.1v4.4h4v1.8h-4v8.2c0,3.8,2.4,4.3,3.6,4.3a2.44,2.44,0,0,0,.7-.1v2a4.13,4.13,0,0,1-.9.1c-1.9,0-5.6-.6-5.6-6V41.5Z"/><path class="cls-1" d="M140.6,42.3a.68.68,0,0,0-.7-.7h-1.3V39.7h2.3c1.4,0,2,.6,2,2V53.3a.63.63,0,0,0,.7.7h1.3v1.9h-2.3c-1.4,0-2-.6-2-2Zm0-9h2.1V36h-2.1Z"/><path class="cls-1" d="M145.8,42.3c-.2-.6-.5-.7-1.1-.7h-.3V39.7h.9c1.5,0,2,.3,2.6,1.8l3.9,10.1a13.32,13.32,0,0,1,.5,1.9h.1s.3-1.1.5-1.9l3.9-10.1c.5-1.4,1-1.8,2.5-1.8h.8v1.9h-.3a1,1,0,0,0-1.1.7l-5.2,13.5h-2.4Z"/><path class="cls-1" d="M168.1,39.3c4.5,0,6.8,3.4,6.8,7.4a10.42,10.42,0,0,1-.1,1.1H162.4c.1,4.1,2.9,6.4,6.2,6.4a7.16,7.16,0,0,0,4.8-2l1.1,1.6a9,9,0,0,1-6,2.3,8.14,8.14,0,0,1-8.4-8.4C160.2,42.5,163.8,39.3,168.1,39.3Zm4.5,6.8c-.1-3.3-2.2-5-4.5-5a5.42,5.42,0,0,0-5.5,5Z"/></svg>