<svg xmlns="http://www.w3.org/2000/svg" width="278" height="187" viewBox="0 0 278 187">
  <g id="Group_326" data-name="Group 326" transform="translate(-728 -172)">
    <g id="Group_320" data-name="Group 320">
      <g id="Group_319" data-name="Group 319">
        <g id="Recovery_House_Siebold_Addiction_1216_living_g_dinings-60mb" transform="translate(728 172)" fill="#3cc" stroke="#000" stroke-width="2">
          <rect width="278" height="187" rx="20" stroke="none"/>
          <rect x="1" y="1" width="276" height="185" rx="19" fill="none"/>
        </g>
      </g>
    </g>
    <text id="Reco_Towers" data-name="Reco Towers" transform="translate(867 304)" fill="#fff" font-size="20" font-family="Outfit-Bold, Outfit" font-weight="700"><tspan x="-56.94" y="0">Reco Towers</tspan></text>
    <g id="Group_25" data-name="Group 25" transform="translate(820.569 227)">
      <path id="Stroke_1" data-name="Stroke 1" d="M0,.5H92.862" transform="translate(0 38.264)" fill="none" stroke="#fefefe" stroke-linecap="round" stroke-miterlimit="10" stroke-width="2"/>
      <path id="Stroke_3" data-name="Stroke 3" d="M0,7.058V0H25V7.058" transform="translate(33.931 4.315)" fill="none" stroke="#fefefe" stroke-linecap="round" stroke-miterlimit="10" stroke-width="2"/>
      <g id="Group_24" data-name="Group 24" transform="translate(8 0.765)">
        <path id="Stroke_4" data-name="Stroke 4" d="M25,35V1.105A1.056,1.056,0,0,0,24,0H1A1.057,1.057,0,0,0,0,1.105v.9" transform="translate(50.931 0.235)" fill="none" stroke="#fefefe" stroke-linecap="round" stroke-miterlimit="10" stroke-width="2"/>
        <path id="Stroke_6" data-name="Stroke 6" d="M0,35V1.105A1.057,1.057,0,0,1,1,0H24a1.056,1.056,0,0,1,1,1.105v2.21" transform="translate(0.931 0.235)" fill="none" stroke="#fefefe" stroke-linecap="round" stroke-miterlimit="10" stroke-width="2"/>
        <path id="Stroke_8" data-name="Stroke 8" d="M.5,0V14.661" transform="translate(50.431 20.575)" fill="none" stroke="#fefefe" stroke-linecap="round" stroke-miterlimit="10" stroke-width="2"/>
        <path id="Stroke_10" data-name="Stroke 10" d="M.5,0V14.661" transform="translate(25.431 20.575)" fill="none" stroke="#fefefe" stroke-linecap="round" stroke-miterlimit="10" stroke-width="2"/>
        <path id="Stroke_12" data-name="Stroke 12" d="M4.529,6.187H1.068A1.069,1.069,0,0,1,0,5.118V1.068A1.068,1.068,0,0,1,1.068,0H4.529A1.068,1.068,0,0,1,5.6,1.068v4.05A1.069,1.069,0,0,1,4.529,6.187Z" transform="translate(61.225 8.191)" fill="none" stroke="#fefefe" stroke-linecap="round" stroke-miterlimit="10" stroke-width="2"/>
        <path id="Stroke_14" data-name="Stroke 14" d="M4.3,9.088H1.295A1.294,1.294,0,0,1,0,7.793V1.3A1.3,1.3,0,0,1,1.295,0H4.3A1.3,1.3,0,0,1,5.6,1.3v6.5A1.294,1.294,0,0,1,4.3,9.088Z" transform="translate(61.224 23.361)" fill="none" stroke="#fefefe" stroke-linecap="round" stroke-miterlimit="10" stroke-width="2.091"/>
        <path id="Stroke_16" data-name="Stroke 16" d="M4.53,6.187H1.068A1.069,1.069,0,0,1,0,5.118V1.068A1.068,1.068,0,0,1,1.068,0H4.53A1.068,1.068,0,0,1,5.6,1.068v4.05A1.069,1.069,0,0,1,4.53,6.187Z" transform="translate(10.632 8.191)" fill="none" stroke="#fefefe" stroke-linecap="round" stroke-miterlimit="10" stroke-width="2"/>
        <path id="Stroke_18" data-name="Stroke 18" d="M4.3,9.088H1.295A1.3,1.3,0,0,1,0,7.793V1.3A1.3,1.3,0,0,1,1.295,0H4.3A1.3,1.3,0,0,1,5.6,1.3v6.5A1.3,1.3,0,0,1,4.3,9.088Z" transform="translate(10.632 23.361)" fill="none" stroke="#fefefe" stroke-linecap="round" stroke-miterlimit="10" stroke-width="2.091"/>
        <path id="Stroke_20" data-name="Stroke 20" d="M24.587,26.949V9.328H33.21c.158,0,.218-.288.084-.4L29.915,5.888a4.811,4.811,0,0,0-3.2-1.231l-3.132-.011A7.283,7.283,0,0,0,16.986,0a7.282,7.282,0,0,0-6.6,4.646L6.71,4.675A4.807,4.807,0,0,0,3.586,5.859L.074,8.923c-.133.117-.074.4.084.4H8.827V26.949" transform="translate(21.747 8.287)" fill="none" stroke="#fefefe" stroke-linecap="round" stroke-miterlimit="10" stroke-width="2"/>
        <path id="Stroke_22" data-name="Stroke 22" d="M6.155,11.18V.633A.634.634,0,0,0,5.522,0H.633A.633.633,0,0,0,0,.633V11.18" transform="translate(35.354 24.056)" fill="none" stroke="#fefefe" stroke-linecap="round" stroke-miterlimit="10" stroke-width="2"/>
      </g>
    </g>
  </g>
</svg>
