<svg xmlns="http://www.w3.org/2000/svg" xmlns:xlink="http://www.w3.org/1999/xlink" width="37.577" height="37.577" viewBox="0 0 37.577 37.577">
  <defs>
    <clipPath id="clip-path">
      <rect id="Rectangle_216" data-name="Rectangle 216" width="37.577" height="37.577" transform="translate(0 0)" fill="none"/>
    </clipPath>
  </defs>
  <g id="Group_754" data-name="Group 754" transform="translate(0 0)">
    <g id="Group_753" data-name="Group 753" clip-path="url(#clip-path)">
      <path id="Path_1039" data-name="Path 1039" d="M27.955,14.477A13.477,13.477,0,1,0,14.478,27.954,13.477,13.477,0,0,0,27.955,14.477Z" fill="none" stroke="#000" stroke-linecap="round" stroke-linejoin="round" stroke-width="2"/>
      <path id="Path_1040" data-name="Path 1040" d="M24.842,14.477A10.365,10.365,0,1,0,14.477,24.842,10.365,10.365,0,0,0,24.842,14.477" fill="#0cf" fill-rule="evenodd"/>
      <circle id="Ellipse_28" data-name="Ellipse 28" cx="10.365" cy="10.365" r="10.365" transform="translate(4.112 4.112)" fill="none" stroke="#000" stroke-linecap="round" stroke-linejoin="round" stroke-width="2"/>
      <path id="Path_1041" data-name="Path 1041" d="M20.584,14.477A6.107,6.107,0,0,0,14.477,8.37" fill="#0cf" fill-rule="evenodd"/>
      <path id="Path_1042" data-name="Path 1042" d="M20.584,14.477A6.107,6.107,0,0,0,14.477,8.37" fill="none" stroke="#fff" stroke-linecap="round" stroke-linejoin="round" stroke-width="2"/>
      <path id="Path_1043" data-name="Path 1043" d="M35.836,35.836h0a2.532,2.532,0,0,1-3.581,0l-5.344-5.344a2.532,2.532,0,0,1,3.581-3.581l5.344,5.344A2.532,2.532,0,0,1,35.836,35.836Z" fill="none" stroke="#000" stroke-linecap="round" stroke-linejoin="round" stroke-width="2"/>
      <line id="Line_262" data-name="Line 262" x2="2.255" y2="2.255" transform="translate(24.656 24.656)" fill="none" stroke="#000" stroke-linecap="round" stroke-linejoin="round" stroke-width="2"/>
    </g>
  </g>
</svg>
