<svg xmlns="http://www.w3.org/2000/svg" width="20.939" height="20.939" viewBox="0 0 20.939 20.939">
  <g id="Star" transform="translate(-0.367)" fill="#face37" stroke-linecap="round" stroke-linejoin="round" stroke-miterlimit="10">
    <path d="M 15.98841094970703 19.06731986999512 L 11.32025337219238 16.48682594299316 L 10.83646297454834 16.21938705444336 L 10.3526725769043 16.48682594299316 L 5.684515476226807 19.06731986999512 L 6.588733196258545 13.52404594421387 L 6.66998291015625 13.02593612670898 L 6.317533016204834 12.66470623016357 L 2.441910982131958 8.692495346069336 L 7.752273082733154 7.88114595413208 L 8.279763221740723 7.800556182861328 L 8.50648307800293 7.317516326904297 L 10.83646297454834 2.353505373001099 L 13.16644287109375 7.317516326904297 L 13.39316272735596 7.800556182861328 L 13.92065334320068 7.88114595413208 L 19.23101425170898 8.692495346069336 L 15.355393409729 12.66470623016357 L 15.00294303894043 13.02593612670898 L 15.08419322967529 13.52404594421387 L 15.98841094970703 19.06731986999512 Z" stroke="none"/>
    <path d="M 14.6699275970459 17.19585800170898 L 14.097243309021 13.68503570556641 C 13.99504280090332 13.05852603912354 14.19633293151855 12.42070579528809 14.6396427154541 11.96635627746582 L 17.15618515014648 9.387096405029297 L 13.76961326599121 8.869675636291504 C 13.11030292510986 8.768936157226562 12.54459285736084 8.346176147460938 12.26120281219482 7.742405891418457 L 10.83646297454834 4.707004547119141 L 9.411723136901855 7.742405891418457 C 9.12833309173584 8.346176147460938 8.562623023986816 8.768936157226562 7.903313159942627 8.869675636291504 L 4.516741275787354 9.387096405029297 L 7.03328275680542 11.96635627746582 C 7.476593017578125 12.42070579528809 7.677883148193359 13.05852603912354 7.575683116912842 13.68503570556641 L 7.002998352050781 17.19585800170898 L 9.86888313293457 15.6116361618042 C 10.47100257873535 15.27879619598389 11.20192337036133 15.27879619598389 11.80404281616211 15.6116361618042 L 14.6699275970459 17.19585800170898 M 17.30690383911133 20.93877601623535 L 10.83646297454834 17.36200523376465 L 4.366023063659668 20.93877601623535 L 5.601772785186768 13.36305618286133 L 0.3670729696750641 7.997896194458008 L 7.601243019104004 6.892616271972656 L 10.83646297454834 -3.899231160175987e-06 L 14.07168292999268 6.892616271972656 L 21.30585289001465 7.997896194458008 L 16.07115364074707 13.36305618286133 L 17.30690383911133 20.93877601623535 Z" stroke="none" fill="#000"/>
  </g>
</svg>
