<svg xmlns="http://www.w3.org/2000/svg" xmlns:xlink="http://www.w3.org/1999/xlink" width="278" height="163" viewBox="0 0 278 163">
  <defs>
    <clipPath id="clip-path">
      <rect id="Rectangle_307" data-name="Rectangle 307" width="85.599" height="88.236" fill="none"/>
    </clipPath>
  </defs>
  <g id="Group_1143" data-name="Group 1143" transform="translate(-434 -1085)">
    <path id="Path_1617" data-name="Path 1617" d="M20,0H258a20,20,0,0,1,20,20V163H0V20A20,20,0,0,1,20,0Z" transform="translate(434 1085)" fill="#ed207a"/>
    <g id="Group_944" data-name="Group 944" transform="translate(529.783 1121.992)">
      <g id="Group_944-2" data-name="Group 944" clip-path="url(#clip-path)">
        <path id="Path_1433" data-name="Path 1433" d="M33.05,0c-4.565,0-8.619,4.018-9.994,9.821A9.591,9.591,0,0,0,19.823,9.8a8.445,8.445,0,0,0-5.888,4.06,10.725,10.725,0,0,0-1.427,5.958c-.18.021-.362.028-.539.059a8.442,8.442,0,0,0-5.887,4.06c-2.045,3.417-1.82,8.045.213,11.963A9.655,9.655,0,0,0,.34,42.538a11.992,11.992,0,0,0,3.388,11.31c-.008.01-.019.016-.027.026a10.441,10.441,0,0,0-1.833,5.2A11.492,11.492,0,0,0,10.62,70.79c.794,9.806,7.949,17.446,16.421,17.446,8.59,0,15.666-7.706,16.433-17.509a.739.739,0,0,0,.073-.313V14.124C43.546,6.336,38.837,0,33.05,0" transform="translate(-0.001)" fill="#fff"/>
        <path id="Path_1434" data-name="Path 1434" d="M27.439,10.544C28.609,4.961,32.358.876,36.8.876c5.38,0,9.741,5.985,9.741,13.368V70.533" transform="translate(-3.754 -0.12)" fill="none" stroke="#000" stroke-linecap="round" stroke-linejoin="round" stroke-width="1.75"/>
        <path id="Path_1435" data-name="Path 1435" d="M15.4,22.154A10.221,10.221,0,0,1,16.683,15.9c2.761-4.615,8.906-5.126,13.725-1.139" transform="translate(-2.1 -1.652)" fill="none" stroke="#000" stroke-linecap="round" stroke-linejoin="round" stroke-width="1.75"/>
        <path id="Path_1436" data-name="Path 1436" d="M44.587,79.889c0,10.229-7.051,18.521-15.751,18.521-8.276,0-15.062-7.507-15.7-17.047" transform="translate(-1.797 -10.929)" fill="none" stroke="#000" stroke-linecap="round" stroke-linejoin="round" stroke-width="1.75"/>
        <path id="Path_1437" data-name="Path 1437" d="M19.769,77.389a10.681,10.681,0,0,1-6.849,1.593,10.808,10.808,0,0,1-9.89-11.251,9.626,9.626,0,0,1,1.7-4.82" transform="translate(-0.411 -8.607)" fill="none" stroke="#000" stroke-linecap="round" stroke-linejoin="round" stroke-width="1.75"/>
        <path id="Path_1438" data-name="Path 1438" d="M8.848,61.928C3.214,59.9-.214,53.883,1.19,48.485A8.9,8.9,0,0,1,7.5,42.078" transform="translate(-0.12 -5.757)" fill="none" stroke="#000" stroke-linecap="round" stroke-linejoin="round" stroke-width="1.75"/>
        <path id="Path_1439" data-name="Path 1439" d="M11.307,43.153C6.488,39.167,4.821,32.192,7.584,27.577s8.907-5.127,13.726-1.14" transform="translate(-0.855 -3.249)" fill="none" stroke="#000" stroke-linecap="round" stroke-linejoin="round" stroke-width="1.75"/>
        <path id="Path_1440" data-name="Path 1440" d="M40.163,16.521c0,4.786-3.3,8.665-7.368,8.665" transform="translate(-4.487 -2.26)" fill="none" stroke="#000" stroke-linecap="round" stroke-linejoin="round" stroke-width="1.75"/>
        <path id="Path_1441" data-name="Path 1441" d="M34.2,82.36c-2.607-5.664-.816-12.742,4-15.806" transform="translate(-4.515 -9.105)" fill="none" stroke="#000" stroke-linecap="round" stroke-linejoin="round" stroke-width="1.75"/>
        <path id="Path_1442" data-name="Path 1442" d="M32.263,71.305c-4.817,3.065-10.835.959-13.442-4.705" transform="translate(-2.575 -9.111)" fill="none" stroke="#000" stroke-linecap="round" stroke-linejoin="round" stroke-width="1.75"/>
        <path id="Path_1443" data-name="Path 1443" d="M31.923,37.836c-2.524,3.953-7.3,4.753-10.658,1.785" transform="translate(-2.909 -5.176)" fill="none" stroke="#000" stroke-linecap="round" stroke-linejoin="round" stroke-width="1.75"/>
        <path id="Path_1444" data-name="Path 1444" d="M24.018,52.816c-1.375-4.672.73-9.77,4.7-11.386" transform="translate(-3.228 -5.668)" fill="none" stroke="#000" stroke-linecap="round" stroke-linejoin="round" stroke-width="1.75"/>
        <path id="Path_1445" data-name="Path 1445" d="M39.543,50.452c4.693-.147,8.6,4.208,8.723,9.726" transform="translate(-5.41 -6.902)" fill="none" stroke="#000" stroke-linecap="round" stroke-linejoin="round" stroke-width="1.75"/>
        <path id="Path_1446" data-name="Path 1446" d="M48.72,14.124V70.413a.736.736,0,0,0,.073.313c.767,9.8,7.842,17.509,16.432,17.509,8.473,0,15.629-7.64,16.422-17.446A11.492,11.492,0,0,0,90.4,59.071a10.441,10.441,0,0,0-1.833-5.2c-.009-.01-.02-.016-.027-.026a11.992,11.992,0,0,0,3.387-11.31A9.648,9.648,0,0,0,85.97,35.9c2.033-3.919,2.259-8.546.214-11.963a8.436,8.436,0,0,0-5.888-4.06c-.177-.031-.359-.039-.539-.059a10.712,10.712,0,0,0-1.427-5.959A8.442,8.442,0,0,0,72.442,9.8a9.609,9.609,0,0,0-3.232.019C67.835,4.018,63.781,0,59.216,0c-5.789,0-10.5,6.337-10.5,14.124" transform="translate(-6.665)" fill="#fff"/>
        <path id="Path_1447" data-name="Path 1447" d="M68.7,10.544C67.53,4.961,63.781.876,59.336.876c-5.38,0-9.741,5.985-9.741,13.368V70.533" transform="translate(-6.785 -0.12)" fill="none" stroke="#000" stroke-linecap="round" stroke-linejoin="round" stroke-width="1.75"/>
        <path id="Path_1448" data-name="Path 1448" d="M81.375,22.154A10.221,10.221,0,0,0,80.1,15.9c-2.761-4.615-8.906-5.126-13.725-1.139" transform="translate(-9.08 -1.652)" fill="none" stroke="#000" stroke-linecap="round" stroke-linejoin="round" stroke-width="1.75"/>
        <path id="Path_1449" data-name="Path 1449" d="M49.594,79.889c0,10.229,7.051,18.521,15.751,18.521,8.276,0,15.062-7.507,15.7-17.047" transform="translate(-6.785 -10.929)" fill="none" stroke="#000" stroke-linecap="round" stroke-linejoin="round" stroke-width="1.75"/>
        <path id="Path_1450" data-name="Path 1450" d="M76.74,77.389a10.681,10.681,0,0,0,6.849,1.593,10.808,10.808,0,0,0,9.89-11.251,9.626,9.626,0,0,0-1.7-4.82" transform="translate(-10.499 -8.607)" fill="none" stroke="#000" stroke-linecap="round" stroke-linejoin="round" stroke-width="1.75"/>
        <path id="Path_1451" data-name="Path 1451" d="M89.055,61.928c5.634-2.027,9.063-8.045,7.658-13.443A8.9,8.9,0,0,0,90.4,42.078" transform="translate(-12.183 -5.757)" fill="none" stroke="#000" stroke-linecap="round" stroke-linejoin="round" stroke-width="1.75"/>
        <path id="Path_1452" data-name="Path 1452" d="M85.473,43.153c4.818-3.986,6.485-10.961,3.723-15.576s-8.907-5.127-13.726-1.14" transform="translate(-10.325 -3.249)" fill="none" stroke="#000" stroke-linecap="round" stroke-linejoin="round" stroke-width="1.75"/>
        <path id="Path_1453" data-name="Path 1453" d="M57.835,16.521c0,4.786,3.3,8.665,7.368,8.665" transform="translate(-7.912 -2.26)" fill="none" stroke="#000" stroke-linecap="round" stroke-linejoin="round" stroke-width="1.75"/>
        <path id="Path_1454" data-name="Path 1454" d="M64.144,82.36c2.607-5.664.816-12.742-4-15.806" transform="translate(-8.228 -9.105)" fill="none" stroke="#000" stroke-linecap="round" stroke-linejoin="round" stroke-width="1.75"/>
        <path id="Path_1455" data-name="Path 1455" d="M64.773,71.305c4.817,3.065,10.835.959,13.442-4.705" transform="translate(-8.861 -9.111)" fill="none" stroke="#000" stroke-linecap="round" stroke-linejoin="round" stroke-width="1.75"/>
        <path id="Path_1456" data-name="Path 1456" d="M65.554,37.836c2.524,3.953,7.3,4.753,10.658,1.785" transform="translate(-8.968 -5.176)" fill="none" stroke="#000" stroke-linecap="round" stroke-linejoin="round" stroke-width="1.75"/>
        <path id="Path_1457" data-name="Path 1457" d="M74.336,52.816c1.375-4.672-.73-9.77-4.7-11.386" transform="translate(-9.526 -5.668)" fill="none" stroke="#000" stroke-linecap="round" stroke-linejoin="round" stroke-width="1.75"/>
        <path id="Path_1458" data-name="Path 1458" d="M58.241,50.452c-4.693-.147-8.6,4.208-8.723,9.726" transform="translate(-6.774 -6.902)" fill="none" stroke="#000" stroke-linecap="round" stroke-linejoin="round" stroke-width="1.75"/>
      </g>
    </g>
  </g>
</svg>
