<svg xmlns="http://www.w3.org/2000/svg" width="21.778" height="25.702" viewBox="0 0 21.778 25.702">
  <g id="Group_20" data-name="Group 20" transform="translate(-1118.25 -988.243)">
    <path id="Path_65" data-name="Path 65" d="M-216.923,1005.882a.8.8,0,0,1-.566-.234l-.76-.76a.8.8,0,0,1,0-1.132.8.8,0,0,1,1.133,0l.76.76a.8.8,0,0,1,0,1.132A.8.8,0,0,1-216.923,1005.882Z" transform="translate(1343.434 7.564)" fill="#fff" stroke="#fff" stroke-width="1"/>
    <path id="Path_66" data-name="Path 66" d="M-209.694,1005.882a.8.8,0,0,1-.567-.234.8.8,0,0,1,0-1.132l.76-.76a.8.8,0,0,1,1.133,0,.8.8,0,0,1,0,1.132l-.76.76A.8.8,0,0,1-209.694,1005.882Z" transform="translate(1341.104 7.564)" fill="#fff" stroke="#fff" stroke-width="1"/>
    <path id="Path_72" data-name="Path 72" d="M.463,0,0,16.985" transform="translate(1128.907 995.367)" fill="none" stroke="#fff" stroke-linecap="round" stroke-width="1.5"/>
    <path id="Path_67" data-name="Path 67" d="M-216.828,981.039s-3.447-2.538-6.42-1.231-3.638,5.554-3.638,5.554S-222.12,980.528-216.828,981.039Z" transform="translate(1345.886 14.591)" fill="none" stroke="#fff" stroke-linecap="round" stroke-linejoin="round" stroke-width="1.5"/>
    <path id="Path_68" data-name="Path 68" d="M-216.607,979.072s.053-4.281-2.742-5.934-6.633.28-6.633.28S-219.277,974.474-216.607,979.072Z" transform="translate(1345.622 16.622)" fill="none" stroke="#fff" stroke-linecap="round" stroke-linejoin="round" stroke-width="1.5"/>
    <path id="Path_69" data-name="Path 69" d="M-212.457,981.039s3.448-2.538,6.42-1.231,3.638,5.554,3.638,5.554S-207.165,980.528-212.457,981.039Z" transform="translate(1341.676 14.591)" fill="none" stroke="#fff" stroke-linecap="round" stroke-linejoin="round" stroke-width="1.5"/>
    <path id="Path_70" data-name="Path 70" d="M-212.4,979.072s-.053-4.281,2.742-5.934,6.634.28,6.634.28S-209.726,974.474-212.4,979.072Z" transform="translate(1341.659 16.622)" fill="none" stroke="#fff" stroke-linecap="round" stroke-linejoin="round" stroke-width="1.5"/>
  </g>
</svg>
