<svg xmlns="http://www.w3.org/2000/svg" xmlns:xlink="http://www.w3.org/1999/xlink" width="40.319" height="33.152" viewBox="0 0 40.319 33.152">
  <defs>
    <clipPath id="clip-path">
      <rect id="Rectangle_155" data-name="Rectangle 155" width="40.319" height="33.152" transform="translate(0 0)" fill="none"/>
    </clipPath>
  </defs>
  <g id="Group_641" data-name="Group 641" transform="translate(0 0)">
    <rect id="Rectangle_153" data-name="Rectangle 153" width="38.319" height="26.407" transform="translate(1 5.745)" fill="#fff"/>
    <g id="Group_638" data-name="Group 638">
      <g id="Group_637" data-name="Group 637" clip-path="url(#clip-path)">
        <rect id="Rectangle_154" data-name="Rectangle 154" width="38.319" height="26.407" transform="translate(1 5.745)" fill="none" stroke="#000" stroke-linecap="round" stroke-linejoin="round" stroke-width="2"/>
      </g>
    </g>
    <rect id="Rectangle_156" data-name="Rectangle 156" width="14.494" height="15.862" transform="translate(5.666 11.709)" fill="#fff"/>
    <rect id="Rectangle_157" data-name="Rectangle 157" width="14.494" height="15.862" transform="translate(5.666 11.709)" fill="none" stroke="#000" stroke-linecap="round" stroke-linejoin="round" stroke-width="2"/>
    <g id="Group_640" data-name="Group 640">
      <g id="Group_639" data-name="Group 639" clip-path="url(#clip-path)">
        <path id="Path_587" data-name="Path 587" d="M14.787,17.375a1.874,1.874,0,1,0-1.874,1.874,1.874,1.874,0,0,0,1.874-1.874" fill="#face38" fill-rule="evenodd"/>
        <path id="Path_588" data-name="Path 588" d="M14.787,17.375a1.874,1.874,0,1,0-1.874,1.874A1.874,1.874,0,0,0,14.787,17.375Z" fill="none" stroke="#000" stroke-linecap="round" stroke-linejoin="round" stroke-width="1.75"/>
        <path id="Path_589" data-name="Path 589" d="M17.344,23.78a4.431,4.431,0,1,0-8.863,0Z" fill="#face38" fill-rule="evenodd"/>
        <path id="Path_590" data-name="Path 590" d="M17.344,23.78a4.431,4.431,0,1,0-8.863,0Z" fill="none" stroke="#000" stroke-linecap="round" stroke-linejoin="round" stroke-width="1.75"/>
        <line id="Line_120" data-name="Line 120" x2="8.587" transform="translate(25.599 14.361)" fill="#fff"/>
        <line id="Line_121" data-name="Line 121" x2="8.587" transform="translate(25.599 14.361)" fill="none" stroke="#000" stroke-linecap="round" stroke-linejoin="round" stroke-width="2"/>
        <line id="Line_122" data-name="Line 122" x2="8.587" transform="translate(25.599 19.64)" fill="#fff"/>
        <line id="Line_123" data-name="Line 123" x2="8.587" transform="translate(25.599 19.64)" fill="none" stroke="#000" stroke-linecap="round" stroke-linejoin="round" stroke-width="2"/>
        <line id="Line_124" data-name="Line 124" x2="8.587" transform="translate(25.599 24.919)" fill="#fff"/>
        <line id="Line_125" data-name="Line 125" x2="8.587" transform="translate(25.599 24.919)" fill="none" stroke="#000" stroke-linecap="round" stroke-linejoin="round" stroke-width="2"/>
        <rect id="Rectangle_158" data-name="Rectangle 158" width="6.9" height="6.9" transform="translate(16.709 0.999)" fill="#fff"/>
        <rect id="Rectangle_159" data-name="Rectangle 159" width="6.9" height="6.9" transform="translate(16.709 0.999)" fill="none" stroke="#000" stroke-linecap="round" stroke-linejoin="round" stroke-width="2"/>
      </g>
    </g>
  </g>
</svg>
