<svg xmlns="http://www.w3.org/2000/svg" width="76.374" height="54.829" viewBox="0 0 76.374 54.829">
  <g id="Group_300" data-name="Group 300" transform="translate(1 1)">
    <path id="Subtraction_4" data-name="Subtraction 4" d="M44.61,52.829c-11.929,0-27.626-.157-33.248-.419-3.46-.162-5.989-1.075-7.73-2.793-1.7-1.676-2.668-4.143-2.964-7.54C.228,37.021,0,31.9,0,26.855c0-5.064.217-10.186.654-15.223C.96,8.1,2,5.518,3.827,3.745a8.863,8.863,0,0,1,1.548-1.2,10.527,10.527,0,0,1,1.872-.894,14.117,14.117,0,0,1,2.206-.6A20.185,20.185,0,0,1,12,.751C20.371.253,28.853,0,37.215,0c8.3,0,16.706.249,24.985.74a17.811,17.811,0,0,1,5.045.939,10.448,10.448,0,0,1,1.937.929A8.472,8.472,0,0,1,71.99,5.436,10.614,10.614,0,0,1,72.9,7.359a18.171,18.171,0,0,1,.948,4.914c.342,4.773.518,9.589.523,14.315.005,4.771-.163,9.589-.5,14.318a19.526,19.526,0,0,1-.948,5.08,9.389,9.389,0,0,1-2.151,3.578,8.381,8.381,0,0,1-1.593,1.259,10.273,10.273,0,0,1-1.974.922,18.243,18.243,0,0,1-5.2.886C59.173,52.759,52.993,52.829,44.61,52.829ZM27.691,13.639V41.194l6.795-3.619L53.348,27.529l-11.62-6.291-3.175-1.719-10.861-5.88Z" transform="translate(0 0)" fill="#fff" stroke="#000" stroke-linecap="round" stroke-linejoin="round" stroke-miterlimit="10" stroke-width="2"/>
  </g>
</svg>
