<svg id="Group_300" data-name="Group 300" xmlns="http://www.w3.org/2000/svg" width="24.807" height="17.621" viewBox="0 0 24.807 17.621">
  <path id="Subtraction_4" data-name="Subtraction 4" d="M14.88,17.621c-3.979,0-9.215-.052-11.09-.14a3.762,3.762,0,0,1-2.578-.932,3.857,3.857,0,0,1-.989-2.515C.076,12.348,0,10.64,0,8.957S.072,5.56.218,3.88A3.979,3.979,0,0,1,1.277,1.249a2.956,2.956,0,0,1,.516-.4,3.511,3.511,0,0,1,.624-.3,4.709,4.709,0,0,1,.736-.2A6.733,6.733,0,0,1,4,.25C6.795.084,9.624,0,12.413,0c2.768,0,5.572.083,8.334.247A5.941,5.941,0,0,1,22.429.56a3.485,3.485,0,0,1,.646.31,2.826,2.826,0,0,1,.937.944,3.541,3.541,0,0,1,.3.641,6.061,6.061,0,0,1,.316,1.639c.114,1.592.173,3.2.175,4.775,0,1.591-.054,3.2-.167,4.776a6.513,6.513,0,0,1-.316,1.694,3.132,3.132,0,0,1-.717,1.194,2.8,2.8,0,0,1-.531.42,3.427,3.427,0,0,1-.659.307,6.085,6.085,0,0,1-1.734.3C19.737,17.6,17.676,17.621,14.88,17.621ZM9.236,4.549V13.74L11.5,12.533l6.291-3.351-3.876-2.1-1.059-.573L9.236,4.549Z" transform="translate(0 0)" fill="#ed207a"/>
</svg>
