<?xml version="1.0" encoding="UTF-8"?> <svg xmlns="http://www.w3.org/2000/svg" xmlns:xlink="http://www.w3.org/1999/xlink" width="278" height="163" viewBox="0 0 278 163"><defs><clipPath id="clip-path"><rect id="Rectangle_303" data-name="Rectangle 303" width="96.058" height="96.025" fill="none"></rect></clipPath></defs><g id="Group_1141" data-name="Group 1141" transform="translate(-434 -777)"><path id="Path_1615" data-name="Path 1615" d="M20,0H258a20,20,0,0,1,20,20V163H0V20A20,20,0,0,1,20,0Z" transform="translate(434 777)" fill="#3cc"></path><g id="Group_937" data-name="Group 937" transform="translate(525.002 810)"><g id="Group_936" data-name="Group 936" transform="translate(0 0)" clip-path="url(#clip-path)"><path id="Path_1403" data-name="Path 1403" d="M32.747,53.147C15.214,53.147,1,62.78,1,74.663,1,83.158,8.268,90.5,18.818,94a26.62,26.62,0,0,1-5.174,4.87,2.141,2.141,0,0,0,1.3,3.888,26.792,26.792,0,0,0,16.863-6.6c.312.006.623.016.938.016,17.534,0,31.747-9.633,31.747-21.516S50.281,53.147,32.747,53.147" transform="translate(-0.143 -7.591)" fill="#fff" fill-rule="evenodd"></path><path id="Path_1404" data-name="Path 1404" d="M32.747,53.147C15.214,53.147,1,62.78,1,74.663,1,83.158,8.268,90.5,18.818,94a26.62,26.62,0,0,1-5.174,4.87,2.141,2.141,0,0,0,1.3,3.888,26.792,26.792,0,0,0,16.863-6.6c.312.006.623.016.938.016,17.534,0,31.747-9.633,31.747-21.516S50.281,53.147,32.747,53.147Z" transform="translate(-0.143 -7.591)" fill="none" stroke="#000" stroke-linecap="round" stroke-linejoin="round" stroke-width="2"></path><path id="Path_1405" data-name="Path 1405" d="M80.841,21.667c12.519,0,22.668,6.878,22.668,15.362,0,6.066-5.189,11.31-12.722,13.807a18.985,18.985,0,0,0,4.531,4.042,1.194,1.194,0,0,1-.605,2.206,19.11,19.11,0,0,1-13.2-4.7c-.223,0-.445.011-.669.011-12.519,0-22.668-6.878-22.668-15.363S68.322,21.667,80.841,21.667" transform="translate(-8.309 -3.095)" fill="#fff" fill-rule="evenodd"></path><path id="Path_1406" data-name="Path 1406" d="M80.841,21.667c12.519,0,22.668,6.878,22.668,15.362,0,6.066-5.189,11.31-12.722,13.807a18.985,18.985,0,0,0,4.531,4.042,1.194,1.194,0,0,1-.605,2.206,19.11,19.11,0,0,1-13.2-4.7c-.223,0-.445.011-.669.011-12.519,0-22.668-6.878-22.668-15.363S68.322,21.667,80.841,21.667Z" transform="translate(-8.309 -3.095)" fill="none" stroke="#000" stroke-linecap="round" stroke-linejoin="round" stroke-width="2"></path><path id="Path_1407" data-name="Path 1407" d="M25.355,1C12.836,1,2.687,7.878,2.687,16.362c0,6.066,5.189,11.31,12.722,13.807a18.985,18.985,0,0,1-4.531,4.042,1.194,1.194,0,0,0,.605,2.206,19.11,19.11,0,0,0,13.2-4.7c.223,0,.445.011.669.011,12.519,0,22.668-6.878,22.668-15.363S37.874,1,25.355,1" transform="translate(-0.384 -0.143)" fill="#fff" fill-rule="evenodd"></path><path id="Path_1408" data-name="Path 1408" d="M25.355,1C12.836,1,2.687,7.878,2.687,16.362c0,6.066,5.189,11.31,12.722,13.807a18.985,18.985,0,0,1-4.531,4.042,1.194,1.194,0,0,0,.605,2.206,19.11,19.11,0,0,0,13.2-4.7c.223,0,.445.011.669.011,12.519,0,22.668-6.878,22.668-15.363S37.874,1,25.355,1Z" transform="translate(-0.384 -0.143)" fill="none" stroke="#000" stroke-linecap="round" stroke-linejoin="round" stroke-width="2"></path><path id="Path_1409" data-name="Path 1409" d="M27.746,78.268a4.064,4.064,0,1,0-4.065,4.065,4.065,4.065,0,0,0,4.065-4.065" transform="translate(-2.802 -10.598)" fill="#fff" fill-rule="evenodd"></path><path id="Path_1410" data-name="Path 1410" d="M27.746,78.268a4.064,4.064,0,1,0-4.065,4.065A4.065,4.065,0,0,0,27.746,78.268Z" transform="translate(-2.802 -10.598)" fill="#3cc" stroke="#000" stroke-linecap="round" stroke-linejoin="round" stroke-width="2"></path><path id="Path_1411" data-name="Path 1411" d="M41.425,78.268a4.064,4.064,0,1,0-4.065,4.065,4.065,4.065,0,0,0,4.065-4.065" transform="translate(-4.756 -10.598)" fill="#fff" fill-rule="evenodd"></path><path id="Path_1412" data-name="Path 1412" d="M41.425,78.268a4.064,4.064,0,1,0-4.065,4.065A4.065,4.065,0,0,0,41.425,78.268Z" transform="translate(-4.756 -10.598)" fill="#3cc" stroke="#000" stroke-linecap="round" stroke-linejoin="round" stroke-width="2"></path><path id="Path_1413" data-name="Path 1413" d="M55.1,78.268a4.064,4.064,0,1,0-4.065,4.065A4.065,4.065,0,0,0,55.1,78.268" transform="translate(-6.709 -10.598)" fill="#fff" fill-rule="evenodd"></path><path id="Path_1414" data-name="Path 1414" d="M55.1,78.268a4.064,4.064,0,1,0-4.065,4.065A4.065,4.065,0,0,0,55.1,78.268Z" transform="translate(-6.709 -10.598)" fill="#3cc" stroke="#000" stroke-linecap="round" stroke-linejoin="round" stroke-width="2"></path></g></g></g></svg> 