<?xml version="1.0" encoding="UTF-8"?> <svg xmlns="http://www.w3.org/2000/svg" xmlns:xlink="http://www.w3.org/1999/xlink" width="710" height="440" viewBox="0 0 710 440"><defs><clipPath id="clip-path"><rect id="Rectangle_74" data-name="Rectangle 74" width="710" height="440" rx="20" transform="translate(140 6571)" fill="#00b1ff"></rect></clipPath></defs><g id="Mask_Group_4" data-name="Mask Group 4" transform="translate(-140 -6571)" clip-path="url(#clip-path)"><g id="Illustrations" transform="translate(47.646 6547.246)"><g id="Group_226" data-name="Group 226" transform="translate(15.756 241.321)"><line id="Line_36" data-name="Line 36" y1="110.35" transform="translate(46.394 8.634)" fill="none" stroke="#efefef" stroke-linecap="round" stroke-linejoin="round" stroke-miterlimit="10" stroke-width="2"></line><line id="Line_37" data-name="Line 37" y1="38.527" x2="38.527" transform="translate(46.394 47.161)" fill="none" stroke="#efefef" stroke-linecap="round" stroke-linejoin="round" stroke-miterlimit="10" stroke-width="2"></line><line id="Line_38" data-name="Line 38" x2="15.284" transform="translate(72.161 59.92)" fill="none" stroke="#efefef" stroke-linecap="round" stroke-linejoin="round" stroke-miterlimit="10" stroke-width="2"></line><line id="Line_39" data-name="Line 39" x1="35.235" y1="35.213" transform="translate(11.159 42.066)" fill="none" stroke="#efefef" stroke-linecap="round" stroke-linejoin="round" stroke-miterlimit="10" stroke-width="2"></line><line id="Line_40" data-name="Line 40" x1="11.632" transform="translate(8.634 51.174)" fill="none" stroke="#efefef" stroke-linecap="round" stroke-linejoin="round" stroke-miterlimit="10" stroke-width="2"></line><line id="Line_41" data-name="Line 41" x1="13.571" transform="translate(22.115 66.571)" fill="none" stroke="#efefef" stroke-linecap="round" stroke-linejoin="round" stroke-miterlimit="10" stroke-width="2"></line><line id="Line_42" data-name="Line 42" y1="7.845" transform="translate(26.015 49.077)" fill="none" stroke="#efefef" stroke-linecap="round" stroke-linejoin="round" stroke-miterlimit="10" stroke-width="2"></line><line id="Line_43" data-name="Line 43" x2="17.133" transform="translate(56.291 75.791)" fill="none" stroke="#efefef" stroke-linecap="round" stroke-linejoin="round" stroke-miterlimit="10" stroke-width="2"></line><line id="Line_44" data-name="Line 44" x2="8.409" y2="8.409" transform="translate(64.113 75.791)" fill="none" stroke="#efefef" stroke-linecap="round" stroke-linejoin="round" stroke-miterlimit="10" stroke-width="2"></line><line id="Line_45" data-name="Line 45" y1="23.896" x2="23.873" transform="translate(46.394 31.268)" fill="none" stroke="#efefef" stroke-linecap="round" stroke-linejoin="round" stroke-miterlimit="10" stroke-width="2"></line><line id="Line_46" data-name="Line 46" y1="7.349" x2="7.349" transform="translate(46.394 11.7)" fill="none" stroke="#efefef" stroke-linecap="round" stroke-linejoin="round" stroke-miterlimit="10" stroke-width="2"></line><line id="Line_47" data-name="Line 47" x1="20.695" y1="20.695" transform="translate(25.699 21.98)" fill="none" stroke="#efefef" stroke-linecap="round" stroke-linejoin="round" stroke-miterlimit="10" stroke-width="2"></line><line id="Line_48" data-name="Line 48" x1="12.016" transform="translate(20.267 28.562)" fill="none" stroke="#efefef" stroke-linecap="round" stroke-linejoin="round" stroke-miterlimit="10" stroke-width="2"></line><line id="Line_49" data-name="Line 49" x2="14.338" transform="translate(54.668 46.89)" fill="none" stroke="#efefef" stroke-linecap="round" stroke-linejoin="round" stroke-miterlimit="10" stroke-width="2"></line><line id="Line_50" data-name="Line 50" y1="7.597" transform="translate(61.363 32.575)" fill="none" stroke="#efefef" stroke-linecap="round" stroke-linejoin="round" stroke-miterlimit="10" stroke-width="2"></line><path id="Path_170" data-name="Path 170" d="M66.041,333.865H42.618a7.35,7.35,0,0,1-7.349-7.349V295.744H73.39v30.772A7.336,7.336,0,0,1,66.041,333.865Z" transform="translate(-7.947 -195.832)" fill="#efefef"></path><path id="Path_171" data-name="Path 171" d="M76.6,285.616c-3.359,0-4.306-2.322-4.306-2.322s.924-2.322,4.306-2.322c3.359,0,7.89,2.322,7.89,2.322S79.957,285.616,76.6,285.616Z" transform="translate(0.23 -199.094)" fill="#efefef" stroke="#efefef" stroke-linecap="round" stroke-linejoin="round" stroke-miterlimit="10" stroke-width="2"></path><path id="Path_172" data-name="Path 172" d="M77.757,276.15c-2.39,2.39-4.689,1.4-4.689,1.4s-.992-2.3,1.4-4.689,7.236-3.945,7.236-3.945S80.147,273.76,77.757,276.15Z" transform="translate(0.356 -201.757)" fill="#efefef" stroke="#efefef" stroke-linecap="round" stroke-linejoin="round" stroke-miterlimit="10" stroke-width="2"></path><path id="Path_173" data-name="Path 173" d="M89.243,263.15c-2.39,2.39-4.689,1.4-4.689,1.4s-.992-2.3,1.4-4.689,7.236-3.945,7.236-3.945S91.632,260.761,89.243,263.15Z" transform="translate(2.892 -204.628)" fill="#efefef" stroke="#efefef" stroke-linecap="round" stroke-linejoin="round" stroke-miterlimit="10" stroke-width="2"></path><path id="Path_174" data-name="Path 174" d="M85.191,250.435c0,3.359-2.322,4.306-2.322,4.306s-2.322-.924-2.322-4.306,2.322-7.89,2.322-7.89S85.191,247.076,85.191,250.435Z" transform="translate(2.052 -207.58)" fill="#efefef" stroke="#efefef" stroke-linecap="round" stroke-linejoin="round" stroke-miterlimit="10" stroke-width="2"></path><path id="Path_175" data-name="Path 175" d="M74.138,252.477c-2.39,2.39-4.689,1.4-4.689,1.4s-.992-2.3,1.4-4.689,7.236-3.945,7.236-3.945S76.528,250.088,74.138,252.477Z" transform="translate(-0.443 -206.985)" fill="#efefef" stroke="#efefef" stroke-linecap="round" stroke-linejoin="round" stroke-miterlimit="10" stroke-width="2"></path><path id="Path_176" data-name="Path 176" d="M73.188,237.417c0,3.359-2.322,4.306-2.322,4.306s-2.322-.924-2.322-4.306,2.322-7.89,2.322-7.89S73.188,234.058,73.188,237.417Z" transform="translate(-0.598 -210.455)" fill="#efefef" stroke="#efefef" stroke-linecap="round" stroke-linejoin="round" stroke-miterlimit="10" stroke-width="2"></path><path id="Path_177" data-name="Path 177" d="M63.316,237.46c2.39,2.39,1.4,4.689,1.4,4.689s-2.3.992-4.689-1.4-3.945-7.236-3.945-7.236S60.949,235.071,63.316,237.46Z" transform="translate(-3.351 -209.574)" fill="#efefef" stroke="#efefef" stroke-linecap="round" stroke-linejoin="round" stroke-miterlimit="10" stroke-width="2"></path><path id="Path_178" data-name="Path 178" d="M61.217,226.23c-3.359,0-4.306-2.322-4.306-2.322s.924-2.322,4.306-2.322c3.359,0,7.89,2.322,7.89,2.322S64.576,226.23,61.217,226.23Z" transform="translate(-3.167 -212.208)" fill="#efefef" stroke="#efefef" stroke-linecap="round" stroke-linejoin="round" stroke-miterlimit="10" stroke-width="2"></path><path id="Path_179" data-name="Path 179" d="M51.055,217.85c2.39,2.39,1.4,4.689,1.4,4.689s-2.3.992-4.689-1.4-3.945-7.236-3.945-7.236S48.666,215.46,51.055,217.85Z" transform="translate(-6.059 -213.905)" fill="#efefef" stroke="#efefef" stroke-linecap="round" stroke-linejoin="round" stroke-miterlimit="10" stroke-width="2"></path><path id="Path_180" data-name="Path 180" d="M36.682,229.809c0,3.359-2.322,4.306-2.322,4.306s-2.322-.924-2.322-4.306c0-3.359,2.322-7.89,2.322-7.89S36.682,226.45,36.682,229.809Z" transform="translate(-8.66 -212.135)" fill="#efefef" stroke="#efefef" stroke-linecap="round" stroke-linejoin="round" stroke-miterlimit="10" stroke-width="2"></path><path id="Path_181" data-name="Path 181" d="M29.654,234.173c2.39,2.39,1.4,4.689,1.4,4.689s-2.3.992-4.689-1.4-3.945-7.236-3.945-7.236S27.264,231.806,29.654,234.173Z" transform="translate(-10.785 -210.3)" fill="#efefef" stroke="#efefef" stroke-linecap="round" stroke-linejoin="round" stroke-miterlimit="10" stroke-width="2"></path><path id="Path_182" data-name="Path 182" d="M38.924,254.268c-2.39,2.39-4.689,1.4-4.689,1.4s-.992-2.3,1.4-4.689,7.236-3.945,7.236-3.945S41.314,251.879,38.924,254.268Z" transform="translate(-8.22 -206.589)" fill="#efefef" stroke="#efefef" stroke-linecap="round" stroke-linejoin="round" stroke-miterlimit="10" stroke-width="2"></path><path id="Path_183" data-name="Path 183" d="M24.771,246.262c0,3.359-2.322,4.306-2.322,4.306s-2.322-.924-2.322-4.306,2.322-7.89,2.322-7.89S24.771,242.88,24.771,246.262Z" transform="translate(-11.29 -208.502)" fill="#efefef" stroke="#efefef" stroke-linecap="round" stroke-linejoin="round" stroke-miterlimit="10" stroke-width="2"></path><path id="Path_184" data-name="Path 184" d="M20.125,252.694c2.39,2.39,1.4,4.689,1.4,4.689s-2.3.992-4.689-1.4-3.945-7.236-3.945-7.236S17.736,250.3,20.125,252.694Z" transform="translate(-12.889 -206.21)" fill="#efefef" stroke="#efefef" stroke-linecap="round" stroke-linejoin="round" stroke-miterlimit="10" stroke-width="2"></path><path id="Path_185" data-name="Path 185" d="M31.168,265.325c2.39,2.39,1.4,4.689,1.4,4.689s-2.3.992-4.689-1.4-3.945-7.236-3.945-7.236S28.778,262.935,31.168,265.325Z" transform="translate(-10.45 -203.421)" fill="#efefef" stroke="#efefef" stroke-linecap="round" stroke-linejoin="round" stroke-miterlimit="10" stroke-width="2"></path><path id="Path_186" data-name="Path 186" d="M65.606,266.414C68,268.8,67,271.1,67,271.1s-2.3.992-4.689-1.4-3.945-7.236-3.945-7.236S63.239,264.025,65.606,266.414Z" transform="translate(-2.845 -203.18)" fill="#efefef" stroke="#efefef" stroke-linecap="round" stroke-linejoin="round" stroke-miterlimit="10" stroke-width="2"></path></g><g id="Group_227" data-name="Group 227" transform="translate(756.893 241.321)"><line id="Line_51" data-name="Line 51" y1="110.35" transform="translate(46.394 8.634)" fill="none" stroke="#efefef" stroke-linecap="round" stroke-linejoin="round" stroke-miterlimit="10" stroke-width="2"></line><line id="Line_52" data-name="Line 52" y1="38.527" x2="38.549" transform="translate(46.394 47.161)" fill="none" stroke="#efefef" stroke-linecap="round" stroke-linejoin="round" stroke-miterlimit="10" stroke-width="2"></line><line id="Line_53" data-name="Line 53" x2="15.284" transform="translate(72.184 59.92)" fill="none" stroke="#efefef" stroke-linecap="round" stroke-linejoin="round" stroke-miterlimit="10" stroke-width="2"></line><line id="Line_54" data-name="Line 54" x1="35.235" y1="35.213" transform="translate(11.159 42.066)" fill="none" stroke="#efefef" stroke-linecap="round" stroke-linejoin="round" stroke-miterlimit="10" stroke-width="2"></line><line id="Line_55" data-name="Line 55" x1="11.61" transform="translate(8.657 51.174)" fill="none" stroke="#efefef" stroke-linecap="round" stroke-linejoin="round" stroke-miterlimit="10" stroke-width="2"></line><line id="Line_56" data-name="Line 56" x1="13.571" transform="translate(22.115 66.571)" fill="none" stroke="#efefef" stroke-linecap="round" stroke-linejoin="round" stroke-miterlimit="10" stroke-width="2"></line><line id="Line_57" data-name="Line 57" y1="7.845" transform="translate(26.038 49.077)" fill="none" stroke="#efefef" stroke-linecap="round" stroke-linejoin="round" stroke-miterlimit="10" stroke-width="2"></line><line id="Line_58" data-name="Line 58" x2="17.133" transform="translate(56.313 75.791)" fill="none" stroke="#efefef" stroke-linecap="round" stroke-linejoin="round" stroke-miterlimit="10" stroke-width="2"></line><line id="Line_59" data-name="Line 59" x2="8.409" y2="8.409" transform="translate(64.113 75.791)" fill="none" stroke="#efefef" stroke-linecap="round" stroke-linejoin="round" stroke-miterlimit="10" stroke-width="2"></line><line id="Line_60" data-name="Line 60" y1="23.896" x2="23.896" transform="translate(46.394 31.268)" fill="none" stroke="#efefef" stroke-linecap="round" stroke-linejoin="round" stroke-miterlimit="10" stroke-width="2"></line><line id="Line_61" data-name="Line 61" y1="7.349" x2="7.372" transform="translate(46.394 11.7)" fill="none" stroke="#efefef" stroke-linecap="round" stroke-linejoin="round" stroke-miterlimit="10" stroke-width="2"></line><line id="Line_62" data-name="Line 62" x1="20.695" y1="20.695" transform="translate(25.699 21.98)" fill="none" stroke="#efefef" stroke-linecap="round" stroke-linejoin="round" stroke-miterlimit="10" stroke-width="2"></line><line id="Line_63" data-name="Line 63" x1="12.016" transform="translate(20.267 28.562)" fill="none" stroke="#efefef" stroke-linecap="round" stroke-linejoin="round" stroke-miterlimit="10" stroke-width="2"></line><line id="Line_64" data-name="Line 64" x2="14.36" transform="translate(54.668 46.89)" fill="none" stroke="#efefef" stroke-linecap="round" stroke-linejoin="round" stroke-miterlimit="10" stroke-width="2"></line><line id="Line_65" data-name="Line 65" y1="7.597" transform="translate(61.386 32.575)" fill="none" stroke="#efefef" stroke-linecap="round" stroke-linejoin="round" stroke-miterlimit="10" stroke-width="2"></line><path id="Path_187" data-name="Path 187" d="M673.132,333.865H649.71a7.35,7.35,0,0,1-7.349-7.349V295.744h38.121v30.772A7.35,7.35,0,0,1,673.132,333.865Z" transform="translate(-615.016 -195.832)" fill="#efefef"></path><path id="Path_188" data-name="Path 188" d="M683.671,285.616c-3.359,0-4.306-2.322-4.306-2.322s.924-2.322,4.306-2.322c3.359,0,7.89,2.322,7.89,2.322S687.053,285.616,683.671,285.616Z" transform="translate(-606.844 -199.094)" fill="#efefef" stroke="#efefef" stroke-linecap="round" stroke-linejoin="round" stroke-miterlimit="10" stroke-width="2"></path><path id="Path_189" data-name="Path 189" d="M684.83,276.15c-2.39,2.39-4.689,1.4-4.689,1.4s-.992-2.3,1.4-4.689,7.236-3.945,7.236-3.945S687.22,273.76,684.83,276.15Z" transform="translate(-606.717 -201.757)" fill="#efefef" stroke="#efefef" stroke-linecap="round" stroke-linejoin="round" stroke-miterlimit="10" stroke-width="2"></path><path id="Path_190" data-name="Path 190" d="M696.316,263.15c-2.39,2.39-4.689,1.4-4.689,1.4s-.992-2.3,1.4-4.689,7.236-3.945,7.236-3.945S698.705,260.761,696.316,263.15Z" transform="translate(-604.181 -204.628)" fill="#efefef" stroke="#efefef" stroke-linecap="round" stroke-linejoin="round" stroke-miterlimit="10" stroke-width="2"></path><path id="Path_191" data-name="Path 191" d="M692.282,250.435c0,3.359-2.322,4.306-2.322,4.306s-2.322-.924-2.322-4.306,2.322-7.89,2.322-7.89S692.282,247.076,692.282,250.435Z" transform="translate(-605.017 -207.58)" fill="#efefef" stroke="#efefef" stroke-linecap="round" stroke-linejoin="round" stroke-miterlimit="10" stroke-width="2"></path><path id="Path_192" data-name="Path 192" d="M681.229,252.477c-2.39,2.39-4.689,1.4-4.689,1.4s-.992-2.3,1.4-4.689,7.237-3.945,7.237-3.945S683.6,250.088,681.229,252.477Z" transform="translate(-607.513 -206.985)" fill="#efefef" stroke="#efefef" stroke-linecap="round" stroke-linejoin="round" stroke-miterlimit="10" stroke-width="2"></path><path id="Path_193" data-name="Path 193" d="M680.28,237.417c0,3.359-2.322,4.306-2.322,4.306s-2.322-.924-2.322-4.306,2.322-7.89,2.322-7.89S680.28,234.058,680.28,237.417Z" transform="translate(-607.667 -210.455)" fill="#efefef" stroke="#efefef" stroke-linecap="round" stroke-linejoin="round" stroke-miterlimit="10" stroke-width="2"></path><path id="Path_194" data-name="Path 194" d="M670.408,237.46c2.39,2.39,1.4,4.689,1.4,4.689s-2.3.992-4.689-1.4-3.945-7.236-3.945-7.236S668.018,235.071,670.408,237.46Z" transform="translate(-610.42 -209.574)" fill="#efefef" stroke="#efefef" stroke-linecap="round" stroke-linejoin="round" stroke-miterlimit="10" stroke-width="2"></path><path id="Path_195" data-name="Path 195" d="M668.308,226.23c-3.359,0-4.306-2.322-4.306-2.322s.924-2.322,4.306-2.322c3.359,0,7.89,2.322,7.89,2.322S671.667,226.23,668.308,226.23Z" transform="translate(-610.236 -212.208)" fill="#efefef" stroke="#efefef" stroke-linecap="round" stroke-linejoin="round" stroke-miterlimit="10" stroke-width="2"></path><path id="Path_196" data-name="Path 196" d="M658.128,217.85c2.39,2.39,1.4,4.689,1.4,4.689s-2.3.992-4.689-1.4-3.945-7.236-3.945-7.236S655.761,215.46,658.128,217.85Z" transform="translate(-613.132 -213.905)" fill="#efefef" stroke="#efefef" stroke-linecap="round" stroke-linejoin="round" stroke-miterlimit="10" stroke-width="2"></path><path id="Path_197" data-name="Path 197" d="M643.755,229.809c0,3.359-2.322,4.306-2.322,4.306s-2.322-.924-2.322-4.306c0-3.359,2.322-7.89,2.322-7.89S643.755,226.45,643.755,229.809Z" transform="translate(-615.733 -212.135)" fill="#efefef" stroke="#efefef" stroke-linecap="round" stroke-linejoin="round" stroke-miterlimit="10" stroke-width="2"></path><path id="Path_198" data-name="Path 198" d="M636.727,234.173c2.39,2.39,1.4,4.689,1.4,4.689s-2.3.992-4.689-1.4-3.945-7.236-3.945-7.236S634.36,231.806,636.727,234.173Z" transform="translate(-617.858 -210.3)" fill="#efefef" stroke="#efefef" stroke-linecap="round" stroke-linejoin="round" stroke-miterlimit="10" stroke-width="2"></path><path id="Path_199" data-name="Path 199" d="M646.016,254.268c-2.39,2.39-4.689,1.4-4.689,1.4s-.992-2.3,1.4-4.689,7.236-3.945,7.236-3.945S648.383,251.879,646.016,254.268Z" transform="translate(-615.289 -206.589)" fill="#efefef" stroke="#efefef" stroke-linecap="round" stroke-linejoin="round" stroke-miterlimit="10" stroke-width="2"></path><path id="Path_200" data-name="Path 200" d="M631.844,246.262c0,3.359-2.322,4.306-2.322,4.306s-2.322-.924-2.322-4.306,2.322-7.89,2.322-7.89S631.844,242.88,631.844,246.262Z" transform="translate(-618.364 -208.502)" fill="#efefef" stroke="#efefef" stroke-linecap="round" stroke-linejoin="round" stroke-miterlimit="10" stroke-width="2"></path><path id="Path_201" data-name="Path 201" d="M627.2,252.694c2.39,2.39,1.4,4.689,1.4,4.689s-2.3.992-4.689-1.4-3.945-7.236-3.945-7.236S624.831,250.3,627.2,252.694Z" transform="translate(-619.962 -206.21)" fill="#efefef" stroke="#efefef" stroke-linecap="round" stroke-linejoin="round" stroke-miterlimit="10" stroke-width="2"></path><path id="Path_202" data-name="Path 202" d="M638.241,265.325c2.39,2.39,1.4,4.689,1.4,4.689s-2.3.992-4.689-1.4S631,261.38,631,261.38,635.851,262.935,638.241,265.325Z" transform="translate(-617.523 -203.421)" fill="#efefef" stroke="#efefef" stroke-linecap="round" stroke-linejoin="round" stroke-miterlimit="10" stroke-width="2"></path><path id="Path_203" data-name="Path 203" d="M672.7,266.414c2.39,2.39,1.4,4.689,1.4,4.689s-2.3.992-4.689-1.4-3.945-7.236-3.945-7.236S670.308,264.025,672.7,266.414Z" transform="translate(-609.914 -203.18)" fill="#efefef" stroke="#efefef" stroke-linecap="round" stroke-linejoin="round" stroke-miterlimit="10" stroke-width="2"></path></g><g id="Group_228" data-name="Group 228" transform="translate(594.756 198.353)"><rect id="Rectangle_75" data-name="Rectangle 75" width="3.179" height="91.774" transform="translate(3.179 184.876) rotate(180)" fill="#efefef"></rect><rect id="Rectangle_76" data-name="Rectangle 76" width="3.179" height="91.774" transform="translate(57.807 184.876) rotate(180)" fill="#efefef"></rect><path id="Path_204" data-name="Path 204" d="M541.781,178.709v90.579H487.158v7.349h57.8V178.709Z" transform="translate(-487.153 -178.709)" fill="#efefef"></path></g><g id="Group_229" data-name="Group 229" transform="translate(222.366 198.353)"><rect id="Rectangle_77" data-name="Rectangle 77" width="3.179" height="91.774" transform="translate(54.803 93.127)" fill="#efefef"></rect><rect id="Rectangle_78" data-name="Rectangle 78" width="3.179" height="91.774" transform="translate(0 93.127)" fill="#efefef"></rect><path id="Path_205" data-name="Path 205" d="M185.3,269.289V178.709h-3.179v97.929h57.982v-7.349Z" transform="translate(-182.126 -178.709)" fill="#efefef"></path></g><g id="Group_230" data-name="Group 230" transform="translate(123.423 198.353)"><rect id="Rectangle_79" data-name="Rectangle 79" width="3.179" height="91.774" transform="translate(58.816 93.127)" fill="#efefef"></rect><rect id="Rectangle_80" data-name="Rectangle 80" width="3.179" height="91.774" transform="translate(0 93.127)" fill="#efefef"></rect><path id="Path_206" data-name="Path 206" d="M104.259,269.289V178.709H101.08v97.929h61.994v-7.349Z" transform="translate(-101.08 -178.709)" fill="#efefef"></path></g><g id="Group_231" data-name="Group 231" transform="translate(691.45 198.353)"><rect id="Rectangle_81" data-name="Rectangle 81" width="3.179" height="91.774" transform="translate(3.183 184.876) rotate(180)" fill="#efefef"></rect><rect id="Rectangle_82" data-name="Rectangle 82" width="3.179" height="91.774" transform="translate(57.812 184.876) rotate(180)" fill="#efefef"></rect><path id="Path_207" data-name="Path 207" d="M620.979,178.709v90.579H566.357v7.349h57.8V178.709Z" transform="translate(-566.357 -178.709)" fill="#efefef"></path></g><g id="Group_232" data-name="Group 232" transform="translate(324.853 89.76)"><rect id="Rectangle_83" data-name="Rectangle 83" width="118.533" height="201.989" transform="translate(201.989 0) rotate(90)" fill="#fff" stroke="#000" stroke-linecap="round" stroke-linejoin="round" stroke-miterlimit="10" stroke-width="2"></rect><rect id="Rectangle_84" data-name="Rectangle 84" width="190.762" height="107.307" transform="translate(5.632 5.615)" fill="#efefef" stroke="#000" stroke-linecap="round" stroke-linejoin="round" stroke-miterlimit="10" stroke-width="2"></rect><line id="Line_66" data-name="Line 66" x2="26.263" y2="26.241" transform="translate(17.039 76.807)" fill="none" stroke="#000" stroke-linecap="round" stroke-linejoin="round" stroke-miterlimit="10" stroke-width="2"></line><line id="Line_67" data-name="Line 67" x2="8.95" y2="8.95" transform="translate(21.277 94.098)" fill="none" stroke="#000" stroke-linecap="round" stroke-linejoin="round" stroke-miterlimit="10" stroke-width="2"></line></g><g id="Group_235" data-name="Group 235" transform="translate(607.818 108.524)"><rect id="Rectangle_85" data-name="Rectangle 85" width="80.976" height="60.935" transform="translate(0 80.976) rotate(-90)" fill="none" stroke="#efefef" stroke-linecap="round" stroke-linejoin="round" stroke-miterlimit="10" stroke-width="2"></rect><g id="Group_234" data-name="Group 234" transform="translate(17.016 32.884)"><path id="Path_208" data-name="Path 208" d="M525.147,132.1A12.892,12.892,0,0,1,538.042,145V162.6c0,7.124-5.771,9.356-12.895,9.356s-12.895-2.232-12.895-9.356V145A12.878,12.878,0,0,1,525.147,132.1Z" transform="translate(-511.689 -132.057)" fill="#fff"></path><g id="Group_233" data-name="Group 233"><path id="Path_209" data-name="Path 209" d="M528.289,146.955l3.111-4.08a5.1,5.1,0,0,0-6.222,0Z" transform="translate(-508.834 -129.912)" fill="#efefef" stroke="#fff" stroke-linecap="round" stroke-linejoin="round" stroke-miterlimit="10" stroke-width="2"></path><path id="Path_210" data-name="Path 210" d="M531.65,159.752l3.111-4.08a5.1,5.1,0,0,0-6.222,0Z" transform="translate(-508.092 -127.086)" fill="#efefef" stroke="#fff" stroke-linecap="round" stroke-linejoin="round" stroke-miterlimit="10" stroke-width="2"></path><path id="Path_211" data-name="Path 211" d="M524.984,165.513l3.111-4.08a5.1,5.1,0,0,0-6.222,0Z" transform="translate(-509.564 -125.814)" fill="#efefef" stroke="#fff" stroke-linecap="round" stroke-linejoin="round" stroke-miterlimit="10" stroke-width="2"></path><path id="Path_212" data-name="Path 212" d="M526.074,143.41l3.111-4.08a5.1,5.1,0,0,0-6.222,0Z" transform="translate(-509.324 -130.695)" fill="#efefef" stroke="#fff" stroke-linecap="round" stroke-linejoin="round" stroke-miterlimit="10" stroke-width="2"></path><path id="Path_213" data-name="Path 213" d="M531.244,143.558l3.111-4.08a5.1,5.1,0,0,0-6.222,0Z" transform="translate(-508.182 -130.663)" fill="#efefef" stroke="#fff" stroke-linecap="round" stroke-linejoin="round" stroke-miterlimit="10" stroke-width="2"></path><path id="Path_214" data-name="Path 214" d="M531.724,154.434l3.111-4.08a5.1,5.1,0,0,0-6.222,0Z" transform="translate(-508.076 -128.261)" fill="#efefef" stroke="#fff" stroke-linecap="round" stroke-linejoin="round" stroke-miterlimit="10" stroke-width="2"></path><path id="Path_215" data-name="Path 215" d="M527.994,156.557l3.111-4.08a5.1,5.1,0,0,0-6.222,0Z" transform="translate(-508.9 -127.792)" fill="#efefef" stroke="#fff" stroke-linecap="round" stroke-linejoin="round" stroke-miterlimit="10" stroke-width="2"></path><path id="Path_216" data-name="Path 216" d="M515.474,152.015l3.111-4.08a5.1,5.1,0,0,0-6.222,0Z" transform="translate(-511.664 -128.795)" fill="#efefef" stroke="#fff" stroke-linecap="round" stroke-linejoin="round" stroke-miterlimit="10" stroke-width="2"></path><path id="Path_217" data-name="Path 217" d="M519.26,154.969l3.111-4.08a5.1,5.1,0,0,0-6.222,0Z" transform="translate(-510.828 -128.143)" fill="#efefef" stroke="#fff" stroke-linecap="round" stroke-linejoin="round" stroke-miterlimit="10" stroke-width="2"></path><path id="Path_218" data-name="Path 218" d="M523.839,137.205l3.111-4.08a5.1,5.1,0,0,0-6.222,0Z" transform="translate(-509.817 -132.066)" fill="#efefef" stroke="#fff" stroke-linecap="round" stroke-linejoin="round" stroke-miterlimit="10" stroke-width="2"></path><path id="Path_219" data-name="Path 219" d="M519.426,165.125l3.111-4.08a5.1,5.1,0,0,0-6.222,0Z" transform="translate(-510.792 -125.9)" fill="#efefef" stroke="#fff" stroke-linecap="round" stroke-linejoin="round" stroke-miterlimit="10" stroke-width="2"></path><path id="Path_220" data-name="Path 220" d="M518.946,138.9l3.111-4.08a5.1,5.1,0,0,0-6.222,0Z" transform="translate(-510.898 -131.69)" fill="#efefef" stroke="#fff" stroke-linecap="round" stroke-linejoin="round" stroke-miterlimit="10" stroke-width="2"></path><path id="Path_221" data-name="Path 221" d="M514.9,147.085l3.111-4.08a5.1,5.1,0,0,0-6.222,0Z" transform="translate(-511.791 -129.884)" fill="#efefef" stroke="#fff" stroke-linecap="round" stroke-linejoin="round" stroke-miterlimit="10" stroke-width="2"></path><path id="Path_222" data-name="Path 222" d="M521.4,151.2l3.111-4.08a5.1,5.1,0,0,0-6.222,0Z" transform="translate(-510.355 -128.975)" fill="#efefef" stroke="#fff" stroke-linecap="round" stroke-linejoin="round" stroke-miterlimit="10" stroke-width="2"></path><path id="Path_223" data-name="Path 223" d="M516.028,142.6l3.111-4.08a5.1,5.1,0,0,0-6.222,0Z" transform="translate(-511.542 -130.875)" fill="#efefef" stroke="#fff" stroke-linecap="round" stroke-linejoin="round" stroke-miterlimit="10" stroke-width="2"></path><path id="Path_224" data-name="Path 224" d="M524.3,154.064l3.111-4.08a5.1,5.1,0,0,0-6.222,0Z" transform="translate(-509.715 -128.342)" fill="#efefef" stroke="#fff" stroke-linecap="round" stroke-linejoin="round" stroke-miterlimit="10" stroke-width="2"></path><path id="Path_225" data-name="Path 225" d="M520.427,144.056l3.089-4.08a5.1,5.1,0,0,0-6.222,0Z" transform="translate(-510.576 -130.553)" fill="#efefef" stroke="#fff" stroke-linecap="round" stroke-linejoin="round" stroke-miterlimit="10" stroke-width="2"></path><path id="Path_226" data-name="Path 226" d="M523.064,140.843l3.111-4.08a5.1,5.1,0,0,0-6.222,0Z" transform="translate(-509.988 -131.262)" fill="#efefef" stroke="#fff" stroke-linecap="round" stroke-linejoin="round" stroke-miterlimit="10" stroke-width="2"></path><path id="Path_227" data-name="Path 227" d="M523.784,147.528l3.111-4.08a5.1,5.1,0,0,0-6.222,0Z" transform="translate(-509.829 -129.786)" fill="#efefef" stroke="#fff" stroke-linecap="round" stroke-linejoin="round" stroke-miterlimit="10" stroke-width="2"></path><path id="Path_228" data-name="Path 228" d="M527.477,151.313l3.111-4.08a5.1,5.1,0,0,0-6.222,0Z" transform="translate(-509.014 -128.95)" fill="#efefef" stroke="#fff" stroke-linecap="round" stroke-linejoin="round" stroke-miterlimit="10" stroke-width="2"></path><path id="Path_229" data-name="Path 229" d="M529.84,164.036l3.111-4.08a5.1,5.1,0,0,0-6.222,0Z" transform="translate(-508.492 -126.14)" fill="#efefef" stroke="#fff" stroke-linecap="round" stroke-linejoin="round" stroke-miterlimit="10" stroke-width="2"></path><path id="Path_230" data-name="Path 230" d="M526.794,160.952l3.111-4.08a5.1,5.1,0,0,0-6.222,0Z" transform="translate(-509.165 -126.821)" fill="#efefef" stroke="#fff" stroke-linecap="round" stroke-linejoin="round" stroke-miterlimit="10" stroke-width="2"></path><path id="Path_231" data-name="Path 231" d="M522.344,162.226l3.111-4.08a5.1,5.1,0,0,0-6.222,0Z" transform="translate(-510.147 -126.54)" fill="#efefef" stroke="#fff" stroke-linecap="round" stroke-linejoin="round" stroke-miterlimit="10" stroke-width="2"></path><path id="Path_232" data-name="Path 232" d="M523.138,158l3.111-4.08a5.1,5.1,0,0,0-6.222,0Z" transform="translate(-509.972 -127.474)" fill="#efefef" stroke="#fff" stroke-linecap="round" stroke-linejoin="round" stroke-miterlimit="10" stroke-width="2"></path><path id="Path_233" data-name="Path 233" d="M528.363,139.4l3.111-4.08a5.1,5.1,0,0,0-6.222,0Z" transform="translate(-508.818 -131.58)" fill="#efefef" stroke="#fff" stroke-linecap="round" stroke-linejoin="round" stroke-miterlimit="10" stroke-width="2"></path><path id="Path_234" data-name="Path 234" d="M518.78,148.1l3.111-4.08a5.1,5.1,0,0,0-6.222,0Z" transform="translate(-510.935 -129.66)" fill="#efefef" stroke="#fff" stroke-linecap="round" stroke-linejoin="round" stroke-miterlimit="10" stroke-width="2"></path><path id="Path_235" data-name="Path 235" d="M515.53,162.3l3.111-4.08a5.1,5.1,0,0,0-6.222,0Z" transform="translate(-511.652 -126.524)" fill="#efefef" stroke="#fff" stroke-linecap="round" stroke-linejoin="round" stroke-miterlimit="10" stroke-width="2"></path><path id="Path_236" data-name="Path 236" d="M518.8,159.623l3.111-4.08a5.1,5.1,0,0,0-6.222,0Z" transform="translate(-510.93 -127.115)" fill="#efefef" stroke="#fff" stroke-linecap="round" stroke-linejoin="round" stroke-miterlimit="10" stroke-width="2"></path><path id="Path_237" data-name="Path 237" d="M531.89,149.153l3.111-4.08a5.1,5.1,0,0,0-6.222,0Z" transform="translate(-508.039 -129.427)" fill="#efefef" stroke="#fff" stroke-linecap="round" stroke-linejoin="round" stroke-miterlimit="10" stroke-width="2"></path><path id="Path_238" data-name="Path 238" d="M515.013,157.074l3.111-4.08a5.1,5.1,0,0,0-6.222,0Z" transform="translate(-511.766 -127.678)" fill="#efefef" stroke="#fff" stroke-linecap="round" stroke-linejoin="round" stroke-miterlimit="10" stroke-width="2"></path></g></g><rect id="Rectangle_86" data-name="Rectangle 86" width="73.469" height="53.45" transform="translate(57.195 3.754) rotate(90)" fill="none" stroke="#efefef" stroke-linecap="round" stroke-linejoin="round" stroke-miterlimit="10" stroke-width="2"></rect><path id="Path_239" data-name="Path 239" d="M525.808,137.732a34.746,34.746,0,0,0,7.327-3.336,33.392,33.392,0,0,0,9.22-7.98,33.285,33.285,0,0,0-11.384,4.373,35.337,35.337,0,0,0-5.162,3.765,34.906,34.906,0,0,0-5.162-3.765,33.286,33.286,0,0,0-11.384-4.373,33.393,33.393,0,0,0,9.22,7.98A34.746,34.746,0,0,0,525.808,137.732Z" transform="translate(-495.334 -100.429)" fill="#efefef" stroke="#fff" stroke-linecap="round" stroke-linejoin="round" stroke-miterlimit="10" stroke-width="2"></path><path id="Path_240" data-name="Path 240" d="M524.956,139.522a38.666,38.666,0,0,0,6.7-8.251,37.84,37.84,0,0,0,5.14-12.962,38.459,38.459,0,0,0-9.243,10.46,36.689,36.689,0,0,0-2.592,4.982,44.5,44.5,0,0,0-2.592-4.982,38.457,38.457,0,0,0-9.243-10.46,37.842,37.842,0,0,0,5.14,12.962A38.668,38.668,0,0,0,524.956,139.522Z" transform="translate(-494.481 -102.22)" fill="#efefef" stroke="#fff" stroke-linecap="round" stroke-linejoin="round" stroke-miterlimit="10" stroke-width="2"></path><path id="Path_241" data-name="Path 241" d="M523.284,141.019a38.894,38.894,0,0,0,2.592-14.608,41.47,41.47,0,0,0-2.592-14.879,41.47,41.47,0,0,0-2.592,14.879A38.5,38.5,0,0,0,523.284,141.019Z" transform="translate(-492.809 -103.716)" fill="#efefef" stroke="#fff" stroke-linecap="round" stroke-linejoin="round" stroke-miterlimit="10" stroke-width="2"></path></g><g id="Group_238" data-name="Group 238" transform="translate(182.959 108.519)"><rect id="Rectangle_87" data-name="Rectangle 87" width="80.976" height="60.935" transform="translate(0 80.976) rotate(-90)" fill="none" stroke="#efefef" stroke-linecap="round" stroke-linejoin="round" stroke-miterlimit="10" stroke-width="2"></rect><g id="Group_237" data-name="Group 237" transform="translate(17.022 32.89)"><path id="Path_242" data-name="Path 242" d="M177.146,132.1A12.892,12.892,0,0,1,190.041,145V162.6c0,7.124-5.771,9.356-12.895,9.356s-12.895-2.232-12.895-9.356V145A12.863,12.863,0,0,1,177.146,132.1Z" transform="translate(-163.687 -132.057)" fill="#fff"></path><g id="Group_236" data-name="Group 236"><path id="Path_243" data-name="Path 243" d="M180.288,146.955l3.111-4.08a5.1,5.1,0,0,0-6.222,0Z" transform="translate(-160.833 -129.912)" fill="#efefef" stroke="#fff" stroke-linecap="round" stroke-linejoin="round" stroke-miterlimit="10" stroke-width="2"></path><path id="Path_244" data-name="Path 244" d="M183.649,159.752l3.111-4.08a5.1,5.1,0,0,0-6.222,0Z" transform="translate(-160.091 -127.086)" fill="#efefef" stroke="#fff" stroke-linecap="round" stroke-linejoin="round" stroke-miterlimit="10" stroke-width="2"></path><path id="Path_245" data-name="Path 245" d="M176.983,165.513l3.111-4.08a5.1,5.1,0,0,0-6.222,0Z" transform="translate(-161.563 -125.814)" fill="#efefef" stroke="#fff" stroke-linecap="round" stroke-linejoin="round" stroke-miterlimit="10" stroke-width="2"></path><path id="Path_246" data-name="Path 246" d="M178.072,143.41l3.111-4.08a5.1,5.1,0,0,0-6.222,0Z" transform="translate(-161.322 -130.695)" fill="#efefef" stroke="#fff" stroke-linecap="round" stroke-linejoin="round" stroke-miterlimit="10" stroke-width="2"></path><path id="Path_247" data-name="Path 247" d="M183.242,143.558l3.111-4.08a5.1,5.1,0,0,0-6.222,0Z" transform="translate(-160.18 -130.663)" fill="#efefef" stroke="#fff" stroke-linecap="round" stroke-linejoin="round" stroke-miterlimit="10" stroke-width="2"></path><path id="Path_248" data-name="Path 248" d="M183.722,154.434l3.111-4.08a5.1,5.1,0,0,0-6.222,0Z" transform="translate(-160.074 -128.261)" fill="#efefef" stroke="#fff" stroke-linecap="round" stroke-linejoin="round" stroke-miterlimit="10" stroke-width="2"></path><path id="Path_249" data-name="Path 249" d="M179.974,156.557l3.111-4.08a5.1,5.1,0,0,0-6.222,0Z" transform="translate(-160.902 -127.792)" fill="#efefef" stroke="#fff" stroke-linecap="round" stroke-linejoin="round" stroke-miterlimit="10" stroke-width="2"></path><path id="Path_250" data-name="Path 250" d="M167.473,152.015l3.111-4.08a5.1,5.1,0,0,0-6.222,0Z" transform="translate(-163.663 -128.795)" fill="#efefef" stroke="#fff" stroke-linecap="round" stroke-linejoin="round" stroke-miterlimit="10" stroke-width="2"></path><path id="Path_251" data-name="Path 251" d="M171.258,154.969l3.111-4.08a5.1,5.1,0,0,0-6.222,0Z" transform="translate(-162.827 -128.143)" fill="#efefef" stroke="#fff" stroke-linecap="round" stroke-linejoin="round" stroke-miterlimit="10" stroke-width="2"></path><path id="Path_252" data-name="Path 252" d="M175.819,137.205l3.111-4.08a5.1,5.1,0,0,0-6.222,0Z" transform="translate(-161.82 -132.066)" fill="#efefef" stroke="#fff" stroke-linecap="round" stroke-linejoin="round" stroke-miterlimit="10" stroke-width="2"></path><path id="Path_253" data-name="Path 253" d="M171.406,165.125l3.111-4.08a5.1,5.1,0,0,0-6.222,0Z" transform="translate(-162.794 -125.9)" fill="#efefef" stroke="#fff" stroke-linecap="round" stroke-linejoin="round" stroke-miterlimit="10" stroke-width="2"></path><path id="Path_254" data-name="Path 254" d="M170.944,138.9l3.111-4.08a5.1,5.1,0,0,0-6.222,0Z" transform="translate(-162.896 -131.69)" fill="#efefef" stroke="#fff" stroke-linecap="round" stroke-linejoin="round" stroke-miterlimit="10" stroke-width="2"></path><path id="Path_255" data-name="Path 255" d="M166.9,147.085l3.111-4.08a5.1,5.1,0,0,0-6.222,0Z" transform="translate(-163.789 -129.884)" fill="#efefef" stroke="#fff" stroke-linecap="round" stroke-linejoin="round" stroke-miterlimit="10" stroke-width="2"></path><path id="Path_256" data-name="Path 256" d="M173.4,151.2l3.111-4.08a5.1,5.1,0,0,0-6.222,0Z" transform="translate(-162.354 -128.975)" fill="#efefef" stroke="#fff" stroke-linecap="round" stroke-linejoin="round" stroke-miterlimit="10" stroke-width="2"></path><path id="Path_257" data-name="Path 257" d="M168.008,142.6l3.111-4.08a5.1,5.1,0,0,0-6.222,0Z" transform="translate(-163.545 -130.875)" fill="#efefef" stroke="#fff" stroke-linecap="round" stroke-linejoin="round" stroke-miterlimit="10" stroke-width="2"></path><path id="Path_258" data-name="Path 258" d="M176.281,154.064l3.111-4.08a5.1,5.1,0,0,0-6.222,0Z" transform="translate(-161.718 -128.342)" fill="#efefef" stroke="#fff" stroke-linecap="round" stroke-linejoin="round" stroke-miterlimit="10" stroke-width="2"></path><path id="Path_259" data-name="Path 259" d="M172.4,144.056l3.111-4.08a5.1,5.1,0,0,0-6.222,0Z" transform="translate(-162.574 -130.553)" fill="#efefef" stroke="#fff" stroke-linecap="round" stroke-linejoin="round" stroke-miterlimit="10" stroke-width="2"></path><path id="Path_260" data-name="Path 260" d="M175.044,140.843l3.111-4.08a5.1,5.1,0,0,0-6.222,0Z" transform="translate(-161.991 -131.262)" fill="#efefef" stroke="#fff" stroke-linecap="round" stroke-linejoin="round" stroke-miterlimit="10" stroke-width="2"></path><path id="Path_261" data-name="Path 261" d="M175.782,147.528l3.111-4.08a5.1,5.1,0,0,0-6.222,0Z" transform="translate(-161.828 -129.786)" fill="#efefef" stroke="#fff" stroke-linecap="round" stroke-linejoin="round" stroke-miterlimit="10" stroke-width="2"></path><path id="Path_262" data-name="Path 262" d="M179.475,151.313l3.111-4.08a5.1,5.1,0,0,0-6.222,0Z" transform="translate(-161.012 -128.95)" fill="#efefef" stroke="#fff" stroke-linecap="round" stroke-linejoin="round" stroke-miterlimit="10" stroke-width="2"></path><path id="Path_263" data-name="Path 263" d="M181.82,164.036l3.111-4.08a5.1,5.1,0,0,0-6.222,0Z" transform="translate(-160.494 -126.14)" fill="#efefef" stroke="#fff" stroke-linecap="round" stroke-linejoin="round" stroke-miterlimit="10" stroke-width="2"></path><path id="Path_264" data-name="Path 264" d="M178.792,160.952l3.111-4.08a5.1,5.1,0,0,0-6.222,0Z" transform="translate(-161.163 -126.821)" fill="#efefef" stroke="#fff" stroke-linecap="round" stroke-linejoin="round" stroke-miterlimit="10" stroke-width="2"></path><path id="Path_265" data-name="Path 265" d="M174.342,162.226l3.111-4.08a5.1,5.1,0,0,0-6.222,0Z" transform="translate(-162.146 -126.54)" fill="#efefef" stroke="#fff" stroke-linecap="round" stroke-linejoin="round" stroke-miterlimit="10" stroke-width="2"></path><path id="Path_266" data-name="Path 266" d="M175.136,158l3.111-4.08a5.1,5.1,0,0,0-6.222,0Z" transform="translate(-161.971 -127.474)" fill="#efefef" stroke="#fff" stroke-linecap="round" stroke-linejoin="round" stroke-miterlimit="10" stroke-width="2"></path><path id="Path_267" data-name="Path 267" d="M180.362,139.4l3.111-4.08a5.1,5.1,0,0,0-6.222,0Z" transform="translate(-160.817 -131.58)" fill="#efefef" stroke="#fff" stroke-linecap="round" stroke-linejoin="round" stroke-miterlimit="10" stroke-width="2"></path><path id="Path_268" data-name="Path 268" d="M170.778,148.1l3.111-4.08a5.1,5.1,0,0,0-6.222,0Z" transform="translate(-162.933 -129.66)" fill="#efefef" stroke="#fff" stroke-linecap="round" stroke-linejoin="round" stroke-miterlimit="10" stroke-width="2"></path><path id="Path_269" data-name="Path 269" d="M167.528,162.3l3.111-4.08a5.1,5.1,0,0,0-6.222,0Z" transform="translate(-163.651 -126.524)" fill="#efefef" stroke="#fff" stroke-linecap="round" stroke-linejoin="round" stroke-miterlimit="10" stroke-width="2"></path><path id="Path_270" data-name="Path 270" d="M170.778,159.623l3.111-4.08a5.1,5.1,0,0,0-6.222,0Z" transform="translate(-162.933 -127.115)" fill="#efefef" stroke="#fff" stroke-linecap="round" stroke-linejoin="round" stroke-miterlimit="10" stroke-width="2"></path><path id="Path_271" data-name="Path 271" d="M183.889,149.153l3.111-4.08a5.1,5.1,0,0,0-6.222,0Z" transform="translate(-160.038 -129.427)" fill="#efefef" stroke="#fff" stroke-linecap="round" stroke-linejoin="round" stroke-miterlimit="10" stroke-width="2"></path><path id="Path_272" data-name="Path 272" d="M167.011,157.074l3.111-4.08a5.1,5.1,0,0,0-6.222,0Z" transform="translate(-163.765 -127.678)" fill="#efefef" stroke="#fff" stroke-linecap="round" stroke-linejoin="round" stroke-miterlimit="10" stroke-width="2"></path></g></g><rect id="Rectangle_88" data-name="Rectangle 88" width="73.469" height="53.45" transform="translate(57.195 3.765) rotate(90)" fill="none" stroke="#efefef" stroke-linecap="round" stroke-linejoin="round" stroke-miterlimit="10" stroke-width="2"></rect><path id="Path_273" data-name="Path 273" d="M177.806,137.732a34.747,34.747,0,0,0,7.327-3.336,33.392,33.392,0,0,0,9.22-7.98,33.285,33.285,0,0,0-11.384,4.373,35.338,35.338,0,0,0-5.162,3.765,34.908,34.908,0,0,0-5.162-3.765,33.286,33.286,0,0,0-11.384-4.373,33.392,33.392,0,0,0,9.22,7.98A34.746,34.746,0,0,0,177.806,137.732Z" transform="translate(-147.326 -100.424)" fill="#efefef" stroke="#fff" stroke-linecap="round" stroke-linejoin="round" stroke-miterlimit="10" stroke-width="2"></path><path id="Path_274" data-name="Path 274" d="M176.954,139.522a38.668,38.668,0,0,0,6.7-8.251,37.841,37.841,0,0,0,5.14-12.962,38.459,38.459,0,0,0-9.243,10.46,36.686,36.686,0,0,0-2.592,4.982,44.5,44.5,0,0,0-2.592-4.982,38.459,38.459,0,0,0-9.243-10.46,37.841,37.841,0,0,0,5.14,12.962A38.669,38.669,0,0,0,176.954,139.522Z" transform="translate(-146.474 -102.214)" fill="#efefef" stroke="#fff" stroke-linecap="round" stroke-linejoin="round" stroke-miterlimit="10" stroke-width="2"></path><path id="Path_275" data-name="Path 275" d="M175.282,141.019a38.893,38.893,0,0,0,2.592-14.608,41.469,41.469,0,0,0-2.592-14.879,41.469,41.469,0,0,0-2.592,14.879A38.5,38.5,0,0,0,175.282,141.019Z" transform="translate(-144.802 -103.711)" fill="#efefef" stroke="#fff" stroke-linecap="round" stroke-linejoin="round" stroke-miterlimit="10" stroke-width="2"></path></g><rect id="Rectangle_89" data-name="Rectangle 89" width="86.905" height="865.329" transform="translate(0.025 466.44) rotate(-90)" fill="#efefef"></rect><line id="Line_68" data-name="Line 68" x2="865.442" transform="translate(-0.092 379.534)" fill="none" stroke="#000" stroke-linecap="round" stroke-linejoin="round" stroke-miterlimit="10" stroke-width="2"></line><g id="Group_239" data-name="Group 239" transform="translate(524.437 141.964)"><path id="Path_276" data-name="Path 276" d="M511.026,149.5a2.813,2.813,0,0,0,.5-1.33c.27-2.773.541-12.286-7.98-14.743-9.987-2.886-14.067,7.71-14.067,7.71h0a16.6,16.6,0,0,0-.812,2.8l-.09.451a15.939,15.939,0,0,0-.158,5.275l.135,1.014a11.62,11.62,0,0,1-.2,5.14c-.383.969-.473,2.051.879,2.119.744.045,1.443-.225,1.578.18.564,1.871.383,3.923,1.307,6,.992,2.164,6.064.271,7.778-.609h0c1.127,3.877.924,7.8,1.307,11.745a14.916,14.916,0,0,0,10.483-4.4l3.156-3.517.113-.09c-.541-.834-1.15-1.916-1.984-3.472-2.074-3.877-2.344-8.3-2.48-12.6a2.735,2.735,0,0,1,.541-1.668Z" transform="translate(-416.626 -132.43)" fill="#fff" stroke="#000" stroke-linecap="round" stroke-linejoin="round" stroke-miterlimit="10" stroke-width="2"></path><path id="Path_277" data-name="Path 277" d="M502.755,150.769a1.9,1.9,0,0,1,1.555-1.443,1.987,1.987,0,0,1,2.074.924,2.045,2.045,0,0,1,.225.969c-.023,1.533-.541,2.57-2.051,2.75.428,1.127,2.57,5.072,5,4.509,0,0,.947-.158,1.217-.631s-.586-1.668-.609-5.185c-.045-3.517.135-7.642-.045-10.077s-2.254-6.177-5.23-7.1c-3-.947-6.177-2.051-9.175-.744s-5.794,7.484-5.794,7.484a72.232,72.232,0,0,0,8.972,3.562C501.876,146.508,502.755,150.769,502.755,150.769Z" transform="translate(-416.223 -132.162)" fill="#face38" stroke="#000" stroke-linecap="round" stroke-linejoin="round" stroke-miterlimit="10" stroke-width="2"></path><path id="Path_278" data-name="Path 278" d="M503.49,134.152a.975.975,0,0,0-1.33-1.42l-1.984,1.781,1.308,1.308Z" transform="translate(-413.96 -132.52)" fill="#face38" stroke="#000" stroke-linecap="round" stroke-linejoin="round" stroke-miterlimit="10" stroke-width="2"></path><path id="Path_279" data-name="Path 279" d="M512.338,203.514c-4.351,6.132-10.55,9.761-17.246,13.188s-15.172,8.116-21.146,4.193a4.92,4.92,0,0,0-3.291-.609c-1.1.158-2.187,1.195-1.939,2.3.383,1.713,3.494,2.367,2.908,4.013-.271.744-1.195.992-1.984,1.15l-5.681,1.014c-.969.18-2.164.631-2.164,1.6.023.992,1.308,1.4,2.3,1.285s2.074-.451,2.908.113c-1.871,1.849-6.312,3.021-5.591,5.523.766,2.705,8.093-2.818,9.716-2.592,1.037.158-1.939,2.908-2.187,3.923a1.714,1.714,0,0,0,1.939,2.119,6.508,6.508,0,0,0,3.269-1.826c3.675-3.021,4.058-5.117,8.454-6.853,3.945-1.555,11.835-2.886,15.758-4.509,6.921-2.863,12.872-7.575,18.734-12.241a23.883,23.883,0,0,0,7.056-9.22c-3.472-1.736-6.988-3.382-10.6-4.847A10.644,10.644,0,0,1,512.338,203.514Z" transform="translate(-422.537 -117.345)" fill="#fff" stroke="#000" stroke-linecap="round" stroke-linejoin="round" stroke-miterlimit="10" stroke-width="2"></path><path id="Path_280" data-name="Path 280" d="M505.2,177.649c-4.847,2.84-.654,13.143-.654,13.143.2,5.5,1.781,11-.113,15.758,3.584,1.465,7.124,3.111,10.6,4.847a37.613,37.613,0,0,0,1.646-4.486A38.4,38.4,0,0,0,521,192.031C521.744,183.127,510.044,174.808,505.2,177.649Z" transform="translate(-413.367 -122.68)" fill="#face38" stroke="#000" stroke-linecap="round" stroke-linejoin="round" stroke-miterlimit="10" stroke-width="2"></path><path id="Path_281" data-name="Path 281" d="M502.289,311.673a55.424,55.424,0,0,0-3.607-5.816c-.338-.5-.7-.969-1.06-1.443-.947-1.24-1.939-2.457-2.976-3.629l-5.951-7.349-7.868,7.665,5.072,6.65a13.029,13.029,0,0,1,.519,1.375,10.921,10.921,0,0,1,.428,2.142c.5,5.749-4.238,10.009-6.74,14.18-1.939,3.2-4.1,6.4-4.914,10.122-.361,1.736-.406,4.08,1.375,5.05a5.047,5.047,0,0,0,2.232.5,10.576,10.576,0,0,0,6.515-2.3,26.22,26.22,0,0,0,5.568-6.538q5.579-8.285,11.182-16.547a3.9,3.9,0,0,0,.879-2.029A4.079,4.079,0,0,0,502.289,311.673Z" transform="translate(-419.521 -96.984)" fill="#face38" stroke="#000" stroke-linecap="round" stroke-linejoin="round" stroke-miterlimit="10" stroke-width="2"></path><path id="Path_282" data-name="Path 282" d="M506.843,222.565c-16.164,2.8-32.553.023-47.837,7.439-8.048,3.9-16.276,10.054-18.328,18.756-2.3,9.761-.338,27.683,7.146,38.143l27.548,23.265c3.066,5.3,6.65,9.671,11.61,15.329,6.425-5.546,9.446-10.167,15.668-15.961-9.288-11.272-21.506-26.669-29.261-38.3,0,0-8.7-8.386-6.447-12.128s40.984-7.3,40.984-7.3Z" transform="translate(-427.299 -112.635)" fill="#face38" stroke="#000" stroke-linecap="round" stroke-linejoin="round" stroke-miterlimit="10" stroke-width="2"></path><path id="Path_283" data-name="Path 283" d="M476.343,325.949a32.613,32.613,0,0,0-3.855-9.784c-.518-.969-1.037-1.939-1.578-2.976-.135-.271-.293-.564-.428-.857,0,0-3-7.665-2.051-12.917.947-5.23-9.356-4.306-9.356-4.306l-1.127,17.584a10.623,10.623,0,0,1-.564,1.691l-.2.473c-2.074,4.351-6.831,7.417-11.272,9.333-3.7,1.6-7.642,2.8-10.979,5.14-2.5,1.758-6.087,5.478-5.253,8.9.789,3.269,6,4.08,8.747,4.351,8.814.9,17.178-3.855,24.437-8.319,2.615-1.6,5.117-3.224,7.845-4.576C471.361,329.4,476.546,326.941,476.343,325.949Z" transform="translate(-429.555 -96.629)" fill="#face38" stroke="#000" stroke-linecap="round" stroke-linejoin="round" stroke-miterlimit="10" stroke-width="2"></path><path id="Path_284" data-name="Path 284" d="M535.146,241.28c1.172-18.8,1.353-37.85-2.1-55.434-1.285-6.56-8.409-15.127-13.413-19.59l-5.456-5.365-.113.09-3.156,3.517a14.876,14.876,0,0,1-10.483,4.4h-.992l.2,2.254c-.158,17.494-.924,59.74-5.41,65.444C498.446,238.372,519.524,246.623,535.146,241.28Z" transform="translate(-415.273 -126.255)" fill="#face38" stroke="#000" stroke-linecap="round" stroke-linejoin="round" stroke-miterlimit="10" stroke-width="2"></path><path id="Path_285" data-name="Path 285" d="M505.149,222.879a2.038,2.038,0,0,1-.2.225c-3.923,5.05-30.276,6.921-44.546,12.173-9.175,3.359-14.022,12.376-14.991,30.253-1.33,24.572-.969,36.52,2.277,60.89.045.316,23.671-.451,25.993-.518-.361-2.457-.744-4.96-.924-7.71-.654-10.19-.248-6.65-1.037-16.817-.676-8.882-2.773-23.9-.068-32.575,1.736-5.568,16.164-5.546,27.03-5.388,10.415.135,21.552,1.758,31.583-1.894,8.634-3.156,14-9.9,14.721-18.734.406-5.027.789-10.077,1.1-15.172C530.465,232.933,509.387,224.683,505.149,222.879Z" transform="translate(-426.214 -112.566)" fill="#face38" stroke="#000" stroke-linecap="round" stroke-linejoin="round" stroke-miterlimit="10" stroke-width="2"></path><path id="Path_286" data-name="Path 286" d="M491.146,148.735s.969.5,3.539-.586" transform="translate(-415.954 -129.069)" fill="none" stroke="#000" stroke-linecap="round" stroke-linejoin="round" stroke-miterlimit="10" stroke-width="2"></path><path id="Path_287" data-name="Path 287" d="M488.783,142.381c6.7,2.976,16.389,7.034,22.476,6.447,0,0,2.1-12.624-7.89-15.51s-14.067,7.71-14.067,7.71Z" transform="translate(-416.476 -132.454)" fill="#face38" stroke="#000" stroke-linecap="round" stroke-linejoin="round" stroke-miterlimit="10" stroke-width="2"></path><path id="Path_288" data-name="Path 288" d="M490.843,141.2c-3.63-1.623-6.357-2.908-7.169-3-2.254-.225-3.787.766-4.193,1.849-.406,1.1,3.968,5.3,8.927,5.658l1.533-.045Z" transform="translate(-418.536 -131.273)" fill="#face38" stroke="#000" stroke-linecap="round" stroke-linejoin="round" stroke-miterlimit="10" stroke-width="2"></path><path id="Path_289" data-name="Path 289" d="M492.485,138.141a14.516,14.516,0,0,0-.812,1.42.594.594,0,0,0,.406.834c1.42.338,4.373,1.668,5.816,2.187a2.631,2.631,0,0,0,.744.2,1.489,1.489,0,0,0,.316-.023C498.279,139.877,495.393,138.411,492.485,138.141Z" transform="translate(-415.85 -131.279)" fill="#fff" stroke="#000" stroke-linecap="round" stroke-linejoin="round" stroke-miterlimit="10" stroke-width="2"></path><path id="Path_290" data-name="Path 290" d="M500.759,138.373a3.685,3.685,0,0,0-3.224-2.592,5.263,5.263,0,0,0-3.9,1.4c-.045.045-.09.068-.113.113a8.718,8.718,0,0,0-1.195,1.4c2.908.271,5.794,1.736,6.447,4.621C500.579,142.995,501.233,140.244,500.759,138.373Z" transform="translate(-415.693 -131.805)" fill="#face38" stroke="#000" stroke-linecap="round" stroke-linejoin="round" stroke-miterlimit="10" stroke-width="2"></path><path id="Path_291" data-name="Path 291" d="M521.1,191.522c.225-3.449.406-7.146-1.285-10.167s-7.191-4.351-9.243-1.555c-4.554,6.222-4.328,18.8-6.65,30.253a111.074,111.074,0,0,0,14.608,2.48C520.156,205.724,520.652,198.555,521.1,191.522Z" transform="translate(-413.132 -122.418)" fill="#face38" stroke="#000" stroke-linecap="round" stroke-linejoin="round" stroke-miterlimit="10" stroke-width="2"></path><path id="Path_292" data-name="Path 292" d="M513.008,204.321a50.03,50.03,0,0,1-2.142,7.732c-4.712,12.669-13.368,22.9-26.4,26.579-3.2.9-11.272.225-14.586.428a14.49,14.49,0,0,0-5.974,1.262,2.073,2.073,0,0,0-1.037.969c-.361.924.541,1.916,1.488,2.142a11.21,11.21,0,0,0,2.75.113,4.639,4.639,0,0,1,1.939.473c.654.564-.113.947-.812,1.443a15.851,15.851,0,0,1-2.57,1.42c-.789.338-1.555,1.1-1.4,1.939a1.636,1.636,0,0,0,1.578,1.172,5.053,5.053,0,0,0,2.051-.473c2.119-.834,5.839-2.638,6.493-1.984,1.262,1.262-2.773,2.119-3.336,3.832-.225.7-.068.676.09,1.014.473.969,2.367.834,2.75.812,3.382-.316,5.816-1.781,9.288-3.81a64.54,64.54,0,0,1,8.386-4.6c13.346-5.929,27.345-16.073,33.184-29.442a50.133,50.133,0,0,0,2.818-8.566A107.944,107.944,0,0,1,513.008,204.321Z" transform="translate(-422.216 -116.664)" fill="#fff" stroke="#000" stroke-linecap="round" stroke-linejoin="round" stroke-miterlimit="10" stroke-width="2"></path></g><g id="Group_240" data-name="Group 240" transform="translate(645.615 153.123)"><path id="Path_293" data-name="Path 293" d="M567.235,326.311a37.849,37.849,0,0,1-1.443-4.486c-.023-.068-.023-.135-.045-.18a52.857,52.857,0,0,1-1.15-11.475h0l-.654-14.721-11.227.744,1.465,14.7c.721,6.718-.023,13.571-5.072,16.231C555.129,328.385,561.283,327.663,567.235,326.311Z" transform="translate(-524.33 -107.699)" fill="#fff" stroke="#000" stroke-linecap="round" stroke-linejoin="round" stroke-miterlimit="10" stroke-width="2"></path><path id="Path_294" data-name="Path 294" d="M553.592,321.54a8.806,8.806,0,0,1-1.826.721C545.882,323.929,539.5,324.4,534,327.4a11.234,11.234,0,0,0-4.824,4.576c-2.75,6.019,10.866,5.794,13.526,5.771,6.177-.09,12.331-.789,18.508-1.285,4.013-.316,9.942.473,12.016-4.328,1.42-3.314-.113-7.552-1.51-11.407C565.766,322.081,559.611,322.8,553.592,321.54Z" transform="translate(-528.813 -102.117)" fill="#e7287a" stroke="#000" stroke-linecap="round" stroke-linejoin="round" stroke-miterlimit="10" stroke-width="2"></path><path id="Path_295" data-name="Path 295" d="M591.41,290.369c-2.66-.7-5.365-1.285-7.552-3.066l-9.423-7.034-5.05,10.483c-.09.18,7.71,4.847,8.454,5.41,3.2,2.5,4.869,5.343,4.035,9.513C586.563,301.754,589.4,296.118,591.41,290.369Z" transform="translate(-519.853 -111.051)" fill="#fff" stroke="#000" stroke-linecap="round" stroke-linejoin="round" stroke-miterlimit="10" stroke-width="2"></path><path id="Path_296" data-name="Path 296" d="M595.27,290.076a20.33,20.33,0,0,0-4.351-1.533c-2.029,5.749-4.869,11.384-9.536,15.33a11.837,11.837,0,0,1-1.037,3.043c-3.043,6.177-7.732,8.025-8.657,15.194a4.558,4.558,0,0,0,.586,3.449,4.1,4.1,0,0,0,3.246,1.353,10.964,10.964,0,0,0,7.124-2.8c6.831-5.681,8.251-12.624,13.143-19.771C599.26,299.273,602.259,293.728,595.27,290.076Z" transform="translate(-519.362 -109.225)" fill="#e7287a" stroke="#000" stroke-linecap="round" stroke-linejoin="round" stroke-miterlimit="10" stroke-width="2"></path><path id="Path_297" data-name="Path 297" d="M564.3,233.67A117.783,117.783,0,0,0,588.109,205.2l4.058-8.612c5.23-3.562,9.355,2.818,8.048,8.431s-7.282,12.624-7.282,12.624a75.122,75.122,0,0,1-16.615,16.547l-10.167,6.763-9.175-1.308Z" transform="translate(-522.593 -129.759)" fill="#fff" stroke="#000" stroke-linecap="round" stroke-linejoin="round" stroke-miterlimit="10" stroke-width="2"></path><path id="Path_298" data-name="Path 298" d="M591.863,192.64c4.982,1.623,11.475.293,16.569-.383,6.4-.834,10.956-8.3,9.062-13.864-1.555-4.621-5.253-8.093-6.447-12.872-1.51-6.109,2.187-13.594-4.125-18.846-6.831-5.681-18.6-8-27.616,1.037-2.547,2.547-3.832,7.958-3.72,11,.113,3.134,1.33,9.04.969,12.106a39.455,39.455,0,0,1-1.51,6.2,10.058,10.058,0,0,0,2.841,9.874c2.412,2.48,8.612,4.531,12.151,5.433Z" transform="translate(-518.683 -141.661)" fill="#e7287a" stroke="#000" stroke-linecap="round" stroke-linejoin="round" stroke-miterlimit="10" stroke-width="2"></path><path id="Path_299" data-name="Path 299" d="M566.251,271.055a115.852,115.852,0,0,0,25.023,25.091c-3.088,4.554-6.177,9.085-9.265,13.639a64.4,64.4,0,0,1-13.413-9.4L546.165,286.9c-10.122-11.5-15.262-26.939-12.083-41.48.857-3.945,2.3-7.89,5.14-10.911,5.7-6.087,15.375-7.034,24.076-7.214,7.755-.158,18.711.316,26.443.676l-3.922,16.1s-21.709,3.742-26.2,9.919C555.137,260.144,566.251,271.055,566.251,271.055Z" transform="translate(-527.856 -122.757)" fill="#e7287a" stroke="#000" stroke-linecap="round" stroke-linejoin="round" stroke-miterlimit="10" stroke-width="2"></path><path id="Path_300" data-name="Path 300" d="M624.891,228.507a99.294,99.294,0,0,1-33.116-3.246c-4.892,4.306-14.5,4.937-20.492,6.132-8.116,1.623-16.908,2.615-22.656,9.333-7.259,8.5-6.177,26.4-5.208,36.836,1.285,13.751,4.328,27.255,7.394,40.713l1.33,6.492,13.368-.992c3.066-.361,3.043.248,2.84-3.336-.474-9.265-1.691-18.486-3.043-27.661-1.059-7.146-2.75-23.6-.316-27.909,5.208-9.22,18.6-1.984,26.669-.992,6.786.834,13.8,1.262,20.289-.812,6.493-2.1,12.422-7.214,13.639-13.932.586-3.2.068-6.47-.293-9.716A73.545,73.545,0,0,1,624.891,228.507Z" transform="translate(-525.741 -123.199)" fill="#e7287a" stroke="#000" stroke-linecap="round" stroke-linejoin="round" stroke-miterlimit="10" stroke-width="2"></path><path id="Path_301" data-name="Path 301" d="M617.963,212.409c-.2-7.575-2.66-18.824-6.9-25.091a96.879,96.879,0,0,0-7.53-9.491c-.428-.5-.857-1.014-1.307-1.555-2.886,6.7-9.243,11.272-16.3,13.233-1.375,4.892-3.675,11.678-3.562,16.073.09,3.968,4.08,6.335,4.125,10.19.09,12.083-.879,17.742-2.976,19.816-.158.158-.338.316-.5.473a99.411,99.411,0,0,0,33.116,3.246C616.475,230.421,618.256,222.959,617.963,212.409Z" transform="translate(-516.987 -134.018)" fill="#e7287a" stroke="#000" stroke-linecap="round" stroke-linejoin="round" stroke-miterlimit="10" stroke-width="2"></path><path id="Path_302" data-name="Path 302" d="M603.2,182.348c-.293-.338-.586-.7-.879-1.06-3.877-4.689-6.042-7.575-6.2-13.594l-.225-2.525c.023-.135.023-.293.045-.428.023-.09.023-.2.09-.271.09-.113.27-.045.383-.135,1.443-1.082,1.736-.992,2.638-2.57.541-.947.586-3-.248-3.72a2.192,2.192,0,0,0-2.277-.654c-.879.406-1.082.789-2.029,1.984-.654.834-1.443.654-3.336-.947A16.511,16.511,0,0,1,588.142,155a24.423,24.423,0,0,1-2.886-6.245c-7.845,1.195-5.7,6.808-5.974,12.173-.113,2.187-1.037,2.48-1.307,3.562-.248.969,1.691,1.488,1.691,1.488a26.171,26.171,0,0,1,1.15,4.464c.947,4.306,6.515,1.646,6.515,1.646v.045c-.023,2.074.9,14.541.5,19.23a5.551,5.551,0,0,1-.135.992c-.18.924-.473,2.029-.812,3.246C593.981,193.642,600.316,189.043,603.2,182.348Z" transform="translate(-517.961 -140.094)" fill="#fff" stroke="#000" stroke-linecap="round" stroke-linejoin="round" stroke-miterlimit="10" stroke-width="2"></path><path id="Path_303" data-name="Path 303" d="M613.905,191.3c-1.51-2.683-6.38-3.855-8.183-1.375-4.035,5.523-3.472,21.349-5.523,31.493a44.409,44.409,0,0,1-1.894,6.853c-4.193,11.227-12.241,15.623-23.761,18.869-2.84.789-10.009.2-12.94.383a12.827,12.827,0,0,0-5.3,1.1,1.851,1.851,0,0,0-.924.879c-.316.812.473,1.691,1.33,1.894a8.824,8.824,0,0,0,2.435.09,3.93,3.93,0,0,1,1.713.428c.586.519-.09.834-.721,1.285a13.261,13.261,0,0,1-2.277,1.262c-.7.293-1.4.969-1.24,1.736a1.44,1.44,0,0,0,1.4,1.037,4.238,4.238,0,0,0,1.8-.428c1.871-.744,5.185-2.322,5.749-1.758,1.127,1.127-2.457,1.871-2.953,3.4-.2.609-.068.609.09.9.428.857,2.1.744,2.435.721,3-.293,5.14-1.578,8.228-3.382a59.362,59.362,0,0,1,7.417-4.08c11.813-5.275,24.595-9.581,29.8-21.416a43.449,43.449,0,0,0,2.5-7.6c1.443-6.042,1.51-17.065,1.916-23.31C615.258,197.251,615.416,193.982,613.905,191.3Z" transform="translate(-522.961 -131.304)" fill="#fff" stroke="#000" stroke-linecap="round" stroke-linejoin="round" stroke-miterlimit="10" stroke-width="2"></path><path id="Path_304" data-name="Path 304" d="M585.034,157.386a3.352,3.352,0,0,0-3.111.361" transform="translate(-517.084 -138.239)" fill="none" stroke="#000" stroke-linecap="round" stroke-linejoin="round" stroke-miterlimit="10" stroke-width="2"></path><path id="Path_305" data-name="Path 305" d="M563.456,229.215c.428.361.541,1.217,1.195,1.488a2.365,2.365,0,0,0,1.713-.023c1.465-.518,2.5-1.668,4.035-2.074.969-.248,2.547.338,3.427-.225,2.322-1.465-3.2-3.066-5.05-3.72a14.683,14.683,0,0,0-5.23-1.172,14.12,14.12,0,0,0-4.486,1.127,20.9,20.9,0,0,0-5.568,2.705,1.073,1.073,0,0,0-.541.789.881.881,0,0,0,.361.654,2.777,2.777,0,0,0,2.5.2c.541-.158,3.472-1.578,2.931.158-.135.406-.361.766-.068,1.195.451.654,1.691.383,2.232.045C561.517,230,562.622,228.494,563.456,229.215Z" transform="translate(-523.482 -123.591)" fill="#fff" stroke="#000" stroke-linecap="round" stroke-linejoin="round" stroke-miterlimit="10" stroke-width="2"></path></g><g id="Group_241" data-name="Group 241" transform="translate(124.235 148.036)"><path id="Path_306" data-name="Path 306" d="M118.324,177.087c3.72-4.509,6-7.282,6.132-13.053l.023-2.435c-.023-.135-.023-.271-.045-.406-.023-.09-.023-.2-.09-.271a.708.708,0,0,0-.361-.135,3.157,3.157,0,0,1-2.705-2.57c-.2-1.308.158-3.246,1.443-3.562a3.192,3.192,0,0,1,.654-.045c2.48-.023,5.162-.338,6.876-2.142,1.217-1.262,1.758-3.021,2.57-4.6a13.314,13.314,0,0,1,1.465-2.254c.428-.518.564-1.15,1.24-1.1,9.761.766,7.89,8.138,8.161,13.323.113,2.1,1.172,3.787,1.127,4.869-.068,1.172-2.435,1.127-2.435,1.127s-.271,1.217-1.375,4.96c-1.24,4.216-6.425,1.668-6.425,1.668v.045c-.992,2.119-2.8,12.895-2.119,16.344.113.586.293,1.262.5,2.029a46.846,46.846,0,0,1-17.471-8.476Q116.836,178.879,118.324,177.087Z" transform="translate(-98.711 -135.945)" fill="#fff" stroke="#000" stroke-linecap="round" stroke-linejoin="round" stroke-miterlimit="10" stroke-width="2"></path><path id="Path_307" data-name="Path 307" d="M155.28,245.432a117.784,117.784,0,0,1-23.806-28.472l-4.058-8.612c-5.23-3.562-9.356,2.818-8.048,8.431S126.65,229.4,126.65,229.4a75.121,75.121,0,0,0,16.614,16.547l10.167,6.763,9.175-1.308Z" transform="translate(-97.907 -122.074)" fill="#fff" stroke="#000" stroke-linecap="round" stroke-linejoin="round" stroke-miterlimit="10" stroke-width="2"></path><path id="Path_308" data-name="Path 308" d="M105.84,229.158c.383-1.375.721-2.39.992-3.472a152.133,152.133,0,0,0,29.509.947c-.09,1.578.834,4.576,2.5,5.523,4.937,2.84,10.393,3.336,17.313,4.937,6.425,1.488,11.2,2.48,16.817,5.906,6.357,3.877,9.446,11.723,9.378,19.162s-2.75,14.586-5.749,21.416c-4.982,11.384-11.249,21.056-14.879,32.936-.473,1.555-1.06,3.607-1.578,5.906-4.08.045-8.183.023-12.264-.248v-.045a158.716,158.716,0,0,1,0-29.036c.9-10.145,7.236-19.162,14-26.872a17.833,17.833,0,0,0,1.127-1.691c2.232-3.088-7.507-3.562-11.475-3-12.444,1.8-25.767,4.035-38.008-.023-5.275-1.736-9.919-5.253-11.024-10.888C101.151,243.969,104.51,234.027,105.84,229.158Z" transform="translate(-101.647 -118.018)" fill="#7cb947" stroke="#000" stroke-linecap="round" stroke-linejoin="round" stroke-miterlimit="10" stroke-width="2"></path><path id="Path_309" data-name="Path 309" d="M153.755,336.568c-5.388,2.074-11.339,2.232-17.268,1.465-1.195-4.576,2.277-10.55,3.269-14.946.023-.068.023-.135.045-.18a52.855,52.855,0,0,0,1.15-11.475h0c-.023-2.254-.383-4.464-.609-6.7,4.08.271,8.206.293,12.264.248a62.024,62.024,0,0,0-1.24,7.146c-.789,7.462.18,15.059,6.9,16.953.631.18,1.262.338,1.894.5C158.106,332.195,156.483,335.418,153.755,336.568Z" transform="translate(-94.128 -100.561)" fill="#fff" stroke="#000" stroke-linecap="round" stroke-linejoin="round" stroke-miterlimit="10" stroke-width="2"></path><path id="Path_310" data-name="Path 310" d="M166.714,327.726a27.848,27.848,0,0,1,3.134,1.42,11.234,11.234,0,0,1,4.824,4.576,2.822,2.822,0,0,1,.158,2.457,33.747,33.747,0,0,1-10.6-1.713C164.121,332.032,165.316,329.8,166.714,327.726Z" transform="translate(-87.947 -95.484)" fill="#fff" stroke="#000" stroke-linecap="round" stroke-linejoin="round" stroke-miterlimit="10" stroke-width="2"></path><path id="Path_311" data-name="Path 311" d="M153.71,332.07c2.728-1.15,4.328-4.373,6.425-6.966,4.238,1.037,8.634,1.668,12.737,3.224-1.42,2.051-2.615,4.283-2.5,6.741a33.216,33.216,0,0,0,10.6,1.713c-1.533,3.494-11.452,3.336-13.684,3.314-6.177-.09-12.331-.789-18.508-1.285-4.013-.316-9.942.473-12.016-4.328a4.675,4.675,0,0,1-.316-.947C142.371,334.3,148.322,334.144,153.71,332.07Z" transform="translate(-94.083 -96.063)" fill="#7cb947" stroke="#000" stroke-linecap="round" stroke-linejoin="round" stroke-miterlimit="10" stroke-width="2"></path><path id="Path_312" data-name="Path 312" d="M193.44,317.6c-1.42-2.345.564-4.509,2.435-6.718a23.02,23.02,0,0,1,5,5.523,7.515,7.515,0,0,1,1.24,4.712,4.275,4.275,0,0,1-.609,1.646C198.152,322.18,195.221,320.8,193.44,317.6Z" transform="translate(-81.602 -99.203)" fill="#fff" stroke="#000" stroke-linecap="round" stroke-linejoin="round" stroke-miterlimit="10" stroke-width="2"></path><path id="Path_313" data-name="Path 313" d="M179.2,311.388c2.818,1.307,6.56,3,9.356.383a60.818,60.818,0,0,1,5.636-4.892c2.119,1.578,4.351,3.2,6.335,4.892-1.849,2.232-3.855,4.4-2.435,6.718,1.781,3.179,4.712,4.576,8.048,5.14a3.382,3.382,0,0,1-2.57,1.646,5.134,5.134,0,0,1-1.826-.338,41.768,41.768,0,0,1-5.523-2.48c-6.019-2.953-15.871-5.974-21.6-9.423-1.916-1.15-2.547-3.449-2.728-6.064A47.672,47.672,0,0,0,179.2,311.388Z" transform="translate(-86.253 -100.088)" fill="#7cb947" stroke="#000" stroke-linecap="round" stroke-linejoin="round" stroke-miterlimit="10" stroke-width="2"></path><path id="Path_314" data-name="Path 314" d="M172.794,303.041c0-.068-.023-.113-.023-.18a49.913,49.913,0,0,0-2.953-10.776,56.449,56.449,0,0,0-2.5-5.117c3.629-1.488,7.214-3.043,10.843-4.464a63.461,63.461,0,0,0,1.33,6.605c1.8,6.741,4.666,13.12,9.581,18.08a53.935,53.935,0,0,0,6.154,5.05,58.027,58.027,0,0,0-5.636,4.892c-2.818,2.615-6.56.947-9.356-.383a48.045,48.045,0,0,1-7.282-4.4C172.7,309.2,173.155,305.589,172.794,303.041Z" transform="translate(-87.265 -105.47)" fill="#fff" stroke="#000" stroke-linecap="round" stroke-linejoin="round" stroke-miterlimit="10" stroke-width="2"></path><path id="Path_315" data-name="Path 315" d="M164.578,244.2c-7.056-3.72-14.473-4.8-20.9-9.536,10.212-.338,22.5-5.23,31.561-.5,5.365,2.8,9.423,6.515,9.491,16.209.068,12.038-2.84,25.113-2.006,37.106.113,1.646.316,3.81.654,6.177-3.629,1.42-7.214,2.976-10.843,4.464a8.1,8.1,0,0,1-.383-.767,156.583,156.583,0,0,1-10.1-26.241C159.3,261.644,165.57,248.659,164.578,244.2Z" transform="translate(-92.484 -116.599)" fill="#7cb947" stroke="#000" stroke-linecap="round" stroke-linejoin="round" stroke-miterlimit="10" stroke-width="2"></path><path id="Path_316" data-name="Path 316" d="M104.742,206.322c.18-7.259,2.547-18.08,6.628-24.1a81.827,81.827,0,0,1,6.515-8.3,46.845,46.845,0,0,0,17.471,8.476c1.443,5.072,4.824,13.706,4.712,18.305-.09,3.81-3.72,6.605-4.283,10.37-1.691,11.249-.609,15.284.271,26.624l-29.938.316C107.718,223.906,104.359,220.254,104.742,206.322Z" transform="translate(-101.09 -129.448)" fill="#7cb947" stroke="#000" stroke-linecap="round" stroke-linejoin="round" stroke-miterlimit="10" stroke-width="2"></path><path id="Path_317" data-name="Path 317" d="M133.506,155.49a2.324,2.324,0,0,1,2.818-.473" transform="translate(-94.731 -133.69)" fill="none" stroke="#000" stroke-linecap="round" stroke-linejoin="round" stroke-miterlimit="10" stroke-width="2"></path><path id="Path_318" data-name="Path 318" d="M109.614,196.149c.023-2.345.18-4.914,1.713-6.7,1.849-2.187,5.388-2.48,7.845-1.037a9.017,9.017,0,0,1,4.1,7.169q.135,1.623.271,3.382a70.5,70.5,0,0,0-13.751,5.546C109.636,201.74,109.569,198.945,109.614,196.149Z" transform="translate(-100.01 -126.445)" fill="#7cb947" stroke="#000" stroke-linecap="round" stroke-linejoin="round" stroke-miterlimit="10" stroke-width="2"></path><path id="Path_319" data-name="Path 319" d="M123.511,196.917c1.014,11.5,3.2,26.872,7.958,36.385,5.253,10.483,13.639,14.856,25.271,16.3a32.562,32.562,0,0,0,6.786-.225c2.074-.18,5.275-.992,7.169.316a1.471,1.471,0,0,1,.519,2.006c-.451.564-1.285.518-2.006.473a18.1,18.1,0,0,0-3.314.09c-2.773.316-1.6,2.615.225,3.4,1.15.5,4.125,1.826,2.3,3.494a3,3,0,0,1-2.187.586,7.706,7.706,0,0,1-3.224-.924c-.541-.293-1.172-.676-1.736-.406a1.175,1.175,0,0,0-.519,1.33c.271,1.1,1.871,1.8,1.8,3.021-.09,2.029-3.224,1.42-4.351.9-3.156-1.51-4.982-4.914-8-6.538-5.974-3.224-14.225-3.156-20.221-6.357-4.306-2.3-7.372-4.193-10.212-8.138-2.547-3.539-4.013-7.755-5.23-11.948a128,128,0,0,1-4.779-28.134A66.108,66.108,0,0,1,123.511,196.917Z" transform="translate(-99.975 -124.371)" fill="#fff" stroke="#000" stroke-linecap="round" stroke-linejoin="round" stroke-miterlimit="10" stroke-width="2"></path><path id="Path_320" data-name="Path 320" d="M101.745,185.219c2.5-.068,4.283-2.39,5.478-4.576a44.91,44.91,0,0,0,5.32-17.877c.316-4.013.09-8.071.7-12.038s2.164-8.025,5.32-10.528a13.661,13.661,0,0,1,8.612-2.705c.225,0,.473,0,.7.023h0a26.23,26.23,0,0,1,9.265,2.5c3.156-.5,6.943-.812,9.491,1.1a9.18,9.18,0,0,1,2.57,3.359,28.643,28.643,0,0,1,2.457,11.407,64.737,64.737,0,0,1-.564,11.813c-1.127,8-3.742,16.412-.676,23.9a31.8,31.8,0,0,1-14.247-1.375,1.577,1.577,0,0,0-.248-.09c-.18-.654-.316-1.24-.428-1.736-.654-3.449,1.127-14.225,2.119-16.344v-.045s5.162,2.547,6.425-1.668c1.1-3.72,1.375-4.96,1.375-4.96s2.367.045,2.435-1.127c.068-1.082-1.014-2.75-1.127-4.869-.271-5.162,1.6-12.557-8.161-13.323-.676-.045-.812.586-1.24,1.1a13.313,13.313,0,0,0-1.465,2.254c-.812,1.555-1.353,3.314-2.57,4.6-1.713,1.781-4.4,2.1-6.876,2.142a3.191,3.191,0,0,0-.654.045c-1.285.316-1.668,2.254-1.443,3.562a3.185,3.185,0,0,0,2.705,2.57c.135.023.271.023.361.135a.394.394,0,0,1,.09.271,2.485,2.485,0,0,1,.045.406l-.023,2.435a17.127,17.127,0,0,1-.451,3.607l-.5,5.095a59.668,59.668,0,0,0-1.308,12.331c0,1.781.2,3.81,1.6,4.892-.812.068-1.646.09-2.5.09C116.6,191.644,108.057,189.412,101.745,185.219Z" transform="translate(-101.745 -137.494)" fill="#7cb947" stroke="#000" stroke-linecap="round" stroke-linejoin="round" stroke-miterlimit="10" stroke-width="2"></path></g><g id="Group_242" data-name="Group 242" transform="translate(227.024 140.146)"><path id="Path_321" data-name="Path 321" d="M229.891,203.583a52.024,52.024,0,0,0,1.939,7.913c4.418,13.008,12.917,23.648,26.038,27.751,3.224,1.014,11.452.564,14.811.879a14.772,14.772,0,0,1,6.019,1.443,2.111,2.111,0,0,1,1.014,1.014c.338.947-.586,1.916-1.578,2.119a10.551,10.551,0,0,1-2.8.023,4.551,4.551,0,0,0-1.984.428c-.676.564.068.969.789,1.51a16.466,16.466,0,0,0,2.57,1.533c.789.361,1.556,1.172,1.353,2.029a1.687,1.687,0,0,1-1.623,1.15,5.047,5.047,0,0,1-2.051-.541c-2.119-.9-5.861-2.84-6.538-2.209-1.33,1.262,2.75,2.232,3.269,3.99.2.7.045.7-.135,1.037-.518.969-2.435.789-2.818.744-3.427-.428-5.839-1.961-9.333-4.148a67.68,67.68,0,0,0-8.364-4.914c-13.368-6.425-27.3-17.11-32.846-30.862a51.846,51.846,0,0,1-2.615-8.792A111.971,111.971,0,0,0,229.891,203.583Z" transform="translate(-179.521 -115.009)" fill="#fff" stroke="#000" stroke-linecap="round" stroke-linejoin="round" stroke-miterlimit="10" stroke-width="2"></path><path id="Path_322" data-name="Path 322" d="M213.343,190.155c-.135-3.517-.2-7.259,1.6-10.28s7.417-4.216,9.423-1.307c4.441,6.447,3.855,19.23,5.884,30.93a49.181,49.181,0,0,1-14.9,2.074C213.907,204.583,213.614,197.324,213.343,190.155Z" transform="translate(-179.903 -120.902)" stroke="#fff" stroke-linecap="round" stroke-linejoin="round" stroke-miterlimit="10" stroke-width="2"></path><path id="Path_323" data-name="Path 323" d="M208.846,161.118c-1.262,4.035-2.615,6.808-5.208,9.378a5.063,5.063,0,0,0,.721,1.443s4.779,6.673,15.69,1.916c-1.713-3.99-2.277-7.079.338-11.7,0,0,6.357,2.006,7.169-1.826.766-3.607,1.285-6.335,1.285-6.335s2.863.293,2.66-.834c-.248-1.33-1.24-5.7-1.262-6.515-.023-.631,1.443-6.357-3.156-8.228l-10.415-.609s-6.47-.18-7.034,5.7C209.071,149.418,208.846,161.118,208.846,161.118Z" transform="translate(-182.033 -129.535)" fill="#fff"></path><path id="Path_324" data-name="Path 324" d="M296.546,281.719c-.135-15.262-1.127-28.45-12.016-39.9-4.554-4.779-10.167-6.876-16.7-8.9-10.347-3.224-30.93-6.357-43.8-4.666l.676,28.878s33.657-.947,42.021,6.267c6.447,5.568,7.71,51.8,7.935,72.7,5.027-1.285,10.145-2.457,15.149-3.923C292.872,316.751,296.681,297.206,296.546,281.719Z" transform="translate(-177.531 -109.668)" fill="#38c4f2" stroke="#000" stroke-linecap="round" stroke-linejoin="round" stroke-miterlimit="10" stroke-width="2"></path><path id="Path_325" data-name="Path 325" d="M307.514,328.575c-.947-4.621-9.243-7.575-12.872-8.409-3.63-.857-7.417-.338-10.686-2.435a17.558,17.558,0,0,1-2.48-2.006,2.313,2.313,0,0,1-.924-2.254c-4.869.383-10.257,2.525-15.036,3.742.068,6.222.045,10.19.045,10.19,0,.541,10.956,2.84,12.083,3.156,6.132,1.668,12.241,3.427,18.6,4.1a16.989,16.989,0,0,0,6.492-.271C305.283,333.625,308.123,331.528,307.514,328.575Z" transform="translate(-168.368 -90.742)" fill="#7cb947" stroke="#000" stroke-linecap="round" stroke-linejoin="round" stroke-miterlimit="10" stroke-width="2"></path><path id="Path_326" data-name="Path 326" d="M212.032,240.252a134.089,134.089,0,0,0,19.5-5.275c-.158-14.18-.383-26.511-.338-39.676.023-9.31-.338-21.213-7.755-27.3-10.731,4.509-15.352-2.029-15.352-2.029a2.613,2.613,0,0,1-.541-1.24l-.338.09c-5.816,6.064-10.888,6.447-14.045,13.436-8.228,18.26-8,43.576-6.2,65.624.5-.068.992-.135,1.51-.225C196.432,242.528,203.849,241.965,212.032,240.252Z" transform="translate(-185.941 -123.589)" fill="#ec237a" stroke="#000" stroke-linecap="round" stroke-linejoin="round" stroke-miterlimit="10" stroke-width="2"></path><path id="Path_327" data-name="Path 327" d="M286.763,344.5v-.564c3.043-16.727,6.177-37.918,6.042-54.758-.135-16.457-1.127-30.7-12.016-43.058-4.554-5.162-10.167-7.417-16.7-9.626a139.032,139.032,0,0,0-32.688-6.357v-3.179c-.023-1.578-.023-3.134-.045-4.666a137.835,137.835,0,0,1-19.5,5.275c-8.183,1.713-15.6,2.277-23.58,3.427-.5.09-.992.158-1.51.225.316,4.013.7,7.913,1.082,11.632.451,4.261.992,8.589,2.66,12.557,2.39,5.613,7.124,9.085,12.737,11.136,10.19,3.72,21.506,2.074,32.1,1.939,11.046-.158,25.97-2.773,29.1,6.447,6.132,18.08,7.98,46.237,8.521,73.311a74.193,74.193,0,0,0,14.022-3.494A.8.8,0,0,0,286.763,344.5Z" transform="translate(-185.76 -110.879)" fill="#38c4f2" stroke="#000" stroke-linecap="round" stroke-linejoin="round" stroke-miterlimit="10" stroke-width="2"></path><path id="Path_328" data-name="Path 328" d="M299.457,337.672a6.717,6.717,0,0,0-1.195-2.57,15.16,15.16,0,0,0-7.394-4.847c-3.291-1.06-6.763-1.4-10.145-2.142a21.361,21.361,0,0,1-6.7-2.457c-2.3-1.42-1.465-3.787-6.244-2.006-.834.316-10.393,2.435-10.393,2.322.068,3.945.135,7.868.158,11.745,0-.338,16.93,3.787,18.553,4.216,5.861,1.556,14.112,4.035,19.951,1.465a5.886,5.886,0,0,0,3.224-3.021A4.628,4.628,0,0,0,299.457,337.672Z" transform="translate(-170.162 -88.635)" fill="#7cb947" stroke="#000" stroke-linecap="round" stroke-linejoin="round" stroke-miterlimit="10" stroke-width="2"></path><path id="Path_329" data-name="Path 329" d="M208.822,162.5c-3.224-1.375-3.134-5.726-3.9-8.634-.451-1.691-1.172-3.314-1.713-4.982a14.859,14.859,0,0,1-.721-6.2,7.976,7.976,0,0,1,1.713-4.644,9.956,9.956,0,0,1,6.042-2.818c2.232-.248,4.509.135,6.74-.2A15.461,15.461,0,0,0,223,132.316a6.268,6.268,0,0,1,3.224-1.285c1.488.023,3.336,1.262,2.886,2.908-1.1,4.1-4.531,6.087-8.093,8.048-1.713.947-4.171,1.127-5.208,2.886-.744,1.262-.406,4.216-.2,5.658.113.789-.473.361-.969.271a2,2,0,0,0-1.15.09,2.452,2.452,0,0,0-.9.766c-1.556,2.142.316,4.666,2.773,4.464a1.275,1.275,0,0,1,.293,0c.564.135-.293,1.849-.428,2.187a9.769,9.769,0,0,1-1.217,2.3c-1.127,1.51-3,2.638-4.892,1.984A.735.735,0,0,1,208.822,162.5Z" transform="translate(-182.302 -131.031)" fill="#face38" stroke="#000" stroke-linecap="round" stroke-linejoin="round" stroke-miterlimit="10" stroke-width="2"></path><path id="Path_330" data-name="Path 330" d="M227.083,138.621c4.6,1.871,3.134,7.6,3.156,8.228.045.834,1.037,5.208,1.262,6.515.2,1.127-2.66.834-2.66.834s-.518,2.728-1.285,6.335c-.812,3.832-7.169,1.826-7.169,1.826-2.615,4.621-2.051,7.71-.338,11.7-10.934,4.734-15.69-1.916-15.69-1.916a4.785,4.785,0,0,1-.721-1.443c2.57-2.57,3.945-5.343,5.208-9.378" transform="translate(-182.033 -129.355)" fill="none" stroke="#000" stroke-linecap="round" stroke-linejoin="round" stroke-miterlimit="10" stroke-width="2"></path><path id="Path_331" data-name="Path 331" d="M220.4,145.984a3.23,3.23,0,0,0,3.111-.18" transform="translate(-178.33 -127.769)" fill="none" stroke="#000" stroke-linecap="round" stroke-linejoin="round" stroke-miterlimit="10" stroke-width="2"></path><path id="Path_332" data-name="Path 332" d="M206.8,232.227c3.675-3.517,11.475-3.923,20.2-3.427" transform="translate(-181.336 -109.479)" fill="none" stroke="#000" stroke-linecap="round" stroke-linejoin="round" stroke-miterlimit="10" stroke-width="2"></path><path id="Path_333" data-name="Path 333" d="M211.621,205.171a51.936,51.936,0,0,0,1.1,8.071c3.043,13.391,10.393,24.865,22.994,30.321,3.088,1.33,11.339,1.736,14.631,2.412a14.618,14.618,0,0,1,5.839,2.074,2.1,2.1,0,0,1,.9,1.127c.248.969-.789,1.849-1.781,1.939a10.7,10.7,0,0,1-2.8-.27,4.256,4.256,0,0,0-2.006.225c-.721.5-.023.969.609,1.578a15.309,15.309,0,0,0,2.39,1.781,2.031,2.031,0,0,1,1.15,2.142,1.661,1.661,0,0,1-1.736.969,5.3,5.3,0,0,1-1.984-.744c-2.029-1.127-5.546-3.427-6.267-2.863-1.443,1.1,2.5,2.5,2.84,4.306.135.721-.023.7-.248,1.014-.609.9-2.5.541-2.863.451-3.382-.789-5.613-2.57-8.837-5.095a67.255,67.255,0,0,0-7.823-5.771c-12.624-7.777-25.361-19.883-29.464-34.131a51.268,51.268,0,0,1-1.691-9.017A115.741,115.741,0,0,0,211.621,205.171Z" transform="translate(-183.591 -114.659)" fill="#fff" stroke="#000" stroke-linecap="round" stroke-linejoin="round" stroke-miterlimit="10" stroke-width="2"></path><path id="Path_334" data-name="Path 334" d="M196.88,190.229c.248-3.517.564-7.236,2.66-10.054,2.119-2.818,7.823-3.4,9.513-.316,3.742,6.876,1.826,19.523,2.615,31.358a50.294,50.294,0,0,1-15.036.519C195.911,204.635,196.385,197.376,196.88,190.229Z" transform="translate(-183.662 -120.706)" stroke="#fff" stroke-linecap="round" stroke-linejoin="round" stroke-miterlimit="10" stroke-width="2"></path></g><g id="Group_243" data-name="Group 243" transform="translate(374.361 108.337)"><path id="Path_335" data-name="Path 335" d="M385.146,319.341c-4.734-.9-6.538-1.353-10.6-2.029l-.383,3.7a3.036,3.036,0,0,1-.744,1.713,8.654,8.654,0,0,1-2.525,2.863,84.18,84.18,0,0,0,13.413,3.224C384.605,325.18,384.943,321.347,385.146,319.341Z" transform="translate(-292.432 -58.085)" fill="#fff" stroke="#000" stroke-linecap="round" stroke-linejoin="round" stroke-miterlimit="10" stroke-width="2"></path><path id="Path_336" data-name="Path 336" d="M375.53,324.07c-7.169,5.388-23.783,5.681-25.542,14.5-.879,4.441,7.71,5.568,18.486,2.322l19.7-4.712.09-.631c.113-1.1.383-4.554.7-8.251A81.513,81.513,0,0,1,375.53,324.07Z" transform="translate(-297.064 -56.593)" fill="#804097" stroke="#000" stroke-linecap="round" stroke-linejoin="round" stroke-miterlimit="10" stroke-width="2"></path><path id="Path_337" data-name="Path 337" d="M379.759,348.725c-2.615,2.5-3.832,7.191-1.06,9.513a7.53,7.53,0,0,0,4.847,1.33c10.009.158,18.17-5.05,25.474-11.339a22.036,22.036,0,0,0,3.494-4.306s-.2-4.779-.383-9.265c-4.216-.428-8.431-.947-12.647-1.465C394.908,341.173,384.516,344.148,379.759,348.725Z" transform="translate(-291.058 -54.578)" fill="#804097" stroke="#000" stroke-linecap="round" stroke-linejoin="round" stroke-miterlimit="10" stroke-width="2"></path><path id="Path_338" data-name="Path 338" d="M397.315,324.7c-.09.2-1.082,8.769-1.24,9.085-.2.451-.428.857-.654,1.285q6.323.812,12.647,1.465c-.113-2.592-.225-5.095-.293-6.56A35.945,35.945,0,0,0,397.315,324.7Z" transform="translate(-287.017 -56.454)" fill="#fff" stroke="#000" stroke-linecap="round" stroke-linejoin="round" stroke-miterlimit="10" stroke-width="2"></path><path id="Path_339" data-name="Path 339" d="M393.772,166.043a64.049,64.049,0,0,1-9.694,8.454c-6.245,4.576-13.03,9.671-21.168,9.378-4.689-.158-9.108-2.119-13.323-4.148s-8.409-4.125-12.557-6.335c-2.006-1.06-3.99-2.187-6-3.269a53.752,53.752,0,0,0-6.064-3.2c-4.283-2.209-6.132-1.082-10.888-1.871a6.642,6.642,0,0,1-3.584-1.285,1.724,1.724,0,0,1,.316-2.886c.947-.5,5.05-.068,4.464-.969-.9-1.4-10.009-3.291-8.476-5.681,1.443-2.232,5.3.383,7.935.564-.113-.992-1.1-1.623-1.849-2.3s-1.308-1.939-.564-2.615,1.894-.045,2.66.564c1.533,1.217,3.043,2.435,4.576,3.652.631.5,1.443,1.037,2.187.744,1.646-.654.09-3.472,1.127-4.892a2.16,2.16,0,0,1,3.043-.045,8.261,8.261,0,0,1,1.736,2.908,17.213,17.213,0,0,0,5.388,6.267,28.127,28.127,0,0,0,7.62,3.72c5.839,2.051,11.835,4.441,18.08,4.824a21.315,21.315,0,0,0,14.45-4.576c2.863-2.3,5.365-5.072,8.071-7.575a33.507,33.507,0,0,1,6.515-4.892c3.584-1.984,10.686-1.51,11.249,3.675C399.5,158.175,397.176,162.255,393.772,166.043Z" transform="translate(-306.626 -95.189)" fill="#fff" stroke="#000" stroke-linecap="round" stroke-linejoin="round" stroke-miterlimit="10" stroke-width="2"></path><path id="Path_340" data-name="Path 340" d="M412.622,205.537a3.377,3.377,0,0,0,.5.045c.045.406.09.789.158,1.15,5,37.264,3.539,82.306,3.359,119.66-.045,11.362-.045,20.83-.451,31.606a10,10,0,0,0-.18,1.262c-3.7-.9-12.579-3.066-16.344-4.148a26.962,26.962,0,0,0,.451-4.734c.293-25.271-3.291-48.6-8.048-73.334-1.014,23.242-1.871,54.4-3,74.01-.812-.361-13.549-3.066-17.358-7.214.316-25.5-.451-44.636-1.758-70.741-1.1-22.16-1.623-47.274-1.443-71.936,10.438,1.533,20.2.338,30.839,2.593A111.66,111.66,0,0,0,412.622,205.537Z" transform="translate(-292.969 -83.735)" fill="#804097" stroke="#000" stroke-linecap="round" stroke-linejoin="round" stroke-miterlimit="10" stroke-width="2"></path><path id="Path_341" data-name="Path 341" d="M417.917,177.373c-.09-6.718,1.353-12.173-.676-19.838-1.375-5.208-2.254-9.017-7.214-13.977-10.077-7.124-32.913-9.243-39,0-6.087,9.017-9.649,16.209-13.774,22.634a95.155,95.155,0,0,0,14.338,12.4c.045,1.33.09,2.683.158,4.013.271,6.267-.473,12.8-1.15,21.371-.5,6.245,0,7.665.451,14.428l44.185,1.127c1.353-8.341.451-12.4,2.029-20.064C418.706,192.364,418.03,184.61,417.917,177.373Z" transform="translate(-295.446 -97.818)" fill="#804097" stroke="#000" stroke-linecap="round" stroke-linejoin="round" stroke-miterlimit="10" stroke-width="2"></path><path id="Path_342" data-name="Path 342" d="M387.269,148.822c3.765-2.254,5.05-1.443,8.792-3.607-2.277-3.043-5.185-8.589-5.05-13.391a9.109,9.109,0,0,1,.113-4.486,25.433,25.433,0,0,0,.519-10.866c-.812-3.359-5.365-6.064-9.108-5.974a66.625,66.625,0,0,0-8.409.924c-4.419,1.42-2.367,7.913-3.066,10.1-.248.812-1.691,3.855-1.6,5.23.09,1.195,2.592.924,2.592.924a23.753,23.753,0,0,1,1.285,5.117c.676,3.9,6.988,2.074,7.011,2.051,1.06-.316,0,9.558-.271,10.438a9.777,9.777,0,0,0-.27,6.7,15.835,15.835,0,0,1,.338,5.636,13.581,13.581,0,0,1,2.615-5.185A29.024,29.024,0,0,1,387.269,148.822Z" transform="translate(-292.751 -103.758)" fill="#fff" stroke="#000" stroke-linecap="round" stroke-linejoin="round" stroke-miterlimit="10" stroke-width="2"></path><path id="Path_343" data-name="Path 343" d="M388.552,131.195c-.564-.812-1.082-1.646-1.578-2.5-.2-.361-1.15-1.939-.135-1.916,2.5.023,4.193-2.683,2.48-4.712a2.048,2.048,0,0,0-.947-.7,2.074,2.074,0,0,0-1.172,0c-.541.135-.879.5-.969-.18a12.368,12.368,0,0,0-.316-2.006c-.789-2.615-2.344-4.013-4.869-5.162a15.268,15.268,0,0,0-4.8-1.15,23.831,23.831,0,0,1-3.81-.518,4.458,4.458,0,0,1-3.449-3.787c-.271-1.8,1.262-2.5,2.728-2.3a30.9,30.9,0,0,0,3.765.541,10.37,10.37,0,0,0,3.742-1.262,4.377,4.377,0,0,1,3.81-.2c.676.406,1.15,1.127,1.849,1.488,1.127.586,2.367.023,3.539.271a3.837,3.837,0,0,1,2.344,2.1,2.7,2.7,0,0,0,1.082,1.353c.857.406,1.826-.045,2.705.406a3.117,3.117,0,0,1,1.646,2.142c.338,1.6-.834,3.246-.225,4.779a5.653,5.653,0,0,0,1.353,1.668c2.435,2.547-1.285,4.193-1.713,6.583-.225,1.262.834,3.72-1.082,4.058a7.7,7.7,0,0,0-1.443.225A2.774,2.774,0,0,0,392,131.488a3.56,3.56,0,0,1-1.014,1.15,1.308,1.308,0,0,1-1.713-.473C389.025,131.848,388.777,131.533,388.552,131.195Z" transform="translate(-292.862 -104.977)" fill="#804097" stroke="#000" stroke-linecap="round" stroke-linejoin="round" stroke-miterlimit="10" stroke-width="2"></path><path id="Path_344" data-name="Path 344" d="M376.786,118.8a3.175,3.175,0,0,0-3.043-.406" transform="translate(-291.804 -102.072)" fill="none" stroke="#000" stroke-linecap="round" stroke-linejoin="round" stroke-miterlimit="10" stroke-width="2"></path><path id="Path_345" data-name="Path 345" d="M377.768,154.9c2.705-9.468,8.566-3.832,8.566-3.832,5.861-4.058,12.85-7.439,10.145-13.075-1.1-2.322-5.41-2.931-5.41-2.931s1.578,2.48,2.48,3.832a20.935,20.935,0,0,1-5.185,2.931A16.63,16.63,0,0,0,380.7,147C378.9,149.485,377.768,154.9,377.768,154.9Z" transform="translate(-290.915 -98.334)" fill="#804097" stroke="#000" stroke-linecap="round" stroke-linejoin="round" stroke-miterlimit="10" stroke-width="2"></path><path id="Path_346" data-name="Path 346" d="M379.627,136.165s-6.988,3.156-7.214,12.624c0,0,7.214-3.832,6.763,4.734Z" transform="translate(-292.098 -98.089)" fill="#804097" stroke="#000" stroke-linecap="round" stroke-linejoin="round" stroke-miterlimit="10" stroke-width="2"></path><path id="Path_347" data-name="Path 347" d="M368.9,175.183s.225-18.486.9-22.769" transform="translate(-292.873 -94.501)" fill="none" stroke="#000" stroke-linecap="round" stroke-linejoin="round" stroke-miterlimit="10" stroke-width="2"></path><line id="Line_69" data-name="Line 69" x1="7.214" y1="52.075" transform="translate(91.812 141.324)" fill="#38c4f2" stroke="#000" stroke-linecap="round" stroke-linejoin="round" stroke-miterlimit="10" stroke-width="2"></line><path id="Path_348" data-name="Path 348" d="M412.1,171.665a1.831,1.831,0,0,1,.654.271,2.71,2.71,0,0,1,.812,2.232c.518,11.227,0,23.22-3.224,34.018-3.427,11.407-6.628,23.039-6.132,35.078.158,3.562.609,7.146.023,10.663a6.563,6.563,0,0,1-1.443,3.449,2.985,2.985,0,0,1-3.427.812c-1.1-.586-1.443-2.412-.406-3.134a2.343,2.343,0,0,1-2.908.7,2.151,2.151,0,0,1-.857-2.818c-1.646-.023-1.646,3.4-3.382,3.156a1.449,1.449,0,0,1-1.195-1.578l1.172-14.09c-.09,1.646-.2,3.269-.293,4.914-.045.744-.158,1.623-.924,1.871a1.345,1.345,0,0,1-.789,0,3.159,3.159,0,0,1-2.119-3.179,9.3,9.3,0,0,1,1.127-3.81c8.747-19.049,10.3-40.894,9.31-61.634-.27-5.456.7-3.81.338-5a.794.794,0,0,1,.7-1.014c4.238-.361,7.034-.428,11.723-.9A3.813,3.813,0,0,1,412.1,171.665Z" transform="translate(-288.729 -90.261)" fill="#fff" stroke="#000" stroke-linecap="round" stroke-linejoin="round" stroke-miterlimit="10" stroke-width="2"></path><path id="Path_349" data-name="Path 349" d="M402.165,149.074c-11.61.406-6.786,32.913-6.786,32.913,5.568-.135,12.016-.428,17.584-.541.248,0-.248-15.082-.361-16.479C412.129,158.813,412.219,148.736,402.165,149.074Z" transform="translate(-287.245 -95.24)" fill="#804097" stroke="#000" stroke-linecap="round" stroke-linejoin="round" stroke-miterlimit="10" stroke-width="2"></path></g></g></g></svg> 