<?xml version="1.0" encoding="UTF-8"?> <!-- Generator: Adobe Illustrator 22.1.0, SVG Export Plug-In . SVG Version: 6.00 Build 0) --> <svg xmlns="http://www.w3.org/2000/svg" xmlns:xlink="http://www.w3.org/1999/xlink" version="1.1" id="Layer_1" x="0px" y="0px" viewBox="0 0 144 144" style="enable-background:new 0 0 144 144;" xml:space="preserve"> <style type="text/css"> .st0{fill:#878889;} .st1{fill:#FFFFFF;} </style> <circle class="st0" cx="72.1" cy="72" r="71"></circle> <g> <path class="st1" d="M72.1,39.9c10.5,0,11.7,0.1,15.8,0.2c3.8,0.2,5.9,0.8,7.3,1.3c1.8,0.7,3.1,1.6,4.5,2.9 c1.3,1.3,2.2,2.7,2.9,4.5c0.5,1.3,1.2,3.5,1.3,7.3c0.2,4.1,0.2,5.3,0.2,15.8s-0.1,11.7-0.2,15.8c-0.2,3.8-0.8,5.9-1.3,7.3 c-0.7,1.8-1.6,3.1-2.9,4.5c-1.3,1.3-2.7,2.2-4.5,2.9c-1.3,0.5-3.5,1.2-7.3,1.3c-4.1,0.2-5.3,0.2-15.8,0.2s-11.7-0.1-15.8-0.2 c-3.8-0.2-5.9-0.8-7.3-1.3c-1.8-0.7-3.1-1.6-4.5-2.9c-1.3-1.3-2.2-2.7-2.9-4.5c-0.5-1.3-1.2-3.5-1.3-7.3C40.1,83.7,40,82.5,40,72 s0.1-11.7,0.2-15.8c0.2-3.8,0.8-5.9,1.3-7.3c0.7-1.8,1.6-3.1,2.9-4.5c1.3-1.3,2.7-2.2,4.5-2.9c1.3-0.5,3.5-1.2,7.3-1.3 C60.5,40,61.6,39.9,72.1,39.9 M72.1,32.9c-10.6,0-11.9,0.1-16.1,0.2S49,34,46.5,35c-2.6,1-4.7,2.3-6.9,4.5 c-2.2,2.2-3.5,4.3-4.5,6.9c-0.9,2.5-1.7,5.3-1.8,9.5c-0.2,4.1-0.2,5.4-0.2,16.1s0.1,11.9,0.2,16.1c0.2,4.2,0.8,7,1.8,9.5 c1,2.6,2.3,4.7,4.5,6.9c2.2,2.2,4.3,3.5,6.9,4.5c2.5,0.9,5.3,1.7,9.5,1.8s5.5,0.2,16.1,0.2s11.9-0.1,16.1-0.2 c4.2-0.2,7-0.8,9.5-1.8c2.6-1,4.7-2.3,6.9-4.5c2.2-2.2,3.5-4.3,4.5-6.9c0.9-2.5,1.7-5.3,1.8-9.5c0.2-4.2,0.2-5.5,0.2-16.1 S111.1,60,111,55.8c-0.2-4.2-0.8-7-1.8-9.5c-1-2.6-2.3-4.7-4.5-6.9c-2.2-2.2-4.3-3.5-6.9-4.5c-2.5-0.9-5.3-1.7-9.5-1.8 C84.1,32.9,82.7,32.9,72.1,32.9"></path> <path class="st1" d="M72.1,51.9c-11.1,0-20,9-20,20.1c0,11.1,9,20.1,20.1,20.1s20-9.1,20-20.1S83.2,51.9,72.1,51.9 M72.1,85 C64.9,85,59,79.1,59,71.9c0-7.2,5.8-13.1,13.1-13.1s13.1,5.8,13.1,13.1S79.3,85,72.1,85"></path> <path class="st1" d="M97.6,51.1c0,2.6-2.1,4.7-4.7,4.7c-2.6,0-4.7-2.1-4.7-4.7s2.1-4.7,4.7-4.7C95.6,46.4,97.6,48.5,97.6,51.1"></path> </g> </svg> 