<?xml version="1.0" encoding="UTF-8"?> <svg xmlns="http://www.w3.org/2000/svg" xmlns:xlink="http://www.w3.org/1999/xlink" width="41.35" height="39.283" viewBox="0 0 41.35 39.283"><defs><clipPath id="clip-path"><rect id="Rectangle_130" data-name="Rectangle 130" width="41.35" height="39.283" transform="translate(0 0)" fill="none"></rect></clipPath></defs><g id="Group_590" data-name="Group 590" transform="translate(0 0)" clip-path="url(#clip-path)"><path id="Path_544" data-name="Path 544" d="M32.27,38.283H2.866A1.865,1.865,0,0,1,1,36.417V13.446A1.865,1.865,0,0,1,2.866,11.58h29.4Z" fill="#fff" fill-rule="evenodd"></path><path id="Path_545" data-name="Path 545" d="M32.27,38.283H2.866A1.865,1.865,0,0,1,1,36.417V13.446A1.865,1.865,0,0,1,2.866,11.58h29.4Z" fill="none" stroke="#000" stroke-linecap="round" stroke-linejoin="round" stroke-width="2"></path><path id="Path_546" data-name="Path 546" d="M32.27,11.58h6.01a2.07,2.07,0,0,1,2.07,2.07V36.213a2.07,2.07,0,0,1-2.07,2.07H32.27Z" fill="#fff" fill-rule="evenodd"></path><path id="Path_547" data-name="Path 547" d="M32.27,11.58h6.01a2.07,2.07,0,0,1,2.07,2.07V36.213a2.07,2.07,0,0,1-2.07,2.07H32.27Z" fill="none" stroke="#000" stroke-linecap="round" stroke-linejoin="round" stroke-width="2"></path><path id="Path_548" data-name="Path 548" d="M5.284,33.963l.036-18.1,22.665.036L27.95,33.963Z" fill="#0cf" fill-rule="evenodd"></path><path id="Path_549" data-name="Path 549" d="M5.284,33.963l.036-18.1,22.665.036L27.95,33.963Z" fill="none" stroke="#000" stroke-linecap="round" stroke-linejoin="round" stroke-width="2"></path><path id="Path_550" data-name="Path 550" d="M13.346.875l8.938,10.312a1.139,1.139,0,0,0,1.871-.221l3.489-6.72" fill="none" stroke="#000" stroke-linecap="round" stroke-miterlimit="10" stroke-width="1.75"></path><path id="Path_551" data-name="Path 551" d="M36.31,18.019a1.44,1.44,0,1,0,1.44,1.44,1.44,1.44,0,0,0-1.44-1.44" fill-rule="evenodd"></path><path id="Path_552" data-name="Path 552" d="M36.31,22.764a1.44,1.44,0,1,0,1.44,1.44,1.44,1.44,0,0,0-1.44-1.44" fill-rule="evenodd"></path><line id="Line_107" data-name="Line 107" x2="1.613" transform="translate(35.504 29.781)" fill="#fff"></line><line id="Line_108" data-name="Line 108" x2="1.613" transform="translate(35.504 29.781)" fill="none" stroke="#000" stroke-linecap="round" stroke-linejoin="round" stroke-width="2"></line><line id="Line_109" data-name="Line 109" x2="1.613" transform="translate(35.504 32.954)" fill="#fff"></line><line id="Line_110" data-name="Line 110" x2="1.613" transform="translate(35.504 32.954)" fill="none" stroke="#000" stroke-linecap="round" stroke-linejoin="round" stroke-width="2"></line></g></svg> 