<?xml version="1.0" encoding="UTF-8"?> <svg xmlns="http://www.w3.org/2000/svg" xmlns:xlink="http://www.w3.org/1999/xlink" width="42.025" height="38.161" viewBox="0 0 42.025 38.161"><defs><clipPath id="clip-path"><rect id="Rectangle_182" data-name="Rectangle 182" width="42.025" height="38.161" fill="none"></rect></clipPath></defs><g id="Group_693" data-name="Group 693" transform="translate(0 0)"><g id="Group_693-2" data-name="Group 693" transform="translate(0 0)" clip-path="url(#clip-path)"><path id="Path_909" data-name="Path 909" d="M13.241,34.192H11.552a2.169,2.169,0,0,1-2.168-2.169V25.7H15.41v6.324a2.169,2.169,0,0,1-2.169,2.169" transform="translate(1.044 2.858)" fill="#fff"></path><path id="Path_910" data-name="Path 910" d="M13.241,34.192H11.552a2.169,2.169,0,0,1-2.168-2.169V25.7H15.41v6.324A2.169,2.169,0,0,1,13.241,34.192Z" transform="translate(1.044 2.858)" fill="none" stroke="#000" stroke-linecap="round" stroke-linejoin="round" stroke-width="2"></path><path id="Path_911" data-name="Path 911" d="M26.869,34.192H25.18a2.169,2.169,0,0,1-2.168-2.169V25.7h6.026v6.324a2.169,2.169,0,0,1-2.169,2.169" transform="translate(2.559 2.858)" fill="#fff"></path><path id="Path_912" data-name="Path 912" d="M26.869,34.192H25.18a2.169,2.169,0,0,1-2.168-2.169V25.7h6.026v6.324A2.169,2.169,0,0,1,26.869,34.192Z" transform="translate(2.559 2.858)" fill="none" stroke="#000" stroke-linecap="round" stroke-linejoin="round" stroke-width="2"></path><path id="Path_913" data-name="Path 913" d="M34.006,30.727l-6.075,1.5a31.8,31.8,0,0,1-15.3,0l-6.075-1.5V1H34.006Z" transform="translate(0.729 0.111)" fill="#face38"></path><path id="Path_914" data-name="Path 914" d="M34.006,30.727l-6.075,1.5a31.8,31.8,0,0,1-15.3,0l-6.075-1.5V1H34.006Z" transform="translate(0.729 0.111)" fill="none" stroke="#000" stroke-linecap="round" stroke-linejoin="round" stroke-width="2"></path><path id="Path_915" data-name="Path 915" d="M10.327,25.346H6.559V20.822h3.768a1.528,1.528,0,0,1,1.527,1.528v1.469a1.527,1.527,0,0,1-1.527,1.527" transform="translate(0.729 2.315)" fill="#fff"></path><path id="Path_916" data-name="Path 916" d="M10.327,25.346H6.559V20.822h3.768a1.528,1.528,0,0,1,1.527,1.528v1.469A1.527,1.527,0,0,1,10.327,25.346Z" transform="translate(0.729 2.315)" fill="none" stroke="#000" stroke-linecap="round" stroke-linejoin="round" stroke-width="2"></path><path id="Path_917" data-name="Path 917" d="M31.347,25.346H27.579a1.527,1.527,0,0,1-1.527-1.527V22.35a1.528,1.528,0,0,1,1.527-1.528h3.768Z" transform="translate(2.897 2.315)" fill="#fff"></path><path id="Path_918" data-name="Path 918" d="M31.347,25.346H27.579a1.527,1.527,0,0,1-1.527-1.527V22.35a1.528,1.528,0,0,1,1.527-1.528h3.768Z" transform="translate(2.897 2.315)" fill="none" stroke="#000" stroke-linecap="round" stroke-linejoin="round" stroke-width="2"></path><line id="Line_255" data-name="Line 255" x2="6.685" transform="translate(17.67 23.566)" fill="#fff"></line><line id="Line_256" data-name="Line 256" x2="6.685" transform="translate(17.67 23.566)" fill="none" stroke="#000" stroke-linecap="round" stroke-linejoin="round" stroke-width="2"></line><line id="Line_257" data-name="Line 257" x2="5.922" transform="translate(18.052 27.233)" fill="#fff"></line><line id="Line_258" data-name="Line 258" x2="5.922" transform="translate(18.052 27.233)" fill="none" stroke="#000" stroke-linecap="round" stroke-linejoin="round" stroke-width="2"></line><rect id="Rectangle_176" data-name="Rectangle 176" width="3.119" height="5.614" transform="translate(1.111 9.689)" fill="#fff"></rect><rect id="Rectangle_177" data-name="Rectangle 177" width="3.119" height="5.614" transform="translate(1.111 9.689)" fill="none" stroke="#000" stroke-linecap="round" stroke-linejoin="round" stroke-width="2"></rect><path id="Path_919" data-name="Path 919" d="M7.973,4.573H5.323A4.323,4.323,0,0,0,1,8.9v4.942" transform="translate(0.111 0.508)" fill="none" stroke="#000" stroke-linecap="round" stroke-linejoin="round" stroke-width="2"></path><rect id="Rectangle_178" data-name="Rectangle 178" width="3.119" height="5.614" transform="translate(37.794 9.689)" fill="#fff"></rect><rect id="Rectangle_179" data-name="Rectangle 179" width="3.119" height="5.614" transform="translate(37.794 9.689)" fill="none" stroke="#000" stroke-linecap="round" stroke-linejoin="round" stroke-width="2"></rect><path id="Path_920" data-name="Path 920" d="M30.543,4.573h2.65A4.323,4.323,0,0,1,37.516,8.9v4.942" transform="translate(3.397 0.508)" fill="none" stroke="#000" stroke-linecap="round" stroke-linejoin="round" stroke-width="2"></path><rect id="Rectangle_180" data-name="Rectangle 180" width="27.447" height="14.069" transform="translate(7.288 5.08)" fill="#fff"></rect><rect id="Rectangle_181" data-name="Rectangle 181" width="27.447" height="14.069" transform="translate(7.288 5.08)" fill="none" stroke="#000" stroke-linecap="round" stroke-linejoin="round" stroke-width="2"></rect></g></g></svg> 