<?xml version="1.0" encoding="utf-8"?>
<!-- Generator: Adobe Illustrator 21.0.2, SVG Export Plug-In . SVG Version: 6.00 Build 0)  -->
<svg version="1.1" id="Layer_1" xmlns="http://www.w3.org/2000/svg" xmlns:xlink="http://www.w3.org/1999/xlink" x="0px" y="0px"
	 viewBox="0 0 179 70" style="enable-background:new 0 0 179 70;" xml:space="preserve">
<style type="text/css">
	.st0{fill:#11090B;}
</style>
<g>
	<path class="st0" d="M66.8,0.1H3.4c-1.8,0-3.2,1.4-3.2,3.2v63.5c0,1.8,1.4,3.2,3.2,3.2h63.5c1.8,0,3.2-1.4,3.2-3.2V56.5h-1.7
		c-1.5,0-2-0.2-2.7-1.5l-2.9-5.4c-0.3-0.6-1.1-0.6-1.6-0.6h-0.9v7.6h-4.3V42.8h-1.2c-0.4,0-0.7,0.2-0.7,0.7v11.9
		c0,5.9-4.6,8.2-9.1,8.2c-2.2,0-4.5-0.6-6.1-1.5l1.3-3.4c0,0,2.1,1.2,4.8,1.2c2.6,0,4.9-1.1,4.9-4.2v-0.8c0-0.4,0-0.9,0-0.9h-0.1
		c-1,1.5-2.5,2.2-4.8,2.2c-3.8,0-6.4-2.4-7.3-5.7c-1.1,3.9-4.8,6.4-9.1,6.4c0,0,0,0-0.1,0c-5.2,0-9.4-3.8-9.4-9.1
		c0-5.3,4.2-9,9.4-9.1c0,0,0,0,0,0c4.2,0,7.7,2.4,9,6c0.8-3.5,3.3-6,7.4-6c4,0,5.3,2.4,5.3,2.4h0.1c0,0,0-0.2,0-0.4
		c0-0.8,0.5-1.6,1.9-1.6h3.8v-2.4c0-0.5-0.3-0.7-0.7-0.7h-1.4v-3.7h4.1c1.6,0,2.3,0.4,2.3,2v10.9h1.3c0.5,0,1.3-0.1,1.6-0.6l3.5-5.5
		H70V3.3C70,1.6,68.6,0.1,66.8,0.1z"/>
	<path class="st0" d="M45.5,42.4c-2.6,0-4,1.9-4,4.8c0,3,1.5,5.3,4.3,5.3c2.1,0,4-1.2,4-5.1C49.9,43.5,47.9,42.4,45.5,42.4z"/>
	<path class="st0" d="M28.4,42.4c-2.8,0-5.1,2.2-5.1,5.4c0,3.2,2.3,5.3,5,5.4c0,0,0.1,0,0.1,0c2.8,0,5.2-2.2,5.2-5.4
		C33.6,44.6,31.2,42.4,28.4,42.4C28.4,42.4,28.4,42.4,28.4,42.4z"/>
	<path class="st0" d="M65.8,47L65.8,47c0,0.1,0.6,0.3,1.2,1.4l2,3.7c0.2,0.4,0.5,0.6,1,0.6V41.3l-2.9,4.4C66.3,46.8,65.8,47,65.8,47
		z"/>
	<path class="st0" d="M176.7,52.8c-1,0-1.8,0.8-1.8,1.8c0,1,0.8,1.8,1.8,1.8c1,0,1.8-0.8,1.8-1.8C178.5,53.6,177.7,52.8,176.7,52.8z
		 M176.7,56.1c-0.9,0-1.5-0.7-1.5-1.5c0-0.9,0.6-1.5,1.5-1.5c0.9,0,1.5,0.7,1.5,1.5C178.2,55.5,177.5,56.1,176.7,56.1z"/>
	<path class="st0" d="M177.5,54.1c0-0.4-0.2-0.6-0.7-0.6H176v2.1h0.3v-0.9h0.4l0.6,0.9h0.3l-0.6-0.9
		C177.3,54.7,177.5,54.5,177.5,54.1z M176.6,54.5h-0.3v-0.7h0.5c0.2,0,0.5,0,0.5,0.3C177.2,54.5,176.9,54.5,176.6,54.5z"/>
	<path class="st0" d="M81.8,39.3c1.8,0,5.7,0.8,5.7,3.4v1.4h-2v-0.9c0-1.3-2.3-2-3.7-2c-3.5,0-6.2,2.6-6.2,6.5c0,4,2.9,6.4,6.3,6.4
		c3.3,0,5.2-2.3,5.2-2.3l1,1.6c0,0-2.2,2.6-6.3,2.6c-4.8,0-8.5-3.4-8.5-8.4C73.4,42.8,77,39.3,81.8,39.3z"/>
	<path class="st0" d="M90.8,42.3c0-0.4-0.3-0.7-0.7-0.7h-1.3v-1.9H91c1.3,0,2,0.5,2,1.8v1.1c0,0.7-0.1,1.2-0.1,1.2h0.1
		c0.8-2.4,2.6-4.3,5.1-4.3c0.4,0,0.9,0.1,0.9,0.1v2.1c0,0-0.4-0.1-0.8-0.1c-2.3,0-4,1.8-4.7,4.2C93.1,46.9,93,48,93,49v6.8h-2.2
		V42.3z"/>
	<path class="st0" d="M106.6,39.3c4.5,0,6.8,3.4,6.8,7.4c0,0.4-0.1,1.1-0.1,1.1h-12.4c0.1,4.1,2.9,6.4,6.2,6.4c2.9,0,4.8-2,4.8-2
		l1.1,1.6c0,0-2.3,2.3-6,2.3c-4.8,0-8.4-3.5-8.4-8.4C98.6,42.5,102.3,39.3,106.6,39.3z M111.1,46.1c-0.1-3.3-2.2-5-4.5-5
		c-2.7,0-5,1.7-5.5,5H111.1z"/>
	<path class="st0" d="M124.3,45.8h0.9v-0.2c0-3.4-1.2-4.5-4.2-4.5c-0.8,0-3.1,0.2-3.1,1.4v1h-2.1V42c0-2.2,3.8-2.7,5.3-2.7
		c5.1,0,6.3,2.7,6.3,6.2v7.7c0,0.5,0.3,0.7,0.7,0.7h1.3v1.9h-2.2c-1.4,0-1.9-0.6-1.9-1.9c0-0.7,0-1.2,0-1.2h-0.1
		c0,0-1.3,3.5-5.3,3.5c-2.7,0-5.5-1.6-5.5-4.8C114.4,46,121.5,45.8,124.3,45.8z M120.3,54.3c3.1,0,4.9-3.2,4.9-6v-0.7h-0.9
		c-2.5,0-7.6,0.1-7.6,3.7C116.7,52.8,117.9,54.3,120.3,54.3z"/>
	<path class="st0" d="M130.5,41.5h-2.1v-1.8h2.1v-4.4h2.1v4.4h4v1.8h-4v8.2c0,3.8,2.4,4.3,3.6,4.3c0.4,0,0.7-0.1,0.7-0.1v2
		c0,0-0.4,0.1-0.9,0.1c-1.9,0-5.6-0.6-5.6-6V41.5z"/>
	<path class="st0" d="M140.6,42.3c0-0.4-0.3-0.7-0.7-0.7h-1.3v-1.9h2.3c1.4,0,2,0.6,2,2v11.6c0,0.5,0.3,0.7,0.7,0.7h1.3v1.9h-2.3
		c-1.4,0-2-0.6-2-2V42.3z M140.6,33.3h2.1V36h-2.1V33.3z"/>
	<path class="st0" d="M145.8,42.3c-0.2-0.6-0.5-0.7-1.1-0.7h-0.3v-1.9h0.9c1.5,0,2,0.3,2.6,1.8l3.9,10.1c0.3,0.8,0.5,1.9,0.5,1.9
		h0.1c0,0,0.3-1.1,0.5-1.9l3.9-10.1c0.5-1.4,1-1.8,2.5-1.8h0.8v1.9h-0.3c-0.6,0-0.9,0.2-1.1,0.7l-5.2,13.5h-2.4L145.8,42.3z"/>
	<path class="st0" d="M168.1,39.3c4.5,0,6.8,3.4,6.8,7.4c0,0.4-0.1,1.1-0.1,1.1h-12.4c0.1,4.1,2.9,6.4,6.2,6.4c2.9,0,4.8-2,4.8-2
		l1.1,1.6c0,0-2.3,2.3-6,2.3c-4.8,0-8.4-3.5-8.4-8.4C160.2,42.5,163.8,39.3,168.1,39.3z M172.6,46.1c-0.1-3.3-2.2-5-4.5-5
		c-2.7,0-5,1.7-5.5,5H172.6z"/>
</g>
</svg>
