<?xml version="1.0" encoding="UTF-8"?> <svg xmlns="http://www.w3.org/2000/svg" width="278" height="187" viewBox="0 0 278 187"><g id="Group_324" data-name="Group 324" transform="translate(-728 -172)"><g id="Group_320" data-name="Group 320"><g id="Group_319" data-name="Group 319"><g id="Recovery_House_Siebold_Addiction_1216_living_g_dinings-60mb" transform="translate(728 172)" fill="#ed207a" stroke="#000" stroke-width="2"><rect width="278" height="187" rx="20" stroke="none"></rect><rect x="1" y="1" width="276" height="185" rx="19" fill="none"></rect></g></g></g><g id="Group_329" data-name="Group 329" transform="translate(0 -45.554)"><text id="Female_Residences" data-name="Female Residences" transform="translate(867 348)" fill="#fff" font-size="20" font-family="Outfit-Bold, Outfit" font-weight="700"><tspan x="-86.88" y="0">Female Residences</tspan></text><g id="Group_45" data-name="Group 45" transform="translate(814.569 269.107)"><path id="Stroke_1" data-name="Stroke 1" d="M0,.5H92.862" transform="translate(0 38.393)" fill="none" stroke="#fefefe" stroke-linecap="round" stroke-miterlimit="10" stroke-width="2"></path><path id="Stroke_3" data-name="Stroke 3" d="M0,9.706,16.267.2A1.161,1.161,0,0,1,17.588.21L33.859,9.965" transform="translate(49.494 2.074)" fill="none" stroke="#fefefe" stroke-linecap="round" stroke-miterlimit="10" stroke-width="2"></path><path id="Stroke_5" data-name="Stroke 5" d="M4.581,5.6H1.017A1.017,1.017,0,0,1,0,4.581V1.017A1.017,1.017,0,0,1,1.017,0H4.581A1.017,1.017,0,0,1,5.6,1.017V4.581A1.017,1.017,0,0,1,4.581,5.6Z" transform="translate(23.081 20.693)" fill="none" stroke="#fefefe" stroke-linecap="round" stroke-miterlimit="10" stroke-width="2"></path><path id="Stroke_7" data-name="Stroke 7" d="M.5,0V23.128" transform="translate(78.186 12.413)" fill="none" stroke="#fefefe" stroke-linecap="round" stroke-miterlimit="10" stroke-width="2"></path><path id="Stroke_9" data-name="Stroke 9" d="M.5,23.128V0" transform="translate(53.661 12.413)" fill="none" stroke="#fefefe" stroke-linecap="round" stroke-miterlimit="10" stroke-width="2"></path><path id="Stroke_11" data-name="Stroke 11" d="M.462,6.307A.46.46,0,0,1,0,5.826a6.306,6.306,0,0,1,12.576,0,.46.46,0,0,1-.462.481Z" transform="translate(60.162 9.259)" fill="none" stroke="#fefefe" stroke-linecap="round" stroke-miterlimit="10" stroke-width="2"></path><path id="Stroke_13" data-name="Stroke 13" d="M14.912,9.89V1.2A1.115,1.115,0,0,0,13.9,0H1.007A1.114,1.114,0,0,0,0,1.2V9.89" transform="translate(58.995 25.708)" fill="none" stroke="#fefefe" stroke-linecap="round" stroke-miterlimit="10" stroke-width="2"></path><path id="Stroke_15" data-name="Stroke 15" d="M48.66,5.839,36.868.116a1.162,1.162,0,0,0-1.021,0L.2,17.727a.351.351,0,0,0,.155.666H8.766" transform="translate(9.509 0)" fill="none" stroke="#fefefe" stroke-linecap="round" stroke-miterlimit="10" stroke-width="2"></path><path id="Stroke_17" data-name="Stroke 17" d="M.5,0V17.057" transform="translate(13.693 18.484)" fill="none" stroke="#fefefe" stroke-linecap="round" stroke-miterlimit="10" stroke-width="2"></path><path id="Stroke_19" data-name="Stroke 19" d="M7.3,11.628V.751A.751.751,0,0,0,6.552,0H.751A.751.751,0,0,0,0,.751V11.628" transform="translate(43.139 23.966)" fill="none" stroke="#fefefe" stroke-linecap="round" stroke-miterlimit="10" stroke-width="2"></path><g id="Group_24" data-name="Group 24" transform="translate(18 32.893)"><path id="Fill_21" data-name="Fill 21" d="M0,0,1.485,2.2a.518.518,0,0,0,.843.024L4.012,0" transform="translate(0.275 0.421)" fill="#fefefe"></path><path id="Stroke_23" data-name="Stroke 23" d="M0,0,1.485,2.2a.518.518,0,0,0,.843.024L4.012,0" transform="translate(0.275 0.421)" fill="none" stroke="#fefefe" stroke-linecap="round" stroke-miterlimit="10" stroke-width="2"></path></g><g id="Group_28" data-name="Group 28" transform="translate(19 30.893)"><path id="Fill_25" data-name="Fill 25" d="M.5,4.551V0" transform="translate(0.758 0.145)" fill="#fefefe"></path><path id="Stroke_27" data-name="Stroke 27" d="M.5,4.551V0" transform="translate(0.758 0.145)" fill="none" stroke="#fefefe" stroke-linecap="round" stroke-miterlimit="10" stroke-width="2"></path></g><g id="Group_32" data-name="Group 32" transform="translate(26 32.893)"><path id="Fill_29" data-name="Fill 29" d="M0,0,1.485,2.2a.518.518,0,0,0,.843.024L4.013,0" transform="translate(0.842 0.421)" fill="#fefefe"></path><path id="Stroke_31" data-name="Stroke 31" d="M0,0,1.485,2.2a.518.518,0,0,0,.843.024L4.013,0" transform="translate(0.842 0.421)" fill="none" stroke="#fefefe" stroke-linecap="round" stroke-miterlimit="10" stroke-width="2"></path></g><g id="Group_36" data-name="Group 36" transform="translate(28 30.893)"><path id="Fill_33" data-name="Fill 33" d="M.5,4.551V0" transform="translate(0.324 0.145)" fill="#fefefe"></path><path id="Stroke_35" data-name="Stroke 35" d="M.5,4.551V0" transform="translate(0.324 0.145)" fill="none" stroke="#fefefe" stroke-linecap="round" stroke-miterlimit="10" stroke-width="2"></path></g><g id="Group_40" data-name="Group 40" transform="translate(35 32.893)"><path id="Fill_37" data-name="Fill 37" d="M0,0,1.485,2.2a.519.519,0,0,0,.844.024L4.013,0" transform="translate(0.408 0.421)" fill="#fefefe"></path><path id="Stroke_39" data-name="Stroke 39" d="M0,0,1.485,2.2a.519.519,0,0,0,.844.024L4.013,0" transform="translate(0.408 0.421)" fill="none" stroke="#fefefe" stroke-linecap="round" stroke-miterlimit="10" stroke-width="2"></path></g><g id="Group_44" data-name="Group 44" transform="translate(36 30.893)"><path id="Fill_41" data-name="Fill 41" d="M.5,4.551V0" transform="translate(0.891 0.145)" fill="#fefefe"></path><path id="Stroke_43" data-name="Stroke 43" d="M.5,4.551V0" transform="translate(0.891 0.145)" fill="none" stroke="#fefefe" stroke-linecap="round" stroke-miterlimit="10" stroke-width="2"></path></g></g></g></g></svg> 