<?xml version="1.0" encoding="UTF-8"?> <svg xmlns="http://www.w3.org/2000/svg" width="278" height="187" viewBox="0 0 278 187"><g id="Group_322" data-name="Group 322" transform="translate(-728 -172)"><g id="Group_320" data-name="Group 320"><g id="Group_319" data-name="Group 319"><g id="Recovery_House_Siebold_Addiction_1216_living_g_dinings-60mb" transform="translate(728 172)" fill="#0cf" stroke="#000" stroke-width="2"><rect width="278" height="187" rx="20" stroke="none"></rect><rect x="1" y="1" width="276" height="185" rx="19" fill="none"></rect></g></g></g><g id="Group_330" data-name="Group 330" transform="translate(0 -45.554)"><text id="Male_Residences" data-name="Male Residences" transform="translate(867 348)" fill="#fff" font-size="20" font-family="Outfit-Bold, Outfit" font-weight="700"><tspan x="-75.5" y="0">Male Residences</tspan></text><g id="Group_35" data-name="Group 35" transform="translate(820.569 275.099)"><path id="Stroke_1" data-name="Stroke 1" d="M0,0H33.429a1.719,1.719,0,0,1,.908.26L45.5,7.217A.369.369,0,0,1,45.3,7.9H28.4" transform="translate(32.982 5.542)" fill="none" stroke="#fefefe" stroke-linecap="round" stroke-miterlimit="10" stroke-width="2"></path><path id="Stroke_3" data-name="Stroke 3" d="M0,14.543,20.758.326a1.867,1.867,0,0,1,2.124.011l20.765,14.54" transform="translate(2.669 0)" fill="none" stroke="#fefefe" stroke-linecap="round" stroke-miterlimit="10" stroke-width="2"></path><path id="Stroke_5" data-name="Stroke 5" d="M0,19.947V0H25.836" transform="translate(18.419 13.442)" fill="none" stroke="#fefefe" stroke-linecap="round" stroke-miterlimit="10" stroke-width="2"></path><path id="Stroke_7" data-name="Stroke 7" d="M.5,0V23.307" transform="translate(9.063 9.821)" fill="none" stroke="#fefefe" stroke-linecap="round" stroke-miterlimit="10" stroke-width="2"></path><path id="Stroke_9" data-name="Stroke 9" d="M.5,0V2.543" transform="translate(70.081 15.984)" fill="none" stroke="#fefefe" stroke-linecap="round" stroke-miterlimit="10" stroke-width="2"></path><path id="Stroke_11" data-name="Stroke 11" d="M7.7,13.983V.792A.791.791,0,0,0,6.906,0H.791A.79.79,0,0,0,0,.792V13.983" transform="translate(44.255 18.942)" fill="none" stroke="#fefefe" stroke-linecap="round" stroke-miterlimit="10" stroke-width="2"></path><path id="Stroke_13" data-name="Stroke 13" d="M7.584,7.484H1.5A1.5,1.5,0,0,1,0,5.987V1.5A1.5,1.5,0,0,1,1.5,0H7.584a1.5,1.5,0,0,1,1.5,1.5v4.49A1.5,1.5,0,0,1,7.584,7.484Z" transform="translate(56.727 17.339)" fill="none" stroke="#fefefe" stroke-linecap="round" stroke-miterlimit="10" stroke-width="2"></path><path id="Stroke_15" data-name="Stroke 15" d="M7.585,7.484H1.5A1.5,1.5,0,0,1,0,5.987V1.5A1.5,1.5,0,0,1,1.5,0H7.585a1.5,1.5,0,0,1,1.5,1.5v4.49A1.5,1.5,0,0,1,7.585,7.484Z" transform="translate(24.549 17.339)" fill="none" stroke="#fefefe" stroke-linecap="round" stroke-miterlimit="10" stroke-width="2"></path><path id="Stroke_17" data-name="Stroke 17" d="M0,.5H92.862" transform="translate(0 35.455)" fill="none" stroke="#fefefe" stroke-linecap="round" stroke-miterlimit="10" stroke-width="2"></path><path id="Stroke_19" data-name="Stroke 19" d="M15.175,12.62a4.971,4.971,0,1,0,0-9.941,4.918,4.918,0,0,0-1.6.286A4.728,4.728,0,0,0,4.459,4.731c0,.019.005.035.005.053a4.055,4.055,0,0,0-.519-.053,3.937,3.937,0,0,0-.2,7.869Z" transform="translate(66.274 20.305)" fill="none" stroke="#fefefe" stroke-linecap="round" stroke-miterlimit="10" stroke-width="2"></path><path id="Stroke_21" data-name="Stroke 21" d="M.5,19.169V0" transform="translate(39.261 14.22)" fill="none" stroke="#fefefe" stroke-linecap="round" stroke-miterlimit="10" stroke-width="2"></path><path id="Stroke_23" data-name="Stroke 23" d="M0,.5H21.342" transform="translate(18.419 28.433)" fill="none" stroke="#fefefe" stroke-linecap="round" stroke-miterlimit="10" stroke-width="2"></path><path id="Stroke_25" data-name="Stroke 25" d="M.5,0V4.456" transform="translate(22.086 28.933)" fill="none" stroke="#fefefe" stroke-linecap="round" stroke-miterlimit="10" stroke-width="2"></path><path id="Stroke_27" data-name="Stroke 27" d="M.5,0V4.456" transform="translate(25.483 28.933)" fill="none" stroke="#fefefe" stroke-linecap="round" stroke-miterlimit="10" stroke-width="2"></path><path id="Stroke_29" data-name="Stroke 29" d="M.5,0V4.456" transform="translate(28.881 28.933)" fill="none" stroke="#fefefe" stroke-linecap="round" stroke-miterlimit="10" stroke-width="2"></path><path id="Stroke_31" data-name="Stroke 31" d="M.5,0V4.456" transform="translate(32.279 28.933)" fill="none" stroke="#fefefe" stroke-linecap="round" stroke-miterlimit="10" stroke-width="2"></path><path id="Stroke_33" data-name="Stroke 33" d="M.5,0V4.456" transform="translate(35.677 28.933)" fill="none" stroke="#fefefe" stroke-linecap="round" stroke-miterlimit="10" stroke-width="2"></path></g></g></g></svg> 