<?xml version="1.0" encoding="UTF-8"?> <svg xmlns="http://www.w3.org/2000/svg" width="278" height="187" viewBox="0 0 278 187"><g id="Group_540" data-name="Group 540" transform="translate(-728 -172)"><g id="Group_320" data-name="Group 320"><g id="Group_319" data-name="Group 319"><g id="Recovery_House_Siebold_Addiction_1216_living_g_dinings-60mb" transform="translate(728 172)" fill="#93f" stroke="#000" stroke-width="2"><rect width="278" height="187" rx="20" stroke="none"></rect><rect x="1" y="1" width="276" height="185" rx="19" fill="none"></rect></g></g></g><text id="Reco_Ranch" data-name="Reco Ranch" transform="translate(867 304)" fill="#fff" font-size="20" font-family="Outfit-Bold, Outfit" font-weight="700"><tspan x="-52.85" y="0">Reco Ranch</tspan></text><g id="ranch-01" transform="translate(820.57 228)"><path id="Path" d="M0,.5H92.86" transform="translate(0 36.09)" fill="none" stroke="#fff" stroke-linecap="round" stroke-miterlimit="10" stroke-width="2"></path><path id="Path-2" data-name="Path" d="M15.109,12.62a5,5,0,0,0,0-9.94,4.73,4.73,0,0,0-1.6.29,4.73,4.73,0,0,0-9.12,1.76.43.43,0,0,0,0,.05,4.36,4.36,0,0,0-.52-.05,3.94,3.94,0,0,0-.2,7.87Z" transform="translate(66.341 21.16)" fill="none" stroke="#fff" stroke-linecap="round" stroke-miterlimit="10" stroke-width="2"></path><path id="Shape" d="M.88,20.48A.882.882,0,0,1,0,19.59V.89A.88.88,0,0,1,.88,0H16.37a.89.89,0,0,1,.89.89v18.7a.89.89,0,0,1-.89.89Z" transform="translate(17.8 14.16)" fill="#fff"></path><path id="Path-3" data-name="Path" d="M9.458,19.93a.89.89,0,0,1-1.64,0L.068,1.23a.89.89,0,0,1,0-.68A.87.87,0,0,1,.548.07.83.83,0,0,1,.888,0a.88.88,0,0,1,.82.55l6.93,16.72L15.558.55a.89.89,0,0,1,.82-.55.77.77,0,0,1,.34.07.87.87,0,0,1,.48.48.89.89,0,0,1,0,.68" transform="translate(17.792 14.16)" fill="#fff"></path><path id="Path-4" data-name="Path" d="M.89,19.44A.89.89,0,0,1,0,18.55V.89a.89.89,0,0,1,1.78,0V18.55a.89.89,0,0,1-.89.89Z" transform="translate(25.48 14.34)" fill="#fff"></path><path id="Path-5" data-name="Path" d="M1.775,20.624V.984a.89.89,0,1,0-1.77,0v20.55a.88.88,0,0,0,.88.89h0a.89.89,0,0,0,.89-.89Z" transform="translate(10.305 12.466)" fill="#fff"></path><path id="Path-6" data-name="Path" d="M.89,22.31h0a.89.89,0,0,0,.89-.89V.89A.89.89,0,0,0,0,.89V21.44a.89.89,0,0,0,.89.87Z" transform="translate(41.11 12.56)" fill="#fff"></path><path id="Path-7" data-name="Path" d="M1.647,8.377a.92.92,0,0,1-.63-.26,3.49,3.49,0,0,1,1.33-5.76h.12v-.13A3.09,3.09,0,0,1,7.287.617a.86.86,0,0,1,.34.59.81.81,0,0,1-.17.65.88.88,0,0,1-.71.36.85.85,0,0,1-.53-.18,1.32,1.32,0,0,0-2.1,1,.91.91,0,0,1-.82.91,1.72,1.72,0,0,0-1.53,1.7,1.66,1.66,0,0,0,.51,1.17.91.91,0,0,1,0,1.26A.92.92,0,0,1,1.647,8.377Z" transform="translate(4.233 26.183)" fill="#fff"></path><path id="Path-8" data-name="Path" d="M1.439,2.4a.64.64,0,0,1-1.08,0A2.55,2.55,0,0,1,.019.78.89.89,0,0,1,.9,0h.11a.89.89,0,0,1,.77,1,.9.9,0,0,0,.2.64Z" transform="translate(6.561 28.19)" fill="#fff"></path><path id="Shape-2" data-name="Shape" d="M41.648,17.71a.9.9,0,0,1-.54-.19L21.188,2.08,1.427,17.49a.855.855,0,0,1-.54.18.87.87,0,0,1-.7-.339.865.865,0,0,1-.18-.651.892.892,0,0,1,.33-.6L20.548.33a1,1,0,0,1,.7-.33H50.178a.89.89,0,0,1,.55.19l20.08,15.94a.89.89,0,0,1-.56,1.58Z" transform="translate(5.352 0)" fill="#fff"></path><path id="Path-9" data-name="Path" d="M.885,4.624a.89.89,0,0,1-.88-.89V.984a.89.89,0,1,1,1.77,0v2.75a.89.89,0,0,1-.89.89Z" transform="translate(70.245 15.916)" fill="#fff"></path><path id="Shape-3" data-name="Shape" d="M.89,5.25A.89.89,0,0,1,0,4.36V.89A.89.89,0,0,1,.89,0H4.38A.879.879,0,0,1,5.26.89V4.37a.879.879,0,0,1-.879.889Z" transform="translate(49.11 21.75)" fill="#fff"></path><path id="Shape-4" data-name="Shape" d="M.89,5.25A.89.89,0,0,1,0,4.36V.89A.89.89,0,0,1,.89,0H4.38A.879.879,0,0,1,5.26.89V4.37a.879.879,0,0,1-.879.889Z" transform="translate(59.36 21.75)" fill="#fff"></path></g></g></svg> 