<?xml version="1.0" encoding="UTF-8"?> <svg xmlns="http://www.w3.org/2000/svg" width="73.17" height="60.289" viewBox="0 0 73.17 60.289"><path id="Path_1528" data-name="Path 1528" d="M1076.256,1167.213a35,35,0,0,0,5.1,0,28.58,28.58,0,0,0,5.549-.992,29.751,29.751,0,0,0,8.364-3.8,14.68,14.68,0,0,0,1.947-1.464,14.93,14.93,0,0,1-8.469-2.922,14.511,14.511,0,0,1-5.2-7.266,14.552,14.552,0,0,0,6.314-.218c-.017-.255-6.837-2.266-9.55-7.216a14.775,14.775,0,0,1-1.965-7.184c-.011-.376.209-.176.322-.114a14.539,14.539,0,0,0,4.574,1.505c.517.084,1.047.088,1.635.132-6.594-5.428-8-11.933-4.524-19.673.916,1,1.729,1.925,2.585,2.811a42,42,0,0,0,18.991,11.2,41.688,41.688,0,0,0,8.321,1.381c.543.034.593-.166.517-.613a14.316,14.316,0,0,1,4.936-13.96,13.961,13.961,0,0,1,10.48-3.413,14.224,14.224,0,0,1,9.4,4.261.825.825,0,0,0,.874.21,29.252,29.252,0,0,0,8.024-3.028c.178-.1.371-.176.726-.343a15.088,15.088,0,0,1-6.142,7.919,26.337,26.337,0,0,0,7.969-2.057,7.825,7.825,0,0,1-1.252,1.844,27.541,27.541,0,0,1-5.364,5.2,1.113,1.113,0,0,0-.5,1.053,40.922,40.922,0,0,1-1.409,11.943,43.836,43.836,0,0,1-7.581,15.438,40.073,40.073,0,0,1-9.433,8.917,38.634,38.634,0,0,1-8.936,4.489,43.485,43.485,0,0,1-9.036,2.085,45.218,45.218,0,0,1-8.817.19,40.338,40.338,0,0,1-10.9-2.36,42.377,42.377,0,0,1-7.688-3.714,2.323,2.323,0,0,1-.254-.217A.416.416,0,0,1,1076.256,1167.213Z" transform="translate(-1074.865 -1114.367)" fill="#ed207a" stroke="#000" stroke-linecap="round" stroke-linejoin="round" stroke-width="2"></path></svg> 