<?xml version="1.0" encoding="UTF-8"?>
<svg width="16px" height="16px" viewBox="0 0 16 16" version="1.1" xmlns="http://www.w3.org/2000/svg" xmlns:xlink="http://www.w3.org/1999/xlink">
    <!-- Generator: sketchtool 64 (101010) - https://sketch.com -->
    <title>9DF22F98-7254-4053-A9DD-7462CDA8C8AE</title>
    <desc>Created with sketchtool.</desc>
    <g id="Page-1" stroke="none" stroke-width="1" fill="none" fill-rule="evenodd">
        <g id="Home" transform="translate(-1437.000000, -95.000000)" fill="#000000" fill-rule="nonzero">
            <g id="Nav" transform="translate(-1.000000, 0.000000)">
                <g id="phone">
                    <g transform="translate(1438.000000, 95.000000)">
                        <path d="M15.1686596,11.2571429 C14.4829453,10.6285714 13.8543739,9.94285714 13.2258024,9.31428571 C12.5400881,8.62857143 11.5686596,8.62857143 10.8258024,9.31428571 L10.7115167,9.37142857 C10.3686596,9.71428571 10.0258024,10 9.68294529,10.4 C9.62580243,10.3428571 9.56865957,10.3428571 9.51151672,10.3428571 C9.397231,10.2857143 9.16865957,10.2285714 9.05437386,10.1142857 C8.02580243,9.48571429 7.11151672,8.62857143 6.14008815,7.48571429 C5.68294529,6.97142857 5.397231,6.45714286 5.16865957,6 C5.45437386,5.71428571 5.74008815,5.42857143 6.02580243,5.14285714 L6.25437386,4.91428571 C6.997231,4.17142857 6.997231,3.2 6.25437386,2.45714286 C6.02580243,2.22857143 5.797231,2 5.56865957,1.77142857 L5.397231,1.48571429 L5.397231,1.48571429 C5.28294529,1.37142857 5.22580243,1.31428571 5.11151672,1.2 C4.88294529,0.971428571 4.65437386,0.742857143 4.42580243,0.514285714 C3.74008815,-0.171428571 2.76865957,-0.171428571 2.02580243,0.514285714 C1.85437386,0.685714286 1.68294529,0.857142857 1.51151672,1.02857143 C1.28294529,1.25714286 1.05437386,1.48571429 0.825802431,1.71428571 C0.368659574,2.17142857 0.0829452884,2.74285714 0.0258024313,3.37142857 C-0.088483283,4.4 0.197231003,5.31428571 0.482945288,6 C1.05437386,7.54285714 1.96865957,8.97142857 3.16865957,10.5142857 C4.71151672,12.3428571 6.54008815,13.7714286 8.65437386,14.8 C9.85437386,15.3714286 10.8258024,15.6571429 11.797231,15.7142857 C11.9115167,15.7142857 11.9115167,15.7142857 12.0258024,15.7142857 C12.8829453,15.7142857 13.5686596,15.4285714 14.0829453,14.8 C14.3115167,14.5714286 14.5400881,14.3428571 14.7686596,14.1142857 C14.8829453,14 14.997231,13.8857143 15.1686596,13.7714286 C15.9115167,12.9714286 15.9115167,12 15.1686596,11.2571429 Z" id="Shape"></path>
                    </g>
                </g>
            </g>
        </g>
    </g>
</svg>